# Blender v2.79 (sub 0) OBJ File: 'untitled.blend'
# www.blender.org
mtllib naturePack_107.mtl
o Mesh1_Tent_Model
v 0.196596 0.000000 -2.800000
v 1.500000 2.480840 -0.200000
v 0.196596 0.000000 -0.200000
v 1.500000 2.480840 -2.799999
v 0.750000 0.000000 -2.800000
v 1.500000 2.005030 -2.800000
v 0.750000 0.000000 -3.000000
v 1.500000 2.005030 -3.000000
v 1.500000 2.855031 -3.000000
v 0.000000 0.000000 -3.000000
v 0.000000 0.000000 0.000000
v 3.000000 0.000000 0.000000
v 2.803400 0.000000 -0.200000
v 2.803400 0.000000 -2.800000
v 2.250000 0.000000 -2.800000
v 2.250000 0.000000 -3.000000
v 3.000000 0.000000 -3.000000
v 1.500000 2.855030 0.000000
v 1.173820 2.234190 -0.704621
v 1.222760 2.327340 -1.295320
v 0.966335 1.839280 -1.393530
v 0.966629 1.839840 -1.786720
v 0.895448 1.704350 -2.252200
v 0.678948 1.292280 -2.099160
v 0.750130 1.427760 -1.633670
v 0.917397 1.746130 -0.802826
vt 110.236000 3.599900
vt 7.874020 113.930000
vt 7.874020 3.599900
vt 110.236000 113.930000
vt 29.527599 0.000000
vt 59.055099 97.670700
vt 7.739990 0.000000
vt 59.055099 78.938103
vt 118.110001 10.345000
vt 110.236000 94.624901
vt 110.236000 10.345000
vt 118.110001 94.624901
vt -29.527599 0.000000
vt -59.055099 112.403000
vt -59.055099 78.938103
vt -0.000000 0.000000
vt -7.739990 110.236000
vt 0.000000 118.110001
vt -29.527599 118.110001
vt 0.000000 0.000000
vt -7.739990 7.874020
vt -118.110001 0.000000
vt -110.370003 7.874020
vt -59.055099 97.670700
vt -110.370003 0.000000
vt -7.739990 0.000000
vt -110.236000 58.996899
vt -7.874020 -51.333599
vt -7.874020 58.996899
vt -110.236000 -51.333599
vt 88.582703 0.000000
vt 110.370003 0.000000
vt -110.236000 53.244801
vt -118.110001 -31.035000
vt -110.236000 -31.035000
vt -118.110001 53.244801
vt -118.110001 0.000000
vt -88.582703 0.000000
vt -0.000000 72.038399
vt 118.110001 -54.933498
vt 118.110001 72.038399
vt -0.000000 -54.933498
vt 59.055099 112.403000
vt 118.110001 0.000000
vt 0.000000 126.972000
vt -27.740999 99.361298
vt -118.110001 126.972000
vt -50.997002 103.503998
vt -54.863300 81.798302
vt -70.343300 81.823196
vt -88.669502 75.797798
vt -118.110001 0.000000
vt -82.644096 57.471600
vt -64.317902 63.496899
vt -31.607300 77.655701
vt -118.110001 118.110001
vt -110.370003 110.236000
vt -88.582703 110.236000
vt -88.582703 118.110001
vt -29.527599 110.236000
vn 0.8853 -0.4651 -0.0000
vn 0.0000 -0.0000 1.0000
vn 0.9366 -0.3504 0.0000
vn -0.0000 0.0000 -1.0000
vn -0.0000 -1.0000 -0.0000
vn -0.8853 -0.4651 -0.0000
vn -0.9366 -0.3504 0.0000
vn 0.8853 0.4651 0.0000
vn -0.8853 0.4651 -0.0000
usemtl Green_Roof.003
s 1
f 1/1/1 2/2/1 3/3/1
f 2/2/1 1/1/1 4/4/1
f 5/5/2 4/6/2 1/7/2
f 4/6/2 5/5/2 6/8/2
f 7/9/3 6/10/3 5/11/3
f 6/10/3 7/9/3 8/12/3
f 7/13/4 9/14/4 8/15/4
f 9/14/4 7/13/4 10/16/4
f 1/17/5 10/18/5 7/19/5
f 10/18/5 1/17/5 11/20/5
f 3/21/5 11/20/5 1/17/5
f 11/20/5 3/21/5 12/22/5
f 12/22/5 3/21/5 13/23/5
f 2/24/4 13/25/4 3/26/4
f 4/27/6 13/28/6 2/29/6
f 13/28/6 4/27/6 14/30/6
f 4/6/2 15/31/2 14/32/2
f 15/31/2 4/6/2 6/8/2
f 6/33/7 16/34/7 15/35/7
f 16/34/7 6/33/7 8/36/7
f 8/15/4 17/37/4 16/38/4
f 17/37/4 8/15/4 9/14/4
f 18/39/8 17/40/8 9/41/8
f 17/40/8 18/39/8 12/42/8
f 18/43/2 11/20/2 12/44/2
f 18/45/9 19/46/9 11/20/9
f 19/46/9 18/45/9 9/47/9
f 19/46/9 9/47/9 20/48/9
f 20/48/9 9/47/9 21/49/9
f 21/49/9 9/47/9 22/50/9
f 22/50/9 9/47/9 23/51/9
f 23/51/9 9/47/9 10/52/9
f 10/52/9 24/53/9 23/51/9
f 10/52/9 25/54/9 24/53/9
f 10/52/9 26/55/9 25/54/9
f 11/20/9 26/55/9 10/52/9
f 26/55/9 11/20/9 19/46/9
f 25/54/9 26/55/9 21/49/9
f 21/49/9 22/50/9 25/54/9
f 12/22/5 13/23/5 17/56/5
f 14/57/5 17/56/5 13/23/5
f 15/58/5 17/56/5 14/57/5
f 17/56/5 15/58/5 16/59/5
f 1/17/5 7/19/5 5/60/5
usemtl Leafs.038
f 20/48/9 26/55/9 19/46/9
f 26/55/9 20/48/9 21/49/9
f 22/50/9 24/53/9 25/54/9
f 24/53/9 22/50/9 23/51/9
