# Blender v2.79 (sub 0) OBJ File: 'untitled.blend'
# www.blender.org
mtllib naturePack_081.mtl
o Mesh1_Group1_Model.058
v 1.028420 0.119209 -0.584129
v 0.530195 0.000000 -0.511737
v 1.100810 0.000000 -0.511737
v 0.602587 0.119209 -0.584129
v 0.984487 0.430189 -0.628065
v 0.646523 0.430189 -0.628065
v 1.424860 0.430189 0.000000
v 0.294067 0.430189 0.000000
v 0.646523 0.430189 -0.966029
v 0.226254 0.430189 -1.567800
v 0.117292 0.430189 -0.176775
v 0.117292 0.430189 -1.414580
v 0.331462 1.132320 -0.214170
v 0.331462 1.132320 -1.213630
v 0.170441 1.132320 -1.327850
v 0.122500 1.132320 -0.099946
v 0.000000 1.132320 -0.222446
v 0.000000 1.132320 -1.189450
v 0.401424 2.001830 -0.284132
v 0.401424 2.001830 -1.143670
v 0.303191 2.001830 -0.312310
v 0.429602 2.001830 -0.185900
v 1.260960 2.001830 -0.284132
v 1.369460 1.132320 -0.099946
v 1.330920 1.132320 -0.214170
v 1.545090 0.430189 -0.120233
v 1.545090 0.430189 -1.445190
v 1.422480 0.430189 -1.567800
v 0.984487 0.430189 -0.966029
v 1.330920 1.132320 -1.213630
v 1.369460 1.132320 -1.327850
v 1.260960 2.001830 -1.143670
v 0.451025 2.001830 -1.241900
v 0.303191 2.001830 -1.130560
v 0.560906 4.034490 -0.684595
v 0.560906 4.034490 -0.744303
v 0.570130 4.034490 -0.675370
v 0.571693 4.034490 -0.752428
v 1.369460 2.001830 -1.241900
v 0.638712 4.034490 -0.752428
v 0.631977 4.034490 -0.675370
v 1.277170 2.001830 -0.185900
v 1.445150 1.132320 -1.189450
v 1.445150 1.132320 -0.175633
v 1.499190 2.001830 -0.312310
v 1.499190 2.001830 -1.112170
v 0.648179 4.034490 -0.742961
v 0.648179 4.034490 -0.684595
v 1.028420 0.119209 -1.009960
v 0.602587 0.119209 -1.009960
v 1.100810 0.000000 -1.082360
v 0.530195 0.000000 -1.082360
vt 40.489101 15.948400
vt 20.873800 10.457500
vt 43.339199 10.457500
vt 23.723900 15.948400
vt 38.759300 20.229099
vt 23.723900 7.864230
vt 40.489101 7.864230
vt 25.453699 20.229099
vt -40.489101 -0.915294
vt -25.453699 11.449600
vt -38.759300 11.449600
vt -23.723900 -0.915294
vt -43.339199 -22.118299
vt -23.723900 -16.627399
vt -40.489101 -16.627399
vt -20.873800 -22.118299
vt -43.339199 42.612499
vt -20.873800 20.147100
vt -20.873800 42.612499
vt -43.339199 20.147100
vt 42.612499 -22.495501
vt 22.997200 -17.004601
vt 20.147100 -22.495501
vt 39.762402 -17.004601
vt 39.762402 -1.016950
vt 24.726999 11.347900
vt 22.997200 -1.016950
vt 38.032700 11.347900
vt -22.997200 16.325600
vt -42.612499 10.834700
vt -20.147100 10.834700
vt -39.762402 16.325600
vt -24.726999 20.330799
vt -39.762402 7.965890
vt -22.997200 7.965890
vt -38.032700 20.330799
vt -22.082899 29.303301
vt -22.446100 26.589399
vt -22.082899 26.952600
vt -22.507601 29.623199
vt -24.881001 26.589399
vt -25.146200 29.623199
vt -25.518900 26.952600
vt -25.518900 29.250500
vt -56.096802 0.000000
vt -25.453699 24.726999
vt -38.759300 24.726999
vt -11.577400 0.000000
vt -25.453699 38.032700
vt -8.907620 61.724400
vt -4.617780 6.959660
vt -4.617780 55.692299
vt -8.431890 46.447201
vt -55.692299 17.547001
vt -6.959660 17.547001
vt -47.780701 46.447201
vt -13.049700 8.431890
vt -6.710290 52.277699
vt -13.049700 47.780701
vt -4.822820 3.934880
vt 0.000000 8.757700
vt 0.000000 46.828602
vt -11.186300 78.179398
vt -46.828602 40.474400
vt -8.757700 40.474400
vt -45.026299 78.179398
vt -15.804100 11.186300
vt -11.936700 12.295700
vt -15.804100 45.026299
vt -16.913401 7.318880
vt -49.644100 11.186300
vt 4.822820 44.427200
vt 49.644100 79.419701
vt 15.804100 79.419701
vt 53.915699 44.427200
vt -53.915699 3.934880
vt -52.398499 8.431890
vt 11.577400 16.199699
vt 52.398499 45.099998
vt 13.049700 45.099998
vt 56.096802 16.199699
vt 43.013599 33.363499
vt 39.666401 4.420500
vt 46.360699 4.420500
vt -60.830399 56.897202
vt -60.830399 4.733570
vt -56.003201 61.724400
vt -38.759300 38.032700
vt -13.049700 18.283400
vt -56.003201 -12.677100
vt -8.907620 -12.677100
vt -52.398499 18.283400
vt -53.915699 52.277699
vt -52.398499 47.780701
vt -15.804100 67.770897
vt -53.915699 32.778400
vt -6.710290 32.778400
vt -49.644100 67.770897
vt -17.756901 48.893700
vt -49.644100 45.026299
vt -11.936700 44.510101
vt -26.952600 160.354004
vt -44.510101 79.687897
vt -12.295700 79.687897
vt -29.303301 160.354004
vt -43.599201 70.530502
vt -35.268799 152.610992
vt -35.800499 152.610992
vt -36.312801 70.530502
vt -22.507601 147.488998
vt -53.915699 65.175598
vt -17.756901 65.175598
vt -25.146200 147.488998
vt 16.913401 78.335602
vt 24.881001 160.649002
vt 22.446100 160.649002
vt 50.282101 78.335602
vt -50.282101 7.318880
vt -53.915699 48.893700
vt 11.186300 66.814003
vt 46.828602 31.821400
vt 45.026299 66.814003
vt 6.914670 31.821400
vt 43.013599 70.373802
vt 40.906502 35.184601
vt 45.120602 35.184601
vt -56.895500 46.828602
vt -56.895500 6.914670
vt 8.431890 27.352200
vt 56.897202 -1.548060
vt 47.780701 27.352200
vt 4.733570 -1.548060
vt 4.045500 -18.639799
vt -3.265260 11.660400
vt -2.781150 -18.639799
vt 19.999399 28.665800
vt 15.686600 63.653198
vt 13.788800 28.665800
vt -59.023300 12.295700
vt -59.023300 43.786098
vt 3.165730 131.078995
vt -10.774300 44.141499
vt -3.551090 44.141499
vt 2.638650 131.078995
vt 47.317402 67.634102
vt 35.511902 152.860001
vt 34.777901 152.860001
vt 57.376099 67.634102
vt 43.786098 49.903900
vt 26.952600 136.660004
vt 12.295700 49.903900
vt 29.250500 136.660004
vt -2.929800 162.578995
vt -0.253856 80.653397
vt 6.784380 80.653397
vt -3.443380 162.578995
vt -40.652199 66.928200
vt -38.164001 30.858999
vt -29.519899 30.858999
vt -55.463799 4.729130
vt -48.061798 4.729130
vt -46.501202 34.652100
vt 3.265260 46.944599
vt -1.655960 18.428400
vt 8.186490 18.428400
vt 3.265260 80.481697
vt -6.192630 43.901501
vt 0.627864 43.901501
vn -0.0000 0.3364 0.9417
vn 0.0000 0.5191 0.8547
vn 0.0000 0.1399 0.9902
vn -0.0000 0.3363 -0.9417
vn 0.0000 0.1399 -0.9902
vn 0.0000 0.5191 -0.8547
vn 0.0000 -1.0000 -0.0000
vn 0.8547 0.5190 0.0000
vn 0.9417 0.3364 -0.0000
vn 0.9902 0.1399 0.0000
vn -0.9417 0.3364 -0.0000
vn -0.8547 0.5191 0.0000
vn -0.9902 0.1399 0.0000
vn -0.9565 0.2918 0.0000
vn -0.9079 0.4192 0.0000
vn 0.0000 0.2072 0.9783
vn 0.0000 0.2918 0.9565
vn 0.6754 0.2964 0.6753
vn 0.0000 0.4504 -0.8928
vn 0.0000 0.2072 -0.9783
vn -0.9921 0.1258 0.0000
vn -0.5865 0.2224 -0.7788
vn -0.5866 0.2224 -0.7788
vn 0.0000 0.2341 -0.9722
vn 0.0000 0.2341 0.9722
vn 0.9783 0.2072 0.0000
vn 0.6879 0.2316 0.6879
vn 0.9565 0.2918 0.0000
vn 0.6451 0.4095 -0.6451
vn 0.8584 0.2066 -0.4695
vn 0.6509 0.3907 -0.6509
vn 0.4646 0.3440 0.8160
vn 0.9224 0.3862 0.0000
vn -0.6908 0.2141 0.6907
vn -0.6907 0.2141 0.6907
vn -0.5983 0.3150 -0.7368
vn -0.7528 0.3829 -0.5354
vn -0.6855 0.2456 0.6855
vn -0.6617 0.3524 0.6617
usemtl Wood.052
s 1
f 1/1/1 2/2/2 3/3/2
f 2/2/2 1/1/1 4/4/1
f 5/5/3 4/6/1 1/7/1
f 4/6/1 5/5/3 6/8/3
f 49/9/4 9/10/5 29/11/5
f 9/10/5 49/9/4 50/12/4
f 51/13/6 50/14/4 49/15/4
f 50/14/4 51/13/6 52/16/6
f 51/17/7 2/18/7 52/19/7
f 2/18/7 51/17/7 3/20/7
f 51/21/8 1/22/9 3/23/8
f 1/22/9 51/21/8 49/24/9
f 49/25/9 5/26/10 1/27/9
f 5/26/10 49/25/9 29/28/10
f 4/29/11 52/30/12 2/31/12
f 52/30/12 4/29/11 50/32/11
f 6/33/13 50/34/11 4/35/11
f 50/34/11 6/33/13 9/36/13
usemtl FrontColor
f 36/37/7 37/38/7 35/39/7
f 37/38/7 36/37/7 38/40/7
f 41/41/7 38/40/7 40/42/7
f 37/38/7 38/40/7 41/41/7
f 48/43/7 40/42/7 47/44/7
f 41/41/7 40/42/7 48/43/7
usemtl Leafs.021
f 7/45/7 6/46/7 5/47/7
f 8/48/7 6/46/7 7/45/7
f 6/46/7 8/48/7 9/49/7
f 8/48/7 10/50/7 9/49/7
f 11/51/7 10/50/7 8/48/7
f 10/50/7 11/51/7 12/52/7
f 13/53/14 12/54/14 11/55/14
f 12/54/14 13/53/14 14/56/14
f 13/57/7 15/58/7 14/59/7
f 16/60/7 15/58/7 13/57/7
f 17/61/7 15/58/7 16/60/7
f 15/58/7 17/61/7 18/62/7
f 19/63/15 18/64/15 17/65/15
f 18/64/15 19/63/15 20/66/15
f 19/67/7 21/68/7 20/69/7
f 21/68/7 19/67/7 22/70/7
f 22/70/7 19/67/7 23/71/7
f 16/72/16 23/73/16 19/74/16
f 23/73/16 16/72/16 24/75/16
f 16/60/7 13/57/7 24/76/7
f 24/76/7 13/57/7 25/77/7
f 8/78/17 25/79/17 13/80/17
f 25/79/17 8/78/17 7/81/17
f 25/82/18 7/83/18 26/84/18
f 7/45/7 27/85/7 26/86/7
f 7/45/7 28/87/7 27/85/7
f 7/45/7 5/47/7 28/87/7
f 29/88/7 28/87/7 5/47/7
f 9/49/7 28/87/7 29/88/7
f 9/49/7 10/50/7 28/87/7
f 14/89/19 28/90/19 10/91/19
f 28/90/19 14/89/19 30/92/19
f 14/59/7 31/93/7 30/94/7
f 31/93/7 14/59/7 15/58/7
f 20/95/20 31/96/20 15/97/20
f 31/96/20 20/95/20 32/98/20
f 20/69/7 33/99/7 32/100/7
f 20/69/7 34/101/7 33/99/7
f 34/101/7 20/69/7 21/68/7
f 35/102/21 34/103/21 21/104/21
f 34/103/21 35/102/21 36/105/21
f 33/106/22 36/107/23 38/108/23
f 36/107/23 33/106/22 34/109/22
f 38/110/24 39/111/24 33/112/24
f 39/111/24 38/110/24 40/113/24
f 22/114/25 41/115/25 37/116/25
f 41/115/25 22/114/25 42/117/25
f 22/70/7 23/71/7 42/118/7
f 23/71/7 39/119/7 42/118/7
f 32/100/7 39/119/7 23/71/7
f 32/100/7 33/99/7 39/119/7
f 23/120/26 43/121/26 32/122/26
f 43/121/26 23/120/26 44/123/26
f 23/124/27 24/125/27 44/126/27
f 24/76/7 43/127/7 44/128/7
f 24/76/7 31/93/7 43/127/7
f 24/76/7 25/77/7 31/93/7
f 30/94/7 31/93/7 25/77/7
f 25/129/28 27/130/28 30/131/28
f 27/130/28 25/129/28 26/132/28
f 28/133/29 30/134/29 27/135/29
f 31/136/30 32/137/30 43/138/30
f 42/118/7 39/119/7 45/139/7
f 45/139/7 39/119/7 46/140/7
f 40/141/31 46/142/31 39/143/31
f 46/142/31 40/141/31 47/144/31
f 42/145/32 48/146/32 41/147/32
f 48/146/32 42/145/32 45/148/32
f 46/149/33 48/150/33 45/151/33
f 48/150/33 46/149/33 47/152/33
f 37/153/34 21/154/35 22/155/35
f 21/154/35 37/153/34 35/156/34
f 20/157/36 15/158/36 18/159/36
f 10/160/37 12/161/37 14/162/37
f 13/163/38 11/164/38 8/165/38
f 19/166/39 17/167/39 16/168/39
