# Blender v2.79 (sub 0) OBJ File: 'untitled.blend'
# www.blender.org
mtllib naturePack_095.mtl
o Mesh1_Tent_Poles_Model
v 0.196596 0.000000 -2.800000
v 1.350000 2.195330 -0.200000
v 0.196596 0.000000 -0.200000
v 1.350000 2.195330 -0.300000
v 1.500000 2.480840 -0.300000
v 1.350000 2.195330 -2.700000
v 1.350000 2.195330 -2.799999
v 0.750000 0.000000 -2.800000
v 1.350000 1.604020 -2.800000
v 0.750000 0.000000 -3.000000
v 1.350000 1.604020 -3.000000
v 1.350000 2.569520 -3.000000
v 0.000000 0.000000 -3.000000
v 0.000000 0.000000 0.000000
v 1.350000 0.000000 0.000000
v 1.350000 0.000000 -0.200000
v 1.350000 0.000000 -0.300000
v 1.650000 0.000000 -0.300000
v 1.650000 2.195330 -0.300000
v 1.500000 2.480840 -2.700000
v 1.650000 2.195330 -2.700000
v 2.803400 0.000000 -2.800000
v 2.803400 0.000000 -0.200000
v 1.650000 2.195330 -0.200000
v 1.650000 0.000000 -0.200000
v 1.650000 0.000000 0.000000
v 3.000000 0.000000 0.000000
v 3.000000 0.000000 -3.000000
v 2.250000 0.000000 -2.800000
v 2.250000 0.000000 -3.000000
v 1.650000 1.604020 -2.800000
v 1.650000 1.604020 -3.000000
v 1.650000 0.000000 -3.000000
v 1.650000 0.000000 -2.700000
v 1.350000 0.000000 -2.700000
v 1.350000 0.000000 -3.000000
v 1.500000 2.005030 -3.000000
v 1.650000 2.569520 -3.000000
v 1.650000 2.855031 -3.000000
v 1.350000 2.855031 -3.000000
v 1.350000 2.569520 -2.700000
v 1.350000 2.855031 -2.700000
v 1.500000 2.855031 -2.700000
v 0.895448 1.704350 -2.252200
v 0.678948 1.292280 -2.099160
v 0.750130 1.427760 -1.633670
v 0.917397 1.746130 -0.802826
v 1.350000 2.569520 -0.300000
v 1.350000 2.569520 0.000000
v 1.650000 2.569520 0.000000
v 1.650000 2.569520 -0.300000
v 1.500000 2.855030 -0.300000
v 1.650000 2.569520 -2.700000
v 1.650000 2.855031 -2.700000
v 1.173820 2.234190 -0.704621
v 1.222760 2.327340 -1.295320
v 0.966335 1.839280 -1.393530
v 0.966629 1.839840 -1.786720
v 1.350000 2.855030 -0.300000
v 1.350000 2.855030 0.000000
v 1.650000 2.855030 0.000000
v 1.650000 2.855030 -0.300000
v 1.650000 2.195330 -2.799999
vt -11.811000 86.430496
vt -7.874020 0.000000
vt -7.874020 86.430496
vt -11.811000 0.000000
vt -53.149601 86.430496
vt -64.960602 0.000000
vt -53.149601 0.000000
vt -64.960602 86.430496
vt -59.055099 97.670700
vt 110.236000 63.150501
vt 118.110001 0.000000
vt 118.110001 63.150501
vt 106.299004 86.430496
vt 106.299004 0.000000
vt 64.960602 86.430496
vt 53.149601 0.000000
vt 64.960602 0.000000
vt 53.149601 86.430496
vt 59.055099 97.670700
vt -110.236000 86.430496
vt -106.299004 0.000000
vt -106.299004 86.430496
vt -110.236000 63.150501
vt -118.110001 0.000000
vt -118.110001 63.150501
vt -53.149601 63.150501
vt -64.960602 -0.000000
vt -53.149601 -0.000000
vt -64.960602 63.150501
vt -59.055099 78.938103
vt -53.149601 101.162003
vt -64.960602 112.403000
vt -64.960602 101.162003
vt -53.149601 112.403000
vt -106.299004 101.162003
vt -118.110001 112.403000
vt -118.110001 101.162003
vt -106.299004 112.403000
vt 53.149601 112.403000
vt 53.149601 101.162003
vt 59.055099 112.403000
vt 53.149601 0.000000
vt 64.960602 101.162003
vt 53.149601 101.162003
vt 64.960602 0.000000
vt -53.149601 0.000000
vt -64.960602 11.811000
vt -64.960602 0.000000
vt -53.149601 7.874020
vt -53.149601 11.811000
vt -64.960602 7.874020
vt 11.811000 0.000000
vt 7.874020 86.430496
vt 7.874020 0.000000
vt 11.811000 86.430496
vt 118.110001 101.162003
vt 106.299004 112.403000
vt 106.299004 101.162003
vt 118.110001 112.403000
vt 64.960602 118.110001
vt 59.055099 106.299004
vt 64.960602 106.299004
vt 53.149601 118.110001
vt 53.149601 106.299004
vt 64.960602 101.162003
vt 64.960602 112.403000
vt -59.055099 112.403000
vt -53.149601 101.162003
vt -53.149601 112.403000
vt 0.000000 101.162003
vt -11.811000 112.403000
vt -11.811000 101.162003
vt 0.000000 112.403000
vt 53.149601 112.403000
vt 64.960602 112.403000
vt 11.811000 101.162003
vt 0.000000 112.403000
vt 0.000000 101.162003
vt 11.811000 112.403000
vt -64.960602 112.403000
vt -64.960602 101.162003
vt 59.055099 11.811000
vt 64.960602 0.000000
vt 64.960602 11.811000
vt 53.149601 11.811000
vt 53.149601 0.000000
vt -64.960602 118.110001
vt -53.149601 106.299004
vt -53.149601 118.110001
vt -64.960602 106.299004
vt 110.236000 86.430496
vt 110.236000 3.599900
vt 7.874020 101.233002
vt 7.874020 3.599900
vt 11.811000 101.233002
vt 11.811000 113.930000
vt 106.299004 101.233002
vt 110.236000 101.233002
vt 29.527599 -0.000000
vt 53.149601 86.430496
vt 7.739990 -0.000000
vt 53.149601 63.150501
vt 118.110001 10.345000
vt 110.236000 77.768898
vt 110.236000 10.345000
vt 118.110001 77.768898
vt -29.527599 0.000000
vt -0.000000 0.000000
vt -7.739990 110.236000
vt -0.000000 118.110001
vt -29.527599 118.110001
vt -0.000000 0.000000
vt -7.739990 7.874020
vt -53.149601 86.430496
vt -53.149601 0.000000
vt -7.739990 0.000000
vt -106.299004 58.996899
vt -11.811000 46.299702
vt -11.811000 58.996899
vt -106.299004 46.299702
vt -110.236000 -51.333599
vt -7.874020 -51.333599
vt -7.874020 46.299702
vt -64.960602 86.430496
vt -110.370003 0.000000
vt -64.960602 0.000000
vt -110.370003 7.874020
vt -118.110001 0.000000
vt -118.110001 118.110001
vt -110.370003 110.236000
vt -88.582703 110.236000
vt -88.582703 118.110001
vt -110.236000 36.388901
vt -118.110001 -31.035000
vt -110.236000 -31.035000
vt -118.110001 36.388901
vt 106.299004 113.930000
vt -106.299004 114.275002
vt -88.669502 75.797798
vt -106.299004 126.972000
vt -118.110001 0.000000
vt -82.644096 57.471600
vt -64.317902 63.496899
vt -31.607300 77.655701
vt -11.811000 114.275002
vt 0.000000 114.275002
vt 118.110001 0.000000
vt 118.110001 -54.933498
vt 0.000000 59.341202
vt 0.000000 -54.933498
vt 11.811000 59.341202
vt 11.811000 72.038399
vt 106.299004 59.341202
vt 118.110001 59.341202
vt -118.110001 0.000000
vt -88.582703 0.000000
vt 106.299004 72.038399
vt -11.811000 126.972000
vt -27.740999 99.361298
vt -50.997002 103.503998
vt -54.863300 81.798302
vt -70.343300 81.823196
vt -118.110001 114.275002
vt 88.582703 0.000000
vt 64.960602 86.430496
vt 64.960602 63.150501
vt 110.370003 0.000000
vt -110.236000 46.299702
vt -29.527599 110.236000
vn -1.0000 0.0000 0.0000
vn 0.0000 0.0000 -1.0000
vn 1.0000 -0.0000 0.0000
vn 0.0000 -0.0000 1.0000
vn 0.0000 -1.0000 -0.0000
vn 0.0000 1.0000 0.0000
vn 0.8853 -0.4651 0.0000
vn 0.9366 -0.3504 0.0000
vn -0.8853 -0.4651 -0.0000
vn -0.9366 -0.3504 0.0000
vn -0.8853 0.4651 -0.0000
vn 0.8853 0.4651 -0.0000
usemtl Wood.060
s 1
f 4/1/1 16/2/1 2/3/1
f 16/2/1 4/1/1 17/4/1
f 4/5/2 18/6/2 17/7/2
f 18/6/2 4/5/2 19/8/2
f 19/8/2 4/5/2 5/9/2
f 31/10/3 33/11/3 32/12/3
f 21/13/3 33/11/3 31/10/3
f 33/11/3 21/13/3 34/14/3
f 21/15/4 35/16/4 34/17/4
f 35/16/4 21/15/4 6/18/4
f 6/18/4 21/15/4 20/19/4
f 7/20/1 35/21/1 6/22/1
f 35/21/1 7/20/1 9/23/1
f 35/21/1 9/23/1 36/24/1
f 36/24/1 9/23/1 11/25/1
f 11/26/2 33/27/2 36/28/2
f 33/27/2 11/26/2 32/29/2
f 32/29/2 11/26/2 37/30/2
f 12/31/2 39/32/2 38/33/2
f 39/32/2 12/31/2 40/34/2
f 41/35/1 40/36/1 12/37/1
f 40/36/1 41/35/1 42/38/1
f 42/39/4 41/40/4 43/41/4
f 15/42/4 50/43/4 49/44/4
f 50/43/4 15/42/4 26/45/4
f 15/46/5 18/47/5 26/48/5
f 16/49/5 18/47/5 15/46/5
f 18/47/5 16/49/5 17/50/5
f 26/48/5 18/47/5 25/51/5
f 18/52/3 24/53/3 25/54/3
f 24/53/3 18/52/3 19/55/3
f 38/56/3 54/57/3 53/58/3
f 54/57/3 38/56/3 39/59/3
f 39/60/6 43/61/6 54/62/6
f 40/63/6 43/61/6 39/60/6
f 43/61/6 40/63/6 42/64/6
f 43/41/4 53/65/4 54/66/4
f 52/67/2 48/68/2 59/69/2
f 49/70/1 59/71/1 48/72/1
f 59/71/1 49/70/1 60/73/1
f 49/44/4 50/43/4 60/74/4
f 60/74/4 50/43/4 61/75/4
f 51/76/3 61/77/3 50/78/3
f 61/77/3 51/76/3 62/79/3
f 52/67/2 62/80/2 51/81/2
f 52/82/6 61/83/6 62/84/6
f 59/85/6 61/83/6 52/82/6
f 61/83/6 59/85/6 60/86/6
f 33/87/5 35/88/5 36/89/5
f 35/88/5 33/87/5 34/90/5
f 21/13/3 31/10/3 63/91/3
usemtl Green_Roof.002
f 1/92/7 2/93/7 3/94/7
f 2/93/7 1/92/7 4/95/7
f 4/95/7 1/92/7 5/96/7
f 5/96/7 1/92/7 6/97/7
f 6/97/7 1/92/7 7/98/7
f 8/99/4 7/100/4 1/101/4
f 7/100/4 8/99/4 9/102/4
f 10/103/8 9/104/8 8/105/8
f 9/104/8 10/103/8 11/106/8
f 10/107/2 12/31/2 11/26/2
f 12/31/2 10/107/2 13/108/2
f 1/109/5 13/110/5 10/111/5
f 13/110/5 1/109/5 14/112/5
f 3/113/5 14/112/5 1/109/5
f 14/112/5 3/113/5 15/46/5
f 15/46/5 3/113/5 16/49/5
f 2/114/2 16/115/2 3/116/2
f 20/117/9 19/118/9 5/119/9
f 21/120/9 19/118/9 20/117/9
f 22/121/9 19/118/9 21/120/9
f 23/122/9 19/118/9 22/121/9
f 19/118/9 23/122/9 24/123/9
f 24/124/2 23/125/2 25/126/2
f 23/127/5 26/48/5 25/51/5
f 26/48/5 23/127/5 27/128/5
f 27/128/5 23/127/5 28/129/5
f 22/130/5 28/129/5 23/127/5
f 29/131/5 28/129/5 22/130/5
f 28/129/5 29/131/5 30/132/5
f 31/133/10 30/134/10 29/135/10
f 30/134/10 31/133/10 32/136/10
f 20/137/7 5/96/7 6/97/7
f 11/26/2 12/31/2 37/30/2
f 37/30/2 12/31/2 38/33/2
f 41/138/11 44/139/11 43/140/11
f 13/141/11 44/139/11 41/138/11
f 13/141/11 45/142/11 44/139/11
f 13/141/11 46/143/11 45/142/11
f 13/141/11 47/144/11 46/143/11
f 14/112/11 47/144/11 13/141/11
f 14/112/11 48/145/11 47/144/11
f 48/145/11 14/112/11 49/146/11
f 49/44/4 14/112/4 15/42/4
f 50/43/4 26/45/4 27/147/4
f 28/148/12 50/149/12 27/150/12
f 50/149/12 28/148/12 51/151/12
f 51/151/12 28/148/12 52/152/12
f 52/152/12 28/148/12 53/153/12
f 53/153/12 28/148/12 38/154/12
f 28/155/2 32/29/2 38/33/2
f 32/29/2 28/155/2 30/156/2
f 38/33/2 32/29/2 37/30/2
f 43/157/12 52/152/12 53/153/12
f 43/140/11 48/145/11 52/158/11
f 48/145/11 43/140/11 55/159/11
f 55/159/11 43/140/11 56/160/11
f 56/160/11 43/140/11 57/161/11
f 57/161/11 43/140/11 58/162/11
f 58/162/11 43/140/11 44/139/11
f 57/161/11 58/162/11 46/143/11
f 46/143/11 47/144/11 57/161/11
f 47/144/11 48/145/11 55/159/11
f 13/141/11 41/138/11 12/163/11
f 29/164/4 63/165/4 31/166/4
f 63/165/4 29/164/4 22/167/4
f 22/121/9 21/120/9 63/168/9
f 1/109/5 10/111/5 8/169/5
usemtl Leafs.031
f 45/142/11 58/162/11 44/139/11
f 58/162/11 45/142/11 46/143/11
f 47/144/11 56/160/11 57/161/11
f 56/160/11 47/144/11 55/159/11
