# Blender v2.79 (sub 0) OBJ File: 'untitled.blend'
# www.blender.org
mtllib naturePack_045.mtl
o Mesh1_Group1_Model.034
v 0.380600 0.000000 -1.002650
v 0.309399 0.000000 0.000000
v 0.000000 0.000000 -0.726892
v 1.049400 0.000000 0.000000
v 0.926258 0.000000 -1.190620
v 0.380600 0.180000 -1.002650
v 0.926258 0.180000 -1.190620
v 1.049400 0.180000 0.000000
v 0.309399 0.180000 0.000000
v 0.000000 0.180000 -0.726892
v 1.374140 0.000000 -0.539855
v 1.374140 0.180000 -0.539855
vt -14.984200 39.474499
vt -12.181100 0.000000
vt 0.000000 28.617800
vt -41.314899 0.000000
vt -36.466900 46.875000
vt -27.024099 7.086610
vt -49.745701 0.000000
vt -27.024099 0.000000
vt -49.745701 7.086610
vt 14.984200 39.474499
vt 41.314899 0.000000
vt 36.466900 46.875000
vt 12.181100 0.000000
vt 0.000000 28.617800
vt -35.294701 0.000000
vt -16.790800 7.086610
vt -35.294701 7.086610
vt -16.790800 0.000000
vt 4.770640 0.000000
vt -26.331699 7.086610
vt -26.331699 0.000000
vt 4.770640 7.086610
vt 12.181100 0.000000
vt 41.314899 7.086610
vt 12.181100 7.086610
vt 41.314899 0.000000
vt 46.099400 0.000000
vt 21.296301 7.086610
vt 21.296301 0.000000
vt 46.099400 7.086610
vt 17.939199 0.000000
vt -13.163200 7.086610
vt -13.163200 0.000000
vt 17.939199 7.086610
vt 54.099998 21.254101
vt -54.099998 21.254101
vn 0.0000 -1.0000 -0.0000
vn -0.3257 0.0000 -0.9455
vn 0.0000 1.0000 0.0000
vn -0.5867 0.0000 -0.8098
vn -0.9201 -0.0000 0.3916
vn 0.0000 -0.0000 1.0000
vn 0.8569 0.0000 0.5155
vn 0.8238 0.0000 -0.5669
usemtl Stone.016
s 1
f 1/1/1 2/2/1 3/3/1
f 2/2/1 1/1/1 4/4/1
f 4/4/1 1/1/1 5/5/1
f 6/6/2 5/7/2 1/8/2
f 5/7/2 6/6/2 7/9/2
f 6/10/3 8/11/3 7/12/3
f 6/10/3 9/13/3 8/11/3
f 9/13/3 6/10/3 10/14/3
f 1/15/4 10/16/4 6/17/4
f 10/16/4 1/15/4 3/18/4
f 2/19/5 10/20/5 3/21/5
f 10/20/5 2/19/5 9/22/5
f 2/23/6 8/24/6 9/25/6
f 8/24/6 2/23/6 4/26/6
f 11/27/7 8/28/7 4/29/7
f 8/28/7 11/27/7 12/30/7
f 5/31/8 12/32/8 11/33/8
f 12/32/8 5/31/8 7/34/8
f 7/12/3 8/11/3 12/35/3
f 4/4/1 5/5/1 11/36/1
