# Blender v2.79 (sub 0) OBJ File: 'untitled.blend'
# www.blender.org
mtllib naturePack_082.mtl
o Mesh1_Trunk_Model
v 0.803690 0.000000 -0.803690
v 0.701729 0.230000 -0.101961
v 0.803690 0.000000 0.000000
v 0.701729 0.230000 -0.701729
v 0.101961 0.230000 -0.701729
v 0.000000 0.000000 -0.803690
v 0.000000 0.000000 0.000000
v 0.101961 0.230000 -0.101961
v 0.639848 0.830000 -0.163841
v 0.163841 0.830000 -0.163841
v 0.163841 0.830000 -0.639848
v 0.639848 0.830000 -0.639848
vt 31.641300 -12.823300
vt 4.014200 -2.918280
vt 0.000000 -12.823300
vt 27.627100 -2.918280
vt -31.641300 -12.823300
vt -4.014200 -2.918280
vt -27.627100 -2.918280
vt 0.000000 -12.823300
vt -31.641300 31.641300
vt 0.000000 0.000000
vt 0.000000 31.641300
vt -31.641300 0.000000
vt 27.627100 9.905000
vt 31.641300 -0.000000
vt 4.014200 9.905000
vt 25.190901 33.166500
vt 4.014200 9.419160
vt 27.627100 9.419160
vt 6.450450 33.166500
vt 6.450450 29.920401
vt 27.627100 6.173060
vt 25.190901 29.920401
vt 4.014200 6.173060
vt -27.627100 6.173060
vt -6.450450 29.920401
vt -25.190901 29.920401
vt -4.014200 6.173060
vt -27.627100 9.419160
vt -6.450450 33.166500
vt -25.190901 33.166500
vt -4.014200 9.419160
vt -31.641300 0.000000
vt -4.014200 9.905000
vt -27.627100 9.905000
vt 25.190901 6.450450
vt 6.450450 25.190901
vt 6.450450 6.450450
vt 25.190901 25.190901
vn 0.9142 0.4053 0.0000
vn 0.9664 0.2571 0.0000
vn 0.0000 0.4053 -0.9142
vn -0.0000 0.2571 -0.9664
vn 0.0000 -1.0000 -0.0000
vn 0.0000 0.2571 0.9664
vn 0.0000 0.4053 0.9142
vn 0.0000 0.1026 0.9947
vn 0.9947 0.1026 0.0000
vn 0.0000 0.1026 -0.9947
vn -0.9664 0.2571 -0.0000
vn -0.9947 0.1026 0.0000
vn -0.9142 0.4053 0.0000
vn 0.0000 1.0000 0.0000
usemtl Wood.053
s 1
f 1/1/1 2/2/2 3/3/1
f 2/2/2 1/1/1 4/4/2
f 1/5/3 5/6/4 4/7/4
f 5/6/4 1/5/3 6/8/3
f 1/9/5 7/10/5 6/11/5
f 7/10/5 1/9/5 3/12/5
f 2/13/6 7/10/7 3/14/7
f 7/10/7 2/13/6 8/15/6
f 9/16/8 8/17/6 2/18/6
f 8/17/6 9/16/8 10/19/8
f 9/20/9 4/21/2 12/22/9
f 4/21/2 9/20/9 2/23/2
f 4/24/4 11/25/10 12/26/10
f 11/25/10 4/24/4 5/27/4
f 5/28/11 10/29/12 11/30/12
f 10/29/12 5/28/11 8/31/11
f 6/32/13 8/33/11 5/34/11
f 8/33/11 6/32/13 7/10/13
usemtl Light_Wood.003
f 9/35/14 11/36/14 10/37/14
f 11/36/14 9/35/14 12/38/14
