# Blender v2.79 (sub 0) OBJ File: 'untitled.blend'
# www.blender.org
mtllib naturePack_159.mtl
o Mesh1_Group1_Model.075
v 0.960769 4.999731 -1.788039
v 1.477850 5.163640 -1.407939
v 1.578880 4.929231 -1.466269
v 0.960769 5.163640 -1.706479
v 0.383145 5.023170 -1.442889
v 0.443683 5.163640 -1.407939
v 0.443683 5.163640 -0.810859
v 0.364586 4.980100 -0.765193
v 0.180154 4.990650 -0.701640
v 0.180154 5.047441 -1.565539
v 0.927728 5.016340 -2.000499
v 0.978354 5.820210 -1.653179
v 0.469123 5.774530 -1.388159
v 0.503867 5.825800 -0.816913
v 0.988057 5.908600 -0.587260
v 0.927728 4.902760 -0.272701
v 0.960769 4.907500 -0.384856
v 0.000000 4.134120 -0.554699
v 0.960769 4.134120 0.000001
v 0.862749 4.134120 -1.011379
v 0.862749 4.134120 -1.207419
v 0.960769 4.134120 -2.218799
v 0.000000 4.134120 -1.664099
v 1.675300 4.928451 -1.571559
v 1.425260 5.904670 -1.342909
v 1.018940 5.818340 -1.741769
v 0.442525 5.769810 -1.402839
v 0.442525 5.824420 -0.734529
v 1.018940 5.927570 -0.405141
v 0.591465 6.051800 -0.848106
v 0.993809 6.004500 -0.617251
v 1.407360 5.942940 -0.845575
v 1.396150 5.987760 -0.851345
v 1.396150 6.018320 -1.316299
v 0.993809 6.065620 -1.547149
v 0.591465 6.082360 -1.313059
v 1.675300 4.871660 -0.707659
v 1.595350 5.976100 -0.744066
v 1.595350 5.921480 -1.412379
v 0.906981 6.942891 -1.513949
v 1.258400 6.908890 -1.337839
v 0.924714 6.947731 -1.618559
v 0.591424 6.953270 -1.323129
v 0.510558 6.961930 -1.378089
v 0.510558 6.934300 -0.899630
v 0.584924 6.932250 -0.951584
v 0.592371 6.990190 -0.962936
v 0.592371 6.960800 -1.322619
v 0.902597 6.986920 -1.505029
v 1.212820 7.042430 -1.327759
v 1.212820 7.071820 -0.968069
v 1.278410 6.883960 -0.929663
v 0.918053 6.897160 -0.735109
v 0.902597 7.045700 -0.785660
v 0.924714 6.892470 -0.661647
v 0.996823 8.298130 -1.011749
v 0.938870 8.303980 -1.045049
v 0.938870 8.307850 -1.111999
v 0.996823 8.305860 -1.145649
v 1.054780 8.296140 -1.045399
v 1.338870 6.878270 -0.902120
v 1.338870 6.905900 -1.380579
v 1.054780 8.300010 -1.112349
v 1.600180 4.879800 -0.740236
v 1.921540 4.134120 -0.554699
v 1.058790 4.134120 -1.011379
v 0.775285 0.000000 -0.923916
v 1.146250 0.000000 -0.923916
v 1.146250 0.000000 -1.294880
v 0.775285 0.000000 -1.294880
v 1.058790 4.134120 -1.207419
v 1.921540 4.134120 -1.664099
v 1.477850 5.163640 -0.810859
v 0.960769 5.163640 -0.512320
vt 30.523001 0.769392
vt 41.684601 163.567001
vt 33.966499 163.567001
vt 45.128101 0.769392
vt -30.523001 36.374599
vt -45.128101 50.979698
vt -45.128101 36.374599
vt -30.523001 50.979698
vt -39.818100 163.442993
vt -50.979698 0.645619
vt -36.374599 0.645619
vt -47.536201 163.442993
vt -41.684601 39.818100
vt -33.966499 47.536201
vt -41.684601 47.536201
vt 39.818100 161.843002
vt 50.979698 -0.954543
vt 47.536201 161.843002
vt 36.374599 -0.954543
vt -45.128101 -1.078320
vt -33.966499 161.718994
vt -41.684601 161.718994
vt -30.523001 -1.078320
vt 2.439850 149.154007
vt -22.672800 156.181000
vt -24.969101 146.132004
vt 0.834234 156.181000
vt -41.466900 165.128998
vt -66.349998 171.151001
vt -67.955597 164.125000
vt -42.842899 171.151001
vt -56.806702 187.585007
vt -31.923599 193.606995
vt -55.430698 193.606995
vt -30.125700 185.738998
vt -25.834801 32.229599
vt -53.444901 44.673100
vt -32.381302 28.192400
vt -52.093601 53.961300
vt -84.020302 42.058498
vt -36.394501 165.069000
vt -65.476700 197.921005
vt -70.442101 163.746002
vt -42.887501 195.979004
vt -61.432701 188.231003
vt -31.641500 221.134995
vt -54.159000 218.966995
vt -27.432199 185.830994
vt -6.739290 196.042999
vt 23.445700 233.817993
vt 2.370930 230.410004
vt 27.177099 192.425995
vt -31.502600 -1.404870
vt -35.738300 0.406790
vt -10.919300 156.955994
vt 25.181999 190.110992
vt -2.632140 193.223999
vt 32.757900 156.955994
vt 0.000000 21.838600
vt -33.966499 39.818100
vt -37.825500 0.000000
vt -37.825500 87.354301
vt 0.000000 65.515701
vt -65.515701 149.470993
vt -21.838600 149.470993
vt -76.434998 127.014999
vt -32.757900 127.014999
vt -78.389397 35.704601
vt -89.688103 8.424040
vt 10.457800 160.016006
vt -19.831900 196.889008
vt -23.455200 156.367004
vt 1.558690 193.382996
vt 75.615402 33.768002
vt 79.422302 33.288300
vt 74.473198 55.413799
vt 56.200500 22.058901
vt 56.141899 20.849800
vt 33.758999 34.847099
vt 37.787701 35.200699
vt 34.656502 61.282799
vt 40.116901 56.421700
vt 4.836190 239.710007
vt 23.090000 237.764008
vt 64.638702 227.681000
vt 46.049400 230.171997
vt 45.252201 226.291000
vt 64.375099 229.494995
vt 53.793598 211.901993
vt 34.424198 215.276001
vt 34.204399 213.455994
vt 52.726799 216.516998
vt -1.158030 203.570007
vt -19.410000 201.606003
vt -45.636501 209.065994
vt -63.960899 208.354004
vt -32.780499 230.688004
vt -51.079498 231.979996
vt 62.957298 172.264999
vt 28.950199 169.959000
vt 36.889999 185.582001
vt 70.940002 184.322998
vt 57.446098 65.223503
vt 57.937000 73.721298
vt 80.319801 59.723999
vt -3.864730 251.369003
vt -29.713200 210.145004
vt -3.591820 205.981995
vt -19.337200 249.996002
vt -68.530602 35.664200
vt -72.118797 37.811298
vt -72.221703 20.575899
vt -54.756199 40.270199
vt -54.339298 44.112000
vt -39.998001 31.850901
vt -43.453499 30.944401
vt -38.150002 275.906006
vt -52.329601 274.441010
vt -37.700001 273.606995
vt -52.310101 274.739990
vt -60.957100 269.079987
vt -46.767502 267.746002
vt -46.789200 268.044006
vt -61.285801 267.334015
vt -17.933901 255.386002
vt -3.875420 253.145996
vt 36.758701 247.494995
vt 51.260399 240.712997
vt 50.914001 246.272003
vt 35.174900 239.675003
vt 60.241001 266.290009
vt 45.644100 259.009003
vt 61.765999 258.459015
vt 46.077099 265.200989
vt 13.877200 280.346985
vt -0.194014 275.760010
vt 15.443800 274.341003
vt -0.180623 278.101990
vt -43.436100 13.289100
vt -45.467999 15.372100
vt 15.330300 330.153992
vt 0.649074 274.894989
vt 19.450399 273.200989
vt 12.699400 330.390991
vt 55.770599 24.947300
vt 57.296398 29.260401
vt 55.289501 27.544701
vt 59.784302 28.378700
vt 58.258598 24.065599
vt 44.586800 267.393005
vt 56.659801 323.631012
vt 54.021500 323.710999
vt 63.441101 266.824005
vt -60.497898 9.513680
vt -61.215599 6.988390
vt 69.135597 220.612000
vt 42.818298 218.589005
vt 25.670000 235.134003
vt -0.450070 230.964005
vt -55.407101 227.477005
vt -29.097099 229.643997
vt -69.680099 222.729996
vt -43.355400 220.804993
vt 53.821899 199.613007
vt 27.520700 201.886002
vt -75.556900 19.249500
vt 1.918870 244.927994
vt -12.794800 300.075989
vt -16.881399 243.222000
vt -10.164100 300.315002
vt -44.264702 248.714996
vt -56.396000 304.415985
vt -63.118401 248.126007
vt -53.757702 304.498993
vt -53.881199 267.786011
vt -40.465302 323.175995
vt -43.100700 323.334991
vt -35.047501 266.645996
vt 60.265400 25.781300
vt 41.637798 312.074005
vt 54.963200 256.239990
vt 44.273499 312.229004
vt 36.127602 255.130005
vt -63.429199 -13.307700
vt -62.539700 -10.192500
vt 32.757900 141.985992
vt 69.130402 173.953003
vt 40.333801 175.141006
vt 76.434998 141.985992
vt -75.651100 21.838600
vt -75.651100 65.515701
vt -32.757900 112.044998
vt 10.919300 112.044998
vt -84.074898 8.721940
vt 57.727001 153.617004
vt 31.923599 163.666000
vt 29.143200 151.498001
vt 55.430698 163.666000
vt 66.349998 186.121994
vt 42.842899 186.121994
vt 22.672800 201.091995
vt -0.834234 201.091995
vt 65.515701 119.529999
vt 21.838600 119.529999
vn 0.0000 0.0212 0.9998
vn 0.0000 -1.0000 -0.0000
vn -0.9998 0.0212 0.0000
vn 0.9998 0.0212 0.0000
vn 0.0000 0.0212 -0.9998
vn 0.4592 0.3958 -0.7953
vn 0.4592 0.3957 -0.7953
vn -0.4592 0.3957 -0.7953
vn -0.4592 0.3958 -0.7953
vn -0.9183 0.3958 0.0000
vn -0.9184 0.3958 0.0000
vn -0.0794 -0.9947 -0.0654
vn -0.4539 0.3773 -0.8072
vn -0.9310 0.3642 0.0239
vn -0.4502 0.2910 0.8442
vn -0.4592 0.3958 0.7953
vn 0.4998 0.3168 -0.8061
vn 0.1307 -0.9881 0.0807
vn 0.1307 -0.9881 0.0808
vn 0.4964 0.2318 0.8366
vn 0.4964 0.2319 0.8366
vn 0.9695 0.2446 0.0161
vn 0.4998 0.3168 -0.8062
vn 0.1306 -0.9881 0.0808
vn 0.4540 0.2201 -0.8634
vn -0.0675 -0.9961 -0.0575
vn -0.0676 -0.9961 -0.0575
vn -0.9920 0.1255 -0.0103
vn -0.5107 0.1215 -0.8511
vn -0.5107 0.1216 -0.8511
vn 0.9454 0.3247 -0.0265
vn 0.9455 0.3247 -0.0265
vn 0.4580 0.3288 0.8259
vn 0.4580 0.3287 0.8259
vn -0.5135 0.2281 0.8272
vn -0.4661 0.2363 0.8526
vn 0.0676 0.9961 0.0575
vn 0.0675 0.9961 0.0576
vn 0.4982 0.1854 0.8470
vn 0.4580 0.3287 0.8260
vn 0.9455 0.3246 -0.0265
vn 0.5006 0.2608 -0.8254
vn -0.4689 0.3125 -0.8261
vn -0.9538 0.3001 0.0173
vn 0.9802 0.1976 0.0114
vn 0.4592 0.3958 0.7953
vn 0.9183 0.3958 0.0000
usemtl Wood.095
s 1
f 67/1/1 66/2/1 20/3/1
f 66/2/1 67/1/1 68/4/1
f 67/5/2 69/6/2 68/7/2
f 69/6/2 67/5/2 70/8/2
f 20/9/3 70/10/3 67/11/3
f 70/10/3 20/9/3 21/12/3
f 66/13/2 21/14/2 71/15/2
f 66/16/4 69/17/4 71/18/4
f 69/17/4 66/16/4 68/19/4
f 69/20/5 21/21/5 71/22/5
f 21/21/5 69/20/5 70/23/5
usemtl Leafs.056
f 1/24/6 2/25/6 3/26/6
f 2/25/7 1/24/7 4/27/7
f 5/28/8 4/29/8 1/30/8
f 4/29/9 5/28/9 6/31/9
f 5/32/10 7/33/11 6/34/10
f 7/33/11 5/32/10 8/35/11
f 9/36/12 5/37/12 8/38/12
f 10/39/12 5/37/12 9/36/12
f 5/37/12 10/39/12 11/40/12
f 10/41/13 12/42/13 11/43/13
f 12/42/13 10/41/13 13/44/13
f 10/45/14 14/46/14 13/47/14
f 14/46/14 10/45/14 9/48/14
f 9/49/15 15/50/15 14/51/15
f 15/50/15 9/49/15 16/52/15
f 8/38/12 16/53/12 9/36/12
f 16/53/12 8/38/12 17/54/12
f 18/55/16 17/56/16 8/57/16
f 17/56/16 18/55/16 19/58/16
f 18/59/2 20/60/2 19/61/2
f 20/60/2 18/59/2 21/14/2
f 18/59/2 22/62/2 21/14/2
f 22/62/2 18/59/2 23/63/2
f 8/35/10 23/64/10 18/65/10
f 23/64/10 8/35/10 5/32/10
f 5/28/9 22/66/9 23/67/9
f 22/66/9 5/28/9 1/30/9
f 5/37/12 11/40/12 1/68/12
f 1/68/12 11/40/12 24/69/12
f 11/70/17 25/71/17 24/72/17
f 25/71/17 11/70/17 12/73/17
f 12/74/18 26/75/18 25/76/19
f 13/77/19 26/75/18 12/74/18
f 13/77/19 27/78/19 26/75/18
f 27/78/19 13/77/19 28/79/18
f 14/80/18 28/79/18 13/77/19
f 28/79/18 14/80/18 29/81/19
f 29/81/19 14/80/18 15/82/19
f 15/50/15 30/83/15 14/51/15
f 30/83/15 15/50/15 31/84/15
f 32/85/20 31/86/20 15/87/20
f 31/86/21 32/85/21 33/88/21
f 25/89/22 33/90/22 32/91/22
f 33/90/22 25/89/22 34/92/22
f 25/71/17 35/93/17 34/94/23
f 35/93/17 25/71/17 12/73/17
f 12/42/13 36/95/13 35/96/13
f 36/95/13 12/42/13 13/44/13
f 13/47/14 30/97/14 36/98/14
f 30/97/14 13/47/14 14/46/14
f 32/91/22 24/99/22 25/89/22
f 24/99/22 32/91/22 37/100/22
f 32/85/21 16/101/21 37/102/21
f 16/101/21 32/85/21 15/87/20
f 29/81/19 15/82/19 32/103/19
f 29/81/19 32/103/19 38/104/19
f 38/104/19 32/103/19 25/76/19
f 38/104/19 25/76/19 39/105/24
f 25/76/19 26/75/18 39/105/24
f 40/106/25 39/107/25 26/108/25
f 39/107/25 40/106/25 41/109/25
f 40/110/26 42/111/26 41/112/27
f 43/113/27 42/111/26 40/110/26
f 43/113/27 44/114/27 42/111/26
f 44/114/27 43/113/27 45/115/27
f 45/115/27 43/113/27 46/116/27
f 47/117/28 43/118/28 46/119/28
f 43/118/28 47/117/28 48/120/28
f 49/121/29 43/122/29 48/123/29
f 43/122/30 49/121/30 40/124/30
f 50/125/25 40/106/25 49/126/25
f 40/106/25 50/125/25 41/109/25
f 51/127/31 41/128/31 50/129/31
f 41/128/32 51/127/32 52/130/32
f 51/131/33 53/132/34 52/133/33
f 53/132/34 51/131/33 54/134/34
f 54/135/35 46/136/35 53/137/35
f 46/136/35 54/135/35 47/138/35
f 55/139/26 46/116/27 53/140/26
f 46/116/27 55/139/26 45/115/27
f 56/141/36 45/142/36 55/143/36
f 45/142/36 56/141/36 57/144/36
f 56/145/37 58/146/37 57/147/38
f 58/146/37 56/145/37 59/148/37
f 59/148/37 56/145/37 60/149/37
f 55/150/39 60/151/39 56/152/39
f 60/151/39 55/150/39 61/153/39
f 55/139/26 52/154/26 61/155/26
f 55/139/26 53/140/26 52/154/26
f 53/132/40 38/156/40 52/133/40
f 38/156/34 53/132/34 29/157/34
f 46/136/35 29/158/35 53/137/35
f 29/158/35 46/136/35 28/159/35
f 46/119/28 27/160/28 28/161/28
f 27/160/28 46/119/28 43/118/28
f 43/122/30 26/162/30 27/163/30
f 26/162/30 43/122/30 40/124/30
f 39/164/41 52/130/41 38/165/41
f 52/130/41 39/164/41 41/128/41
f 41/112/27 62/166/27 52/154/26
f 41/112/27 42/111/26 62/166/27
f 42/167/42 63/168/42 62/169/42
f 63/168/42 42/167/42 59/170/42
f 44/171/43 59/172/43 42/173/43
f 59/172/43 44/171/43 58/174/43
f 44/175/44 57/176/44 58/177/44
f 57/176/44 44/175/44 45/178/44
f 59/148/37 60/149/37 63/179/38
f 60/180/45 62/181/45 63/182/45
f 62/181/45 60/180/45 61/183/45
f 61/155/26 52/154/26 62/166/27
f 16/53/12 17/54/12 37/184/12
f 37/184/12 17/54/12 64/185/12
f 19/186/46 64/187/46 17/188/46
f 64/187/46 19/186/46 65/189/46
f 19/61/2 66/13/2 65/190/2
f 19/61/2 20/60/2 66/13/2
f 66/13/2 20/60/2 21/14/2
f 21/14/2 22/62/2 71/15/2
f 71/15/2 22/62/2 72/191/2
f 1/24/6 72/192/6 22/193/6
f 72/192/6 1/24/6 3/26/6
f 1/68/12 24/69/12 3/194/12
f 3/194/12 24/69/12 64/185/12
f 37/184/12 64/185/12 24/69/12
f 3/195/47 73/196/47 64/197/47
f 73/196/47 3/195/47 2/198/47
f 73/199/46 17/188/46 64/187/46
f 17/188/46 73/199/46 74/200/46
f 74/201/16 8/57/16 17/56/16
f 8/57/16 74/201/16 7/202/16
f 64/197/47 72/203/47 3/195/47
f 72/203/47 64/197/47 65/204/47
f 65/190/2 66/13/2 72/191/2
f 71/15/2 72/191/2 66/13/2
