# Blender v2.79 (sub 0) OBJ File: 'untitled.blend'
# www.blender.org
mtllib naturePack_056.mtl
o Mesh1_Group1_Model.045
v 0.660070 0.781514 -0.621147
v 0.602487 0.781514 -0.781410
v 0.547487 0.781514 -0.686147
v 0.715070 0.781514 -0.716410
v 0.715070 0.491514 -0.716410
v 0.660070 0.671514 -0.621147
v 0.605070 0.671514 -0.525885
v 0.605070 0.491514 -0.525885
v 0.648372 1.470000 -0.500885
v 0.648372 0.000000 -0.500885
v 0.492487 0.491514 -0.590885
v 0.449186 0.000000 -0.615885
v 0.449186 1.470000 -0.615885
v 0.250000 1.470000 -0.500885
v 0.250000 0.000000 -0.500885
v 0.250000 0.000000 -0.270885
v 0.449186 0.000000 -0.155885
v 0.648372 0.000000 -0.270885
v 0.648372 1.470000 -0.270885
v 0.449186 1.470000 -0.155885
v 0.250000 1.470000 -0.270885
v 0.299796 1.540000 -0.299635
v 0.299796 1.540000 -0.472135
v 0.449186 1.540000 -0.213385
v 0.449186 1.540000 -0.558385
v 0.598575 1.540000 -0.299635
v 0.492487 0.601981 -0.180885
v 0.492487 0.441981 -0.180885
v 0.605070 0.441981 -0.245885
v 0.605070 0.601981 -0.245885
v 0.537487 0.601981 -0.102942
v 0.650070 0.601981 -0.167942
v 0.537487 0.731981 -0.102942
v 0.650070 0.731981 -0.167942
v 0.582487 0.731981 -0.025000
v 0.695070 0.731981 -0.090000
v 0.582487 0.441981 -0.025000
v 0.695070 0.441981 -0.090000
v 0.250000 1.106160 -0.320885
v 0.250000 1.106160 -0.450885
v 0.250000 0.876160 -0.450885
v 0.250000 0.876160 -0.320885
v 0.000000 0.876160 -0.320885
v 0.125000 1.106160 -0.320885
v 0.125000 1.106160 -0.450885
v 0.000000 1.226160 -0.450885
v 0.000000 0.876160 -0.450885
v 0.000000 1.226160 -0.320885
v 0.125000 1.226160 -0.320885
v 0.125000 1.226160 -0.450885
v 0.598575 1.540000 -0.472135
v 0.492487 0.671514 -0.590885
v 0.547487 0.671514 -0.686147
v 0.602487 0.491514 -0.781410
vt 25.987000 24.454599
vt 23.719999 30.764200
vt 21.554600 27.013700
vt 28.152399 28.205099
vt 34.171799 30.768299
vt 38.502499 19.351000
vt 38.502499 30.768299
vt 34.171799 26.437599
vt 29.841101 26.437599
vt 29.841101 19.351000
vt -12.246600 57.874001
vt -10.278100 19.351000
vt -10.278100 26.437599
vt -12.246600 -0.000000
vt -5.160000 19.351000
vt -3.191500 -0.000000
vt -3.191500 57.874001
vt -27.438900 0.000000
vt -18.383801 57.874001
vt -27.438900 57.874001
vt -18.383801 0.000000
vt -17.684500 24.247400
vt -9.842520 10.664700
vt -9.842520 19.719900
vt -17.684500 6.137190
vt -25.526400 19.719900
vt -25.526400 10.664700
vt 19.719900 0.000000
vt 10.664700 57.874001
vt 10.664700 0.000000
vt 19.719900 57.874001
vt 17.684500 24.247400
vt 25.526400 10.664700
vt 25.526400 19.719900
vt 17.684500 6.137190
vt 9.842520 19.719900
vt 9.842520 10.664700
vt -11.796600 56.246300
vt -19.719900 52.864201
vt -10.664700 52.864201
vt -18.587999 56.246300
vt 17.684500 8.400970
vt 11.803000 18.587999
vt 11.803000 11.796600
vt 17.684500 21.983601
vt 23.566000 11.796600
vt 18.383801 45.114101
vt 26.306999 48.496201
vt 19.515699 48.496201
vt 27.438900 45.114101
vt 18.383801 57.874001
vt 20.352301 23.700001
vt 27.438900 57.874001
vt 20.352301 17.400801
vt 18.383801 0.000000
vt 25.470400 17.400801
vt 27.438900 0.000000
vt 25.470400 23.700001
vt 21.160900 4.052850
vt 23.821699 9.680490
vt 19.389299 7.121440
vt 25.593300 6.611900
vt -20.352301 28.818100
vt -25.470400 23.700001
vt -20.352301 23.700001
vt -25.470400 28.818100
vt 22.932600 0.984252
vt 25.593300 6.611900
vt 21.160900 4.052850
vt 27.365000 3.543310
vt 20.352301 17.400801
vt 25.470400 28.818100
vt 20.352301 28.818100
vt 25.470400 17.400801
vt -22.932600 0.984252
vt -23.821699 9.680490
vt -27.365000 3.543310
vt -19.389299 7.121440
vt 10.613900 17.400801
vt 7.070590 23.700001
vt 3.527280 17.400801
vt 7.070590 28.818100
vt 10.613900 28.818100
vt 3.527280 23.700001
vt -3.527280 17.400801
vt -10.613900 28.818100
vt -10.613900 17.400801
vt -7.070590 23.700001
vt -3.527280 23.700001
vt -7.070590 28.818100
vt 12.246600 57.874001
vt 3.191500 0.000000
vt 12.246600 0.000000
vt 3.191500 57.874001
vt 11.114700 58.747398
vt 3.191500 55.365299
vt 12.246600 55.365299
vt 4.323390 58.747398
vt -10.664700 57.874001
vt -12.633300 43.549599
vt -10.664700 0.000000
vt -19.719900 57.874001
vt -17.751400 43.549599
vt -17.751400 34.494499
vt -19.719900 0.000000
vt -12.633300 34.494499
vt 9.842520 43.549599
vt 0.000000 34.494499
vt 9.842520 34.494499
vt 4.921260 43.549599
vt 9.842520 12.633300
vt 4.921260 17.751400
vt 4.921260 12.633300
vt 9.842520 17.751400
vt -9.842520 43.549599
vt -9.842520 34.494499
vt -4.921260 43.549599
vt 0.000000 48.273998
vt 0.000000 34.494499
vt -9.842520 17.751400
vt 0.000000 12.633300
vt 0.000000 17.751400
vt -9.842520 12.633300
vt -12.633300 34.494499
vt -17.751400 48.273998
vt -17.751400 34.494499
vt -12.633300 48.273998
vt 0.000000 48.273998
vt 4.921260 48.273998
vt 17.751400 43.549599
vt 12.633300 48.273998
vt 12.633300 43.549599
vt 17.751400 48.273998
vt -4.921260 48.273998
vt 0.000000 17.751400
vt 4.921260 12.633300
vt 4.921260 17.751400
vt 0.000000 12.633300
vt 19.719900 32.361900
vt 11.796600 35.743999
vt 10.664700 32.361900
vt 18.587999 35.743999
vt -12.246600 29.860800
vt -4.323390 33.242901
vt -11.114700 33.242901
vt -3.191500 29.860800
vt -5.160000 26.437599
vt -34.171799 26.437599
vt -29.841101 19.351000
vt -29.841101 26.437599
vt -38.502499 19.351000
vt -38.502499 30.768299
vt -34.171799 30.768299
vt 5.160000 26.437599
vt 10.278100 30.768299
vt 5.160000 30.768299
vt 10.278100 26.437599
vt 21.554600 27.013700
vt 23.821699 20.704100
vt 25.987000 24.454599
vt 19.389299 23.263201
vt -5.160000 30.768299
vt -10.278100 19.351000
vt -5.160000 19.351000
vt -10.278100 30.768299
vt -23.821699 20.704100
vt -23.719999 30.764200
vt -28.152399 28.205099
vt -19.389299 23.263201
vt -27.438900 40.112000
vt -19.515699 43.494099
vt -26.306999 43.494099
vt -18.383801 40.112000
vt 23.566000 18.587999
vn 0.0000 1.0000 0.0000
vn 0.8660 -0.0000 0.5000
vn 0.5000 0.0000 -0.8660
vn -0.5000 0.0000 -0.8660
vn -0.0000 -1.0000 -0.0000
vn 1.0000 0.0000 0.0000
vn -0.8149 0.5797 0.0000
vn 0.4074 0.5797 0.7057
vn 0.5000 -0.0000 0.8660
vn -0.8660 -0.0000 0.5000
vn 0.8660 0.0000 -0.5000
vn -0.5000 -0.0000 0.8660
vn -0.4074 0.5797 0.7057
vn -1.0000 0.0000 0.0000
vn 0.0000 -0.0000 1.0000
vn 0.0000 0.0000 -1.0000
vn 0.8148 0.5797 0.0000
vn 0.4074 0.5797 -0.7057
vn -0.8660 0.0000 -0.5000
vn -0.4074 0.5797 -0.7057
usemtl Green_leafs.025
s 1
f 1/1/1 2/2/1 3/3/1
f 2/2/1 1/1/1 4/4/1
f 1/5/2 5/6/2 4/7/2
f 6/8/2 5/6/2 1/5/2
f 7/9/2 5/6/2 6/8/2
f 5/6/2 7/9/2 8/10/2
f 9/11/3 8/12/3 7/13/3
f 10/14/3 8/12/3 9/11/3
f 8/12/3 10/14/3 11/15/3
f 12/16/3 11/15/3 10/14/3
f 11/15/3 12/16/3 13/17/3
f 12/18/4 14/19/4 13/20/4
f 14/19/4 12/18/4 15/21/4
f 12/22/5 16/23/5 15/24/5
f 16/23/5 12/22/5 17/25/5
f 17/25/5 12/22/5 10/26/5
f 17/25/5 10/26/5 18/27/5
f 10/28/6 19/29/6 18/30/6
f 19/29/6 10/28/6 9/31/6
f 13/32/1 19/33/1 9/34/1
f 13/32/1 20/35/1 19/33/1
f 14/36/1 20/35/1 13/32/1
f 20/35/1 14/36/1 21/37/1
f 22/38/7 14/39/7 21/40/7
f 14/39/7 22/38/7 23/41/7
f 24/42/1 23/43/1 22/44/1
f 23/43/1 24/42/1 25/45/1
f 25/45/1 24/42/1 26/46/1
f 20/47/8 26/48/8 24/49/8
f 26/48/8 20/47/8 19/50/8
f 20/51/9 27/52/9 19/53/9
f 20/51/9 28/54/9 27/52/9
f 17/55/9 28/54/9 20/51/9
f 28/54/9 17/55/9 29/56/9
f 18/57/9 29/56/9 17/55/9
f 29/56/9 18/57/9 19/53/9
f 29/56/9 19/53/9 30/58/9
f 30/58/9 19/53/9 27/52/9
f 31/59/1 30/60/1 27/61/1
f 30/60/1 31/59/1 32/62/1
f 33/63/4 32/64/4 31/65/4
f 32/64/4 33/63/4 34/66/4
f 35/67/1 34/68/1 33/69/1
f 34/68/1 35/67/1 36/70/1
f 37/71/9 36/72/9 35/73/9
f 36/72/9 37/71/9 38/74/9
f 37/75/5 29/76/5 38/77/5
f 29/76/5 37/75/5 28/78/5
f 37/79/10 31/80/10 28/81/10
f 37/79/10 33/82/10 31/80/10
f 33/82/10 37/79/10 35/83/10
f 28/81/10 31/80/10 27/84/10
f 29/85/11 36/86/11 38/87/11
f 36/86/11 29/85/11 32/88/11
f 32/88/11 29/85/11 30/89/11
f 34/90/11 36/86/11 32/88/11
f 20/91/12 16/92/12 17/93/12
f 16/92/12 20/91/12 21/94/12
f 24/95/13 21/96/13 20/97/13
f 21/96/13 24/95/13 22/98/13
f 21/99/14 39/100/14 16/101/14
f 39/100/14 21/99/14 14/102/14
f 39/100/14 14/102/14 40/103/14
f 40/103/14 14/102/14 41/104/14
f 15/105/14 41/104/14 14/102/14
f 15/105/14 42/106/14 41/104/14
f 16/101/14 42/106/14 15/105/14
f 42/106/14 16/101/14 39/100/14
f 39/107/15 43/108/15 42/109/15
f 43/108/15 39/107/15 44/110/15
f 39/111/1 45/112/1 44/113/1
f 45/112/1 39/111/1 40/114/1
f 40/115/16 41/116/16 45/117/16
f 41/116/16 46/118/16 45/117/16
f 46/118/16 41/116/16 47/119/16
f 41/120/5 43/121/5 47/122/5
f 43/121/5 41/120/5 42/123/5
f 43/124/14 46/125/14 47/126/14
f 46/125/14 43/124/14 48/127/14
f 43/108/15 44/110/15 48/128/15
f 48/128/15 44/110/15 49/129/15
f 45/130/6 49/131/6 44/132/6
f 49/131/6 45/130/6 50/133/6
f 45/117/16 46/118/16 50/134/16
f 46/135/1 49/136/1 50/137/1
f 49/136/1 46/135/1 48/138/1
f 9/139/17 26/140/17 19/141/17
f 26/140/17 9/139/17 51/142/17
f 9/143/18 25/144/18 51/145/18
f 25/144/18 9/143/18 13/146/18
f 9/11/3 7/13/3 13/17/3
f 52/147/3 13/17/3 7/13/3
f 11/15/3 13/17/3 52/147/3
f 53/148/19 11/149/19 52/150/19
f 11/149/19 53/148/19 54/151/19
f 54/151/19 53/148/19 2/152/19
f 2/152/19 53/148/19 3/153/19
f 53/154/12 1/155/12 3/156/12
f 1/155/12 53/154/12 6/157/12
f 53/158/1 7/159/1 6/160/1
f 7/159/1 53/158/1 52/161/1
f 2/162/3 5/163/3 54/164/3
f 5/163/3 2/162/3 4/165/3
f 8/166/5 54/167/5 5/168/5
f 54/167/5 8/166/5 11/169/5
f 13/170/20 23/171/20 25/172/20
f 23/171/20 13/170/20 14/173/20
f 25/45/1 26/46/1 51/174/1
