# Blender v2.79 (sub 0) OBJ File: 'untitled.blend'
# www.blender.org
mtllib naturePack_061.mtl
o Mesh2_Group3_Group1_Model
v 1.460580 3.170190 -1.460580
v 1.404470 3.084190 -1.778570
v 1.404470 3.084190 -1.404469
v 1.460580 3.170190 -1.722460
v 1.722460 3.170190 -1.460580
v 1.722460 3.170190 -1.722460
v 1.778570 3.084190 -1.778570
v 1.778570 3.084190 -1.404469
v 1.996420 3.250440 -1.342120
v 1.996420 3.250440 -1.840919
v 2.432110 3.250440 -1.840919
v 2.432110 3.250440 -1.342120
v 1.996420 3.009670 -1.342120
v 2.432110 3.009670 -1.342120
v 2.432110 3.009670 -1.840919
v 1.996420 3.009670 -1.840919
v 1.778570 2.917940 -1.404469
v 1.778570 2.917940 -1.778570
v 1.707390 2.917940 -1.475649
v 1.475650 2.917940 -1.475649
v 1.404470 2.917940 -1.404469
v 1.475650 2.917940 -1.707389
v 1.404470 2.917940 -1.778570
v 1.840920 3.009670 -1.996420
v 1.342120 3.009670 -1.996420
v 1.342120 3.250440 -1.996420
v 1.186620 3.009670 -1.840919
v 1.186620 3.250440 -1.840919
v 0.750933 3.250440 -1.840919
v 0.750933 3.009670 -1.840919
v 0.750933 3.009670 -1.342120
v 1.186620 3.009670 -1.342120
v 1.186620 3.250440 -1.342120
v 0.750933 3.250440 -1.342120
v 0.309511 3.021130 -1.342120
v 0.309511 3.021130 -1.840919
v 0.309511 2.866350 -1.840919
v 0.309511 2.866350 -1.342120
v -0.000000 2.728760 -1.411770
v -0.000000 2.654240 -1.411770
v -0.000000 2.728760 -1.711050
v -0.000000 2.654240 -1.711050
v 1.342120 3.009670 -1.186620
v 1.342120 3.250440 -1.186620
v 1.342120 3.009670 -0.750933
v 1.342120 3.250440 -0.750932
v 1.342120 2.866350 -0.309511
v 1.342120 3.021130 -0.309510
v 1.471990 2.654240 0.000000
v 1.471990 2.728760 0.000000
v 1.771270 2.728760 0.000000
v 1.771270 2.654240 0.000000
v 1.840920 2.866350 -0.309511
v 1.840920 3.009670 -0.750933
v 1.840920 3.009670 -1.186620
v 1.840920 3.250440 -1.186620
v 1.840920 3.250440 -0.750932
v 1.840920 3.021130 -0.309510
v 1.840920 3.250440 -1.996420
v 2.873530 3.021130 -1.840919
v 2.873530 2.866350 -1.840919
v 3.183040 2.728760 -1.771270
v 3.183040 2.654240 -1.771270
v 3.183040 2.728760 -1.471990
v 3.183040 2.654240 -1.471990
v 2.873530 2.866350 -1.342120
v 2.873530 3.021130 -1.342120
v 1.840920 3.009670 -2.432110
v 1.840920 3.250440 -2.432110
v 1.840920 2.866350 -2.873529
v 1.840920 3.021131 -2.873529
v 1.711050 2.654240 -3.183039
v 1.711050 2.728760 -3.183039
v 1.411770 2.728760 -3.183039
v 1.411770 2.654240 -3.183039
v 1.342120 2.866350 -2.873529
v 1.342120 3.009670 -2.432110
v 1.342120 3.250440 -2.432110
v 1.342120 3.021131 -2.873529
v 1.707390 2.917940 -1.707389
vt -100.306000 84.491501
vt -122.144997 77.439796
vt -96.452698 77.439796
vt -118.291000 84.491501
vt 118.291000 100.306000
vt 100.306000 118.291000
vt 100.306000 100.306000
vt 118.291000 118.291000
vt 100.306000 -34.972698
vt 122.144997 -42.024399
vt 118.291000 -34.972698
vt 96.452698 -42.024399
vt 118.291000 84.491501
vt 96.452698 77.439796
vt 122.144997 77.439796
vt 100.306000 84.491501
vt 122.144997 96.452698
vt 96.452698 122.144997
vt 96.452698 96.452698
vt 122.144997 122.144997
vt -92.170700 133.832001
vt -122.144997 115.013000
vt -96.452698 115.013000
vt -126.427002 133.832001
vt 137.104996 92.170700
vt 167.026993 126.427002
vt 137.104996 126.427002
vt 167.026993 92.170700
vt 137.104996 24.409401
vt 167.026993 40.944901
vt 137.104996 40.944901
vt 167.026993 24.409401
vt -137.104996 92.170700
vt -167.026993 126.427002
vt -167.026993 92.170700
vt -137.104996 126.427002
vt 96.452698 119.600998
vt 126.427002 135.832993
vt 92.170700 135.832993
vt 122.144997 119.600998
vt -122.144997 96.452698
vt -117.255997 101.341003
vt -122.144997 122.144997
vt -101.341003 101.341003
vt -96.452698 96.452698
vt -101.341003 117.255997
vt -96.452698 122.144997
vt -96.452698 119.600998
vt -126.427002 135.832993
vt -122.144997 119.600998
vt -92.170700 135.832993
vt -90.888702 18.110201
vt -106.449997 40.944901
vt -106.449997 24.409401
vt -90.888702 29.527599
vt -43.557598 24.409401
vt -59.118900 29.527599
vt -59.118900 18.110201
vt -43.557598 40.944901
vt -81.492104 24.409401
vt -51.570801 40.944901
vt -81.492104 40.944901
vt -51.570801 24.409401
vt -81.492104 126.427002
vt -51.570801 92.170700
vt -51.570801 126.427002
vt -81.492104 92.170700
vt -122.144997 -81.866402
vt -92.170700 -65.633698
vt -126.427002 -65.633698
vt -96.452698 -81.866402
vt 119.269997 29.527599
vt 103.709000 24.409401
vt 119.269997 18.110201
vt 103.709000 40.944901
vt 122.144997 -58.761600
vt 92.170700 -39.942001
vt 96.452698 -58.761600
vt 126.427002 -39.942001
vt 81.492104 126.427002
vt 51.570801 92.170700
vt 81.492104 92.170700
vt 51.570801 126.427002
vt -126.427002 64.639397
vt -92.170700 30.478001
vt -92.170700 64.639397
vt -126.427002 30.478001
vt -21.255800 25.196899
vt -21.255800 14.566900
vt 126.427002 56.588100
vt 92.170700 24.715300
vt 126.427002 24.715300
vt 92.170700 56.588100
vt 51.570801 24.409401
vt 21.255800 25.196899
vt 21.255800 14.566900
vt 51.570801 40.944901
vt 81.492104 40.944901
vt 81.492104 24.409401
vt -21.285601 5.118110
vt 0.501765 14.566900
vt 0.501765 25.196899
vt -21.285601 0.000000
vt -117.508003 5.118110
vt -96.954002 0.000000
vt -96.954002 5.118110
vt -117.508003 0.000000
vt -45.466499 5.118110
vt -68.517700 14.566900
vt -45.466499 0.000000
vt -68.517700 25.196899
vt -96.954002 3.514570
vt -126.427002 32.754398
vt -117.508003 3.514570
vt -92.170700 32.754398
vt 126.427002 25.768299
vt 96.954002 0.000000
vt 117.508003 0.000000
vt 92.170700 25.768299
vt -103.709000 24.409401
vt -119.269997 29.527599
vt -119.269997 18.110201
vt -103.709000 40.944901
vt -51.570801 24.409401
vt -81.492104 40.944901
vt -81.492104 24.409401
vt -51.570801 40.944901
vt -21.255800 14.566900
vt -21.255800 25.196899
vt 39.114101 -0.000000
vt 16.062799 25.196899
vt 16.062799 14.566900
vt 39.114101 5.118110
vt 101.089996 0.000000
vt 121.642998 5.118110
vt 101.089996 5.118110
vt 121.642998 0.000000
vt -101.089996 -0.000000
vt -126.427002 25.768299
vt -121.642998 -0.000000
vt -92.170700 25.768299
vt -92.170700 24.715300
vt -126.427002 56.588100
vt -126.427002 24.715300
vt -92.170700 56.588100
vt -92.170700 51.570801
vt -126.427002 81.492104
vt -126.427002 51.570801
vt -92.170700 81.492104
vt 96.452698 -81.866402
vt 126.427002 -65.633698
vt 92.170700 -65.633698
vt 122.144997 -81.866402
vt 59.118900 18.110201
vt 43.557598 40.944901
vt 43.557598 24.409401
vt 59.118900 29.527599
vt 106.449997 24.409401
vt 90.888702 29.527599
vt 90.888702 18.110201
vt 106.449997 40.944901
vt -96.452698 -58.761600
vt -126.427002 -39.942001
vt -122.144997 -58.761600
vt -92.170700 -39.942001
vt 92.170700 51.570801
vt 126.427002 81.492104
vt 92.170700 81.492104
vt 126.427002 51.570801
vt 92.170700 30.478001
vt 126.427002 64.639397
vt 92.170700 64.639397
vt 126.427002 30.478001
vt 101.089996 3.514570
vt 126.427002 32.754398
vt 92.170700 32.754398
vt 121.642998 3.514570
vt 26.705999 5.118110
vt 48.493401 14.566900
vt 48.493401 25.196899
vt 26.705999 0.000000
vt 51.570801 24.409401
vt 21.255800 25.196899
vt 21.255800 14.566900
vt 51.570801 40.944901
vt 81.492104 24.409401
vt 81.492104 40.944901
vt 96.452698 115.013000
vt 126.427002 133.832001
vt 92.170700 133.832001
vt 122.144997 115.013000
vt -100.306000 -34.972698
vt -122.144997 -42.024399
vt -96.452698 -42.024399
vt -118.291000 -34.972698
vt 151.039993 29.527599
vt 166.600998 24.409401
vt 166.600998 40.944901
vt 151.039993 18.110201
vt -151.039993 29.527599
vt -166.600998 24.409401
vt -151.039993 18.110201
vt -166.600998 40.944901
vt -137.104996 40.944901
vt -167.026993 24.409401
vt -137.104996 24.409401
vt -167.026993 40.944901
vt -197.341003 25.196899
vt -197.341003 14.566900
vt -186.557999 5.118110
vt -164.770996 14.566900
vt -164.770996 25.196899
vt -186.557999 0.000000
vt 101.089996 5.118110
vt 121.642998 0.000000
vt 121.642998 5.118110
vt 101.089996 0.000000
vt 240.684998 5.118110
vt 217.634003 14.566900
vt 240.684998 -0.000000
vt 217.634003 25.196899
vt 121.642998 -155.393997
vt 92.170700 -126.154999
vt 101.089996 -155.393997
vt 126.427002 -126.154999
vt 126.427002 -163.505997
vt 92.170700 -129.345001
vt 92.170700 -163.505997
vt 126.427002 -129.345001
vt 197.341003 25.196899
vt 197.341003 14.566900
vt -92.170700 -151.324997
vt -126.427002 -183.197998
vt -92.170700 -183.197998
vt -126.427002 -151.324997
vt -121.642998 -180.317001
vt -92.170700 -154.548996
vt -126.427002 -154.548996
vt -101.089996 -180.317001
vt 167.026993 24.409401
vt 137.104996 40.944901
vt 137.104996 24.409401
vt 167.026993 40.944901
vt 197.341003 14.566900
vt 197.341003 25.196899
vt 156.104996 0.000000
vt 133.052994 25.196899
vt 133.052994 14.566900
vt 156.104996 5.118110
vt -117.508003 0.000000
vt -96.954002 5.118110
vt -117.508003 5.118110
vt -96.954002 0.000000
vt 126.427002 -154.548996
vt 96.954002 -180.317001
vt 117.508003 -180.317001
vt 92.170700 -154.548996
vt 126.427002 -183.197998
vt 92.170700 -151.324997
vt 92.170700 -183.197998
vt 126.427002 -151.324997
vt -126.427002 167.026993
vt -92.170700 137.104996
vt -92.170700 167.026993
vt -126.427002 137.104996
vt -137.104996 24.409401
vt -167.026993 40.944901
vt -167.026993 24.409401
vt -137.104996 40.944901
vt 92.170700 137.104996
vt 126.427002 167.026993
vt 92.170700 167.026993
vt 126.427002 137.104996
vt -126.427002 -163.505997
vt -92.170700 -129.345001
vt -126.427002 -129.345001
vt -92.170700 -163.505997
vt -126.427002 -126.154999
vt -96.954002 -155.393997
vt -92.170700 -126.154999
vt -117.508003 -155.393997
vt -234.550003 5.118110
vt -212.761993 14.566900
vt -212.761993 25.196899
vt -234.550003 0.000000
vt -197.341003 25.196899
vt -197.341003 14.566900
vt -117.255997 117.255997
vn -0.8375 0.5464 0.0000
vn 0.0000 1.0000 0.0000
vn 0.8375 0.5464 0.0000
vn 0.0000 0.5464 0.8375
vn -0.6067 0.7950 0.0000
vn 0.0000 0.0000 1.0000
vn 0.0000 -1.0000 0.0000
vn 0.3881 -0.9216 0.0000
vn 0.0000 -0.9216 -0.3881
vn -0.9614 0.0000 0.2752
vn 0.2752 0.0000 -0.9614
vn 0.0000 0.0000 -1.0000
vn -0.3881 -0.9216 0.0000
vn 0.2752 0.0000 0.9614
vn 0.6067 0.7950 0.0000
vn -0.4610 0.8874 0.0000
vn 0.3088 -0.9511 0.0000
vn -0.2195 0.0000 0.9756
vn -1.0000 0.0000 0.0000
vn -0.3869 0.0000 -0.9221
vn -0.6867 0.7269 0.0000
vn 0.5653 -0.8249 0.0000
vn -0.9614 0.0000 -0.2752
vn -0.9221 -0.0000 0.3869
vn 0.0000 -0.8249 -0.5653
vn 0.0000 -0.9511 -0.3088
vn 0.0000 -0.9216 0.3881
vn 0.9614 0.0000 -0.2752
vn -0.2752 0.0000 0.9614
vn 0.0000 0.7950 -0.6067
vn 0.0000 0.8874 0.4610
vn 0.0000 0.7269 0.6867
vn 0.0000 0.7270 0.6867
vn 0.9756 0.0000 0.2195
vn 1.0000 -0.0000 0.0000
vn 0.0000 0.7950 0.6067
vn 0.0000 0.5464 -0.8375
vn 0.9614 0.0000 0.2752
vn -0.2752 0.0000 -0.9614
vn 0.2195 0.0000 -0.9756
vn 0.3869 0.0000 0.9221
vn 0.6867 0.7269 0.0000
vn 0.4610 0.8874 0.0000
vn -0.3088 -0.9511 0.0000
vn -0.5653 -0.8249 0.0000
vn 0.9221 0.0000 -0.3869
vn 0.0000 -0.8249 0.5653
vn 0.0000 -0.9511 0.3088
vn 0.0000 0.8874 -0.4610
vn 0.0000 0.7269 -0.6867
vn -0.9756 0.0000 -0.2195
usemtl Green_leafs.027
s 1
f 1/1/1 2/2/1 3/3/1
f 2/2/1 1/1/1 4/4/1
f 5/5/2 4/6/2 1/7/2
f 4/6/2 5/5/2 6/8/2
f 5/9/3 7/10/3 6/11/3
f 7/10/3 5/9/3 8/12/3
f 5/13/4 3/14/4 8/15/4
f 3/14/4 5/13/4 1/16/4
f 8/17/2 2/18/2 3/19/2
f 2/18/2 8/17/2 7/20/2
f 9/21/5 7/22/5 8/23/5
f 7/22/5 9/21/5 10/24/5
f 9/25/2 11/26/2 10/27/2
f 11/26/2 9/25/2 12/28/2
f 13/29/6 12/30/6 9/31/6
f 12/30/6 13/29/6 14/32/6
f 13/33/7 15/34/7 14/35/7
f 15/34/7 13/33/7 16/36/7
f 17/37/8 16/38/8 13/39/8
f 16/38/8 17/37/8 18/40/8
f 17/41/7 19/42/7 18/43/7
f 17/41/7 20/44/7 19/42/7
f 21/45/7 20/44/7 17/41/7
f 20/44/7 21/45/7 22/46/7
f 23/47/7 22/46/7 21/45/7
f 22/46/7 23/47/7 18/43/7
f 23/48/9 24/49/9 18/50/9
f 24/49/9 23/48/9 25/51/9
f 23/52/10 26/53/10 25/54/10
f 26/53/10 23/52/10 2/55/10
f 27/56/11 2/57/11 23/58/11
f 2/57/11 27/56/11 28/59/11
f 27/60/12 29/61/12 28/62/12
f 29/61/12 27/60/12 30/63/12
f 27/64/7 31/65/7 30/66/7
f 31/65/7 27/64/7 32/67/7
f 23/68/13 32/69/13 27/70/13
f 32/69/13 23/68/13 21/71/13
f 3/72/14 32/73/14 21/74/14
f 32/73/14 3/72/14 33/75/14
f 2/76/15 33/77/15 3/78/15
f 33/77/15 2/76/15 28/79/15
f 28/80/2 34/81/2 33/82/2
f 34/81/2 28/80/2 29/83/2
f 29/84/16 35/85/16 34/86/16
f 35/85/16 29/84/16 36/87/16
f 30/63/12 36/88/12 29/61/12
f 36/88/12 30/63/12 37/89/12
f 30/90/17 38/91/17 37/92/17
f 38/91/17 30/90/17 31/93/17
f 31/94/6 35/95/6 38/96/6
f 35/95/6 31/94/6 34/97/6
f 31/94/6 33/98/6 34/97/6
f 33/98/6 31/94/6 32/99/6
f 39/100/18 38/101/18 35/102/18
f 38/101/18 39/100/18 40/103/18
f 41/104/19 40/105/19 39/106/19
f 40/105/19 41/104/19 42/107/19
f 41/108/20 37/109/20 42/110/20
f 37/109/20 41/108/20 36/111/20
f 39/112/21 36/113/21 41/114/21
f 36/113/21 39/112/21 35/115/21
f 37/116/22 40/117/22 42/118/22
f 40/117/22 37/116/22 38/119/22
f 43/120/23 3/121/23 21/122/23
f 3/121/23 43/120/23 44/123/23
f 45/124/19 44/125/19 43/126/19
f 44/125/19 45/124/19 46/127/19
f 47/128/19 46/127/19 45/124/19
f 46/127/19 47/128/19 48/129/19
f 49/130/24 48/131/24 47/132/24
f 48/131/24 49/130/24 50/133/24
f 49/134/6 51/135/6 50/136/6
f 51/135/6 49/134/6 52/137/6
f 49/138/25 53/139/25 52/140/25
f 53/139/25 49/138/25 47/141/25
f 47/142/26 54/143/26 53/144/26
f 54/143/26 47/142/26 45/145/26
f 45/146/7 55/147/7 54/148/7
f 55/147/7 45/146/7 43/149/7
f 21/150/27 55/151/27 43/152/27
f 55/151/27 21/150/27 17/153/27
f 17/154/28 56/155/28 55/156/28
f 56/155/28 17/154/28 8/157/28
f 13/158/29 8/159/29 17/160/29
f 8/159/29 13/158/29 9/161/29
f 3/162/30 56/163/30 8/164/30
f 56/163/30 3/162/30 44/165/30
f 46/166/2 56/167/2 44/168/2
f 56/167/2 46/166/2 57/169/2
f 48/170/31 57/171/31 46/172/31
f 57/171/31 48/170/31 58/173/31
f 50/174/32 58/175/32 48/176/33
f 58/175/32 50/174/32 51/177/32
f 51/178/34 53/179/34 58/180/34
f 53/179/34 51/178/34 52/181/34
f 54/182/35 58/183/35 53/184/35
f 58/183/35 54/182/35 57/185/35
f 55/186/35 57/185/35 54/182/35
f 57/185/35 55/186/35 56/187/35
f 2/188/36 59/189/36 26/190/36
f 59/189/36 2/188/36 7/191/36
f 4/192/37 7/193/37 2/194/37
f 7/193/37 4/192/37 6/195/37
f 7/196/38 24/197/38 59/198/38
f 24/197/38 7/196/38 18/199/38
f 7/200/39 16/201/39 18/202/39
f 16/201/39 7/200/39 10/203/39
f 10/204/12 15/205/12 16/206/12
f 15/205/12 10/204/12 11/207/12
f 60/208/12 15/205/12 11/207/12
f 15/205/12 60/208/12 61/209/12
f 62/210/40 61/211/40 60/212/40
f 61/211/40 62/210/40 63/213/40
f 64/214/35 63/215/35 62/216/35
f 63/215/35 64/214/35 65/217/35
f 64/218/41 66/219/41 65/220/41
f 66/219/41 64/218/41 67/221/41
f 62/222/42 67/223/42 64/224/42
f 67/223/42 62/222/42 60/225/42
f 60/226/43 12/227/43 67/228/43
f 12/227/43 60/226/43 11/229/43
f 14/32/6 67/230/6 12/30/6
f 67/230/6 14/32/6 66/231/6
f 14/232/44 61/233/44 66/234/44
f 61/233/44 14/232/44 15/235/44
f 63/236/45 66/237/45 61/238/45
f 66/237/45 63/236/45 65/239/45
f 68/240/35 59/241/35 24/242/35
f 59/241/35 68/240/35 69/243/35
f 70/244/35 69/243/35 68/240/35
f 69/243/35 70/244/35 71/245/35
f 72/246/46 71/247/46 70/248/46
f 71/247/46 72/246/46 73/249/46
f 72/250/12 74/251/12 73/252/12
f 74/251/12 72/250/12 75/253/12
f 70/254/47 75/255/47 72/256/47
f 75/255/47 70/254/47 76/257/47
f 70/258/48 77/259/48 76/260/48
f 77/259/48 70/258/48 68/261/48
f 68/262/7 25/263/7 77/264/7
f 25/263/7 68/262/7 24/265/7
f 25/266/19 78/267/19 77/268/19
f 78/267/19 25/266/19 26/269/19
f 26/270/2 69/271/2 78/272/2
f 69/271/2 26/270/2 59/273/2
f 71/274/49 78/275/49 69/276/49
f 78/275/49 71/274/49 79/277/49
f 71/278/50 74/279/50 79/280/50
f 74/279/50 71/278/50 73/281/50
f 74/282/51 76/283/51 79/284/51
f 76/283/51 74/282/51 75/285/51
f 77/268/19 79/286/19 76/287/19
f 79/286/19 77/268/19 78/267/19
f 22/46/7 18/43/7 80/288/7
f 80/288/7 18/43/7 19/42/7
f 20/44/7 80/288/7 19/42/7
f 80/288/7 20/44/7 22/46/7
o Mesh1_Group2_Group1_Model
v 1.390780 0.834556 -1.536940
v 1.852220 0.156104 -1.844320
v 1.330820 0.156104 -1.844320
v 1.792260 0.834556 -1.536940
v 1.762560 2.029350 -1.510970
v 2.059660 2.029350 -1.510970
v 1.475650 2.917940 -1.707389
v 1.707390 2.917940 -1.707389
v 1.707390 2.917940 -1.475649
v 1.475650 2.917940 -1.475649
v 1.762560 2.029350 -1.213870
v 1.390780 0.834556 -1.135460
v 1.330820 0.156104 -1.322920
v 1.367320 0.000000 -1.359420
v 1.367320 0.000000 -1.807820
v 1.815720 0.000000 -1.807820
v 1.815720 0.000000 -1.359420
v 1.852220 0.156104 -1.322920
v 1.792260 0.834556 -1.135460
v 2.059660 2.029350 -1.213870
vt -2.988190 46.501202
vt -25.984301 -0.550459
vt -0.000000 -0.550459
vt -22.996099 46.501202
vt -21.516001 132.807999
vt -22.996099 54.451000
vt -2.988190 54.451000
vt -36.321899 132.807999
vt -7.217850 192.768997
vt -36.321899 133.684998
vt -21.516001 133.684998
vt -18.766399 192.768997
vt 7.217850 24.594500
vt 18.766399 13.046000
vt 18.766399 24.594500
vt 7.217850 13.046000
vt -14.805800 124.109001
vt -13.046000 184.104996
vt -24.594500 184.104996
vt 0.000000 124.109001
vt -16.100000 53.943199
vt -0.000000 134.451004
vt -14.805800 134.451004
vt 3.907850 53.943199
vt -16.100000 54.801601
vt -5.434410 10.213200
vt 3.907850 54.801601
vt -31.418699 10.213200
vt -31.418699 10.078300
vt -7.253310 -0.318219
vt -5.434410 10.078300
vt -29.599800 -0.318219
vt -0.000000 15.575100
vt -24.165400 5.178530
vt -1.818900 5.178530
vt -25.984301 15.575100
vt 31.418699 14.624300
vt 7.253310 4.227770
vt 29.599800 4.227770
vt 5.434410 14.624300
vt 16.100000 53.060200
vt 5.434410 8.471820
vt 31.418699 8.471820
vt -3.907850 53.060200
vt 16.100000 57.805599
vt -0.000000 137.276993
vt -3.907850 57.805599
vt 14.805800 137.276993
vt 14.805800 116.934998
vt 13.046000 177.789993
vt -0.000000 116.934998
vt 24.594500 177.789993
vt 18.766399 189.565994
vt 21.516001 129.856003
vt 36.321899 129.856003
vt 7.217850 189.565994
vt 2.988190 54.461800
vt 36.321899 132.906006
vt 21.516001 132.906006
vt 22.996099 54.461800
vt -0.000000 8.900890
vt 22.996099 54.359402
vt 2.988190 54.359402
vt 25.984301 8.900890
vt 1.818900 -1.268980
vt 25.984301 9.127590
vt 0.000000 9.127590
vt 24.165400 -1.268980
vt -1.818900 7.253310
vt -24.165400 29.599800
vt -24.165400 7.253310
vt -1.818900 29.599800
vn -0.0000 0.2531 -0.9674
vn -0.0000 0.0126 -0.9999
vn -0.0000 -0.1267 -0.9919
vn 0.0000 1.0000 0.0000
vn -0.9831 -0.1833 0.0000
vn -0.9842 0.1769 0.0000
vn -0.9987 0.0510 0.0000
vn -0.9910 -0.1338 -0.0000
vn -0.0000 -0.1338 -0.9910
vn 0.9910 -0.1338 -0.0000
vn 0.9987 0.0510 0.0000
vn 0.9917 -0.1282 -0.0000
vn 0.9748 0.2232 0.0000
vn 0.0000 0.1678 0.9858
vn 0.0000 0.0379 0.9993
vn 0.0000 -0.1576 0.9875
vn -0.0000 -0.1338 0.9910
vn 0.0000 -1.0000 -0.0000
usemtl Wood.034
s 1
f 81/289/52 82/290/52 83/291/52
f 82/290/52 81/289/52 84/292/52
f 85/293/53 84/294/53 81/295/53
f 84/294/53 85/293/53 86/296/53
f 87/297/54 86/298/54 85/299/54
f 86/298/54 87/297/54 88/300/54
f 87/301/55 89/302/55 88/303/55
f 89/302/55 87/301/55 90/304/55
f 85/305/56 90/306/56 87/307/56
f 90/306/56 85/305/56 91/308/56
f 81/309/57 91/310/57 85/311/57
f 91/310/57 81/309/57 92/312/57
f 81/313/58 93/314/58 92/315/58
f 93/314/58 81/313/58 83/316/58
f 83/317/59 94/318/59 93/319/59
f 94/318/59 83/317/59 95/320/59
f 83/321/60 96/322/60 95/323/60
f 96/322/60 83/321/60 82/324/60
f 82/325/61 97/326/61 96/327/61
f 97/326/61 82/325/61 98/328/61
f 84/329/62 98/330/62 82/331/62
f 98/330/62 84/329/62 99/332/62
f 84/333/63 100/334/63 99/335/63
f 100/334/63 84/333/63 86/336/63
f 86/337/64 89/338/64 100/339/64
f 89/338/64 86/337/64 88/340/64
f 89/341/65 91/342/65 100/343/65
f 91/342/65 89/341/65 90/344/65
f 92/345/66 100/346/66 91/347/66
f 100/346/66 92/345/66 99/348/66
f 93/349/67 99/350/67 92/351/67
f 99/350/67 93/349/67 98/352/67
f 94/353/68 98/354/68 93/355/68
f 98/354/68 94/353/68 97/356/68
f 94/357/69 96/358/69 97/359/69
f 96/358/69 94/357/69 95/360/69
