# Blender v2.79 (sub 0) OBJ File: 'untitled.blend'
# www.blender.org
mtllib naturePack_010.mtl
o Mesh1_Group1_Model.003
v 1.697390 0.480000 -2.322790
v 2.415960 0.260000 -2.549530
v 1.697390 0.260000 -2.322790
v 2.415960 0.480000 -2.549530
v 1.657950 0.810000 -2.092220
v 2.218430 0.810000 -2.269080
v 2.117360 0.810000 -0.563999
v 1.291060 0.810000 -0.280449
v 0.646199 0.810000 -0.852311
v 0.595113 0.810000 -1.921880
v 0.464547 0.810000 -1.525530
v 0.334784 0.480000 -2.104400
v 0.166991 0.645000 -1.108660
v 0.000000 0.480000 -1.088120
v 0.000000 0.260000 -1.088120
v 0.334784 0.260000 -2.104400
v 1.661530 0.000000 -2.113180
v 0.571446 0.000000 -1.938480
v 1.285240 0.000000 -0.254953
v 0.303619 0.000000 -1.125450
v 1.227020 0.260000 0.000000
v 1.227020 0.480000 0.000000
v 2.286390 0.480000 -0.363526
v 2.286390 0.260000 -0.363526
v 2.132730 0.000000 -0.545774
v 2.236390 0.000000 -2.294580
v 2.732570 0.000000 -1.740200
v 3.036190 0.260000 -1.856560
v 3.036190 0.480000 -1.856560
v 2.702210 0.810000 -1.728570
v 2.337870 0.810000 -1.156070
v 2.569090 0.480000 -1.122590
v 2.569090 0.260000 -1.122590
v 2.358890 0.000000 -1.153030
vt -91.247902 18.897600
vt -120.913002 10.236200
vt -91.247902 10.236200
vt -120.913002 18.897600
vt -87.035301 -4.435670
vt -120.913002 -19.793400
vt -91.247902 -19.793400
vt -110.174004 -4.435670
vt -82.814697 4.803840
vt -62.767300 22.478300
vt -79.196404 22.478300
vt -43.513401 13.641000
vt -40.688702 4.803840
vt -82.814697 18.897600
vt -40.688702 10.236200
vt -40.688702 18.897600
vt -82.814697 10.236200
vt -26.125601 18.897600
vt -80.456299 10.236200
vt -26.125601 10.236200
vt -80.456299 18.897600
vt -35.108501 -13.079500
vt -80.456299 -28.725100
vt -26.125601 -28.725100
vt -77.486397 -13.079500
vt -77.756401 43.951302
vt -26.125601 56.896599
vt -80.456299 56.896599
vt -34.291801 43.951302
vt -50.599899 10.037500
vt -22.497900 76.317902
vt -65.414703 83.196297
vt -11.953500 44.309200
vt 36.143299 -13.528400
vt -20.455299 -27.178801
vt 31.198299 -27.178801
vt -28.423700 -13.528400
vt 36.143299 10.236200
vt -28.423700 18.897600
vt -28.423700 10.236200
vt 36.143299 18.897600
vt 45.692600 10.236200
vt 89.787003 18.897600
vt 45.692600 18.897600
vt 89.787003 10.236200
vt 51.118301 4.502590
vt 89.787003 17.969101
vt 45.692600 17.969101
vt 86.393898 4.502590
vt -83.965599 21.487200
vt -88.046799 90.337799
vt -91.247902 47.745602
vt -111.150002 35.088402
vt -87.418297 35.088402
vt -120.913002 47.745602
vt 11.357800 111.366997
vt -20.697800 95.622902
vt 8.593530 95.622902
vt -25.256300 111.366997
vt 11.357800 10.236200
vt -25.256300 18.897600
vt -25.256300 10.236200
vt 11.357800 18.897600
vt 11.357800 -84.790901
vt -20.242001 -66.299301
vt -25.256300 -84.790901
vt 8.317100 -66.299301
vt 49.902500 -13.819800
vt 76.718498 -29.619400
vt 74.776497 -13.819800
vt 44.828701 -29.619400
vt 86.054604 22.019800
vt 45.692600 5.850710
vt 89.787003 5.850710
vt 51.660900 22.019800
vt -3.229320 50.834999
vt 36.143299 34.480400
vt 30.703699 50.834999
vt -24.041100 42.657700
vt -28.423700 34.480400
vt 44.828701 18.897600
vt 76.718498 10.236200
vt 76.718498 18.897600
vt 44.828701 10.236200
vt 49.441299 44.417900
vt 76.718498 57.516800
vt 44.828701 57.516800
vt 74.953102 44.417900
vt -92.869698 45.394699
vt -107.582001 68.511902
vt 125.843002 45.008202
vt 88.159103 32.244202
vt 115.560997 32.244202
vt 91.591301 45.008202
vt 125.843002 10.236200
vt 91.591301 18.897600
vt 91.591301 10.236200
vt 125.843002 18.897600
vt 125.843002 -17.534201
vt 87.815804 -2.069910
vt 91.591301 -17.534201
vt 114.531998 -2.069910
vt -82.814697 16.777500
vt -45.824501 1.829300
vt -40.688702 16.777500
vt -79.525299 1.829300
vt 65.273598 82.371002
vt 83.360703 22.204700
vt 87.339798 89.334000
vt 50.829102 11.041300
vt 25.440901 33.555599
vt 23.429600 75.664703
vt 18.289301 60.060398
vt 92.042099 45.514500
vt 106.386002 68.053802
vt -25.769400 43.009102
vt -53.222099 43.009102
vt -40.428101 26.123699
vn -0.3009 0.0000 -0.9537
vn -0.3009 0.0000 -0.9536
vn -0.2546 0.5332 -0.8067
vn -0.2546 0.5332 -0.8068
vn -0.6982 0.6780 -0.2300
vn -0.9498 0.0000 -0.3129
vn -0.1583 0.0000 -0.9874
vn -0.1314 0.5572 -0.8199
vn -0.1251 -0.6122 -0.7808
vn -0.0000 -1.0000 -0.0000
vn -0.4975 -0.6616 0.5611
vn -0.6635 0.0000 0.7482
vn 0.3246 -0.0000 0.9459
vn 0.2467 -0.6498 0.7190
vn -0.2434 -0.5882 -0.7712
vn 0.4845 -0.7598 -0.4336
vn 0.7451 0.0000 -0.6669
vn 0.5235 0.7116 -0.4686
vn 0.7706 0.5691 0.2870
vn 0.7706 0.5690 0.2870
vn 0.2608 0.5953 0.7600
vn -0.5271 0.6074 0.5944
vn -0.5271 0.6074 0.5943
vn 0.9371 -0.0000 0.3490
vn 0.7323 -0.6240 0.2727
vn 0.6766 -0.5974 0.4306
vn 0.8436 -0.0000 0.5369
vn 0.7088 0.5424 0.4511
vn -0.6504 -0.7287 -0.2143
vn -0.6504 -0.7288 -0.2143
vn 0.0000 1.0000 0.0000
vn -0.3714 0.9230 0.1002
usemtl Wood.007
s 1
f 1/1/1 2/2/1 3/3/2
f 2/2/1 1/1/1 4/4/1
f 5/5/3 4/6/4 1/7/3
f 4/6/4 5/5/3 6/8/4
f 12/9/5 11/10/5 10/11/5
f 12/9/5 13/12/5 11/10/5
f 13/12/5 12/9/5 14/13/5
f 12/14/6 15/15/6 14/16/6
f 15/15/6 12/14/6 16/17/6
f 12/18/7 3/19/7 16/20/7
f 3/19/7 12/18/7 1/21/7
f 10/22/8 1/23/8 12/24/8
f 1/23/8 10/22/8 5/25/8
f 17/26/9 16/27/9 3/28/9
f 16/27/9 17/26/9 18/29/9
f 19/30/10 18/31/10 17/32/10
f 18/31/10 19/30/10 20/33/10
f 21/34/11 20/35/11 19/36/11
f 20/35/11 21/34/11 15/37/11
f 21/38/12 14/39/12 15/40/12
f 14/39/12 21/38/12 22/41/12
f 21/42/13 23/43/13 22/44/13
f 23/43/13 21/42/13 24/45/13
f 19/46/14 24/47/14 21/48/14
f 24/47/14 19/46/14 25/49/14
f 19/30/10 17/32/10 25/50/10
f 25/50/10 17/32/10 26/51/10
f 3/52/15 26/53/15 17/54/15
f 26/53/15 3/52/15 2/55/15
f 2/56/16 27/57/16 26/58/16
f 27/57/16 2/56/16 28/59/16
f 2/60/17 29/61/17 28/62/17
f 29/61/17 2/60/17 4/63/17
f 4/64/18 30/65/18 29/66/18
f 30/65/18 4/64/18 6/67/18
f 7/68/19 32/69/19 31/70/20
f 32/69/19 7/68/19 23/71/19
f 7/72/21 22/73/21 23/74/21
f 22/73/21 7/72/21 8/75/21
f 9/76/22 22/77/22 8/78/22
f 13/79/22 22/77/22 9/76/22
f 22/77/22 13/79/22 14/80/23
f 23/81/24 33/82/24 32/83/24
f 33/82/24 23/81/24 24/84/24
f 25/85/25 33/86/25 24/87/25
f 33/86/25 25/85/25 34/88/25
f 25/50/10 26/51/10 34/89/10
f 34/89/10 26/51/10 27/90/10
f 28/91/26 34/92/26 27/93/26
f 34/92/26 28/91/26 33/94/26
f 28/95/27 32/96/27 33/97/27
f 32/96/27 28/95/27 29/98/27
f 29/99/28 31/100/28 32/101/28
f 31/100/28 29/99/28 30/102/28
f 16/103/29 20/104/29 15/105/30
f 20/104/29 16/103/29 18/106/29
usemtl Green_leafs.003
f 5/107/31 7/108/31 6/109/31
f 5/107/31 8/110/31 7/108/31
f 5/107/31 9/111/31 8/110/31
f 10/112/31 9/111/31 5/107/31
f 9/111/31 10/112/31 11/113/31
f 6/109/31 31/114/31 30/115/31
f 6/109/31 7/108/31 31/114/31
f 9/116/32 11/117/32 13/118/32
