# Blender v2.79 (sub 0) OBJ File: 'untitled.blend'
# www.blender.org
mtllib naturePack_160.mtl
o Mesh1_Group1_Model.076
v 0.960769 4.999731 -1.788039
v 1.477850 5.163640 -1.407939
v 1.578880 4.929231 -1.466269
v 0.960769 5.163640 -1.706479
v 0.383145 5.023170 -1.442889
v 0.443683 5.163640 -1.407939
v 0.443683 5.163640 -0.810859
v 0.364586 4.980100 -0.765193
v 0.180154 4.990650 -0.701640
v 0.180154 5.047441 -1.565539
v 0.927728 5.016340 -2.000499
v 0.978354 5.820210 -1.653179
v 0.469123 5.774530 -1.388159
v 0.503867 5.825800 -0.816913
v 0.988057 5.908600 -0.587260
v 0.927728 4.902760 -0.272701
v 0.960769 4.907500 -0.384856
v 0.000000 4.134120 -0.554699
v 0.960769 4.134120 0.000001
v 0.862749 4.134120 -1.011379
v 0.862749 4.134120 -1.207419
v 0.960769 4.134120 -2.218799
v 0.000000 4.134120 -1.664099
v 1.675300 4.928451 -1.571559
v 1.425260 5.904670 -1.342909
v 1.018940 5.818340 -1.741769
v 0.442525 5.769810 -1.402839
v 0.442525 5.824420 -0.734529
v 1.018940 5.927570 -0.405141
v 0.591465 6.051800 -0.848106
v 0.993809 6.004500 -0.617251
v 1.407360 5.942940 -0.845575
v 1.396150 5.987760 -0.851345
v 1.396150 6.018320 -1.316299
v 0.993809 6.065620 -1.547149
v 0.591465 6.082360 -1.313059
v 1.675300 4.871660 -0.707659
v 1.595350 5.976100 -0.744066
v 1.595350 5.921480 -1.412379
v 0.906981 6.942891 -1.513949
v 1.258400 6.908890 -1.337839
v 0.924714 6.947731 -1.618559
v 0.591424 6.953270 -1.323129
v 0.510558 6.961930 -1.378089
v 0.510558 6.934300 -0.899630
v 0.584924 6.932250 -0.951584
v 0.592371 6.990190 -0.962936
v 0.592371 6.960800 -1.322619
v 0.902597 6.986920 -1.505029
v 1.212820 7.042430 -1.327759
v 1.212820 7.071820 -0.968069
v 1.278410 6.883960 -0.929663
v 0.918053 6.897160 -0.735109
v 0.902597 7.045700 -0.785660
v 0.924714 6.892470 -0.661647
v 0.996823 8.298130 -1.011749
v 0.938870 8.303980 -1.045049
v 0.938870 8.307850 -1.111999
v 0.996823 8.305860 -1.145649
v 1.054780 8.296140 -1.045399
v 1.338870 6.878270 -0.902120
v 1.338870 6.905900 -1.380579
v 1.054780 8.300010 -1.112349
v 1.600180 4.879800 -0.740236
v 1.921540 4.134120 -0.554699
v 1.058790 4.134120 -1.011379
v 0.883095 1.602540 -0.957820
v 0.883095 1.412590 -0.953801
v 0.775285 0.000000 -0.923916
v 1.043090 1.412590 -0.953801
v 1.146250 0.000000 -0.923916
v 1.094530 2.444740 -1.029760
v 1.146250 0.000000 -1.294880
v 0.775285 0.000000 -1.294880
v 0.838396 2.983070 -1.043409
v 0.842845 3.193360 -1.043409
v 0.842845 3.193360 -1.173410
v 0.838396 2.983070 -1.173410
v 0.699095 3.017570 -1.062909
v 0.699095 3.017570 -1.153910
v 0.702209 3.164780 -1.153910
v 0.702209 3.164780 -1.062909
v 0.899416 1.734600 -1.258190
v 1.039420 1.734600 -1.258190
v 1.058790 4.134120 -1.207419
v 1.039420 1.914560 -1.254380
v 1.021220 1.895390 -1.454830
v 1.021220 1.762220 -1.457650
v 0.917616 1.762220 -1.457650
v 0.917616 1.895390 -1.454830
v 0.899416 1.914560 -1.254380
v 1.921540 4.134120 -1.664099
v 1.477850 5.163640 -0.810859
v 0.960769 5.163640 -0.512320
v 1.090300 2.644700 -1.029760
v 1.233800 2.480700 -1.054510
v 1.230970 2.614670 -1.054510
v 1.233800 2.480700 -1.155010
v 1.230970 2.614670 -1.155010
v 1.090300 2.644700 -1.179760
v 1.094530 2.444740 -1.179760
v 1.201900 -0.140000 -1.350530
v 0.719639 -0.140000 -1.350530
v 0.719639 -0.140000 -0.868271
v 1.201900 -0.140000 -0.868271
v 1.043090 1.602540 -0.957820
v 0.918295 1.563290 -0.836963
v 1.007890 1.563290 -0.836963
v 0.918295 1.456910 -0.834712
v 1.007890 1.456910 -0.834712
vt 33.966499 163.567001
vt 34.767502 63.875702
vt 41.684601 163.567001
vt 34.767502 56.395401
vt 30.523001 0.769392
vt 41.066700 56.395401
vt 45.128101 0.769392
vt 36.374599 -0.954543
vt 40.541801 95.316803
vt 39.818100 161.843002
vt 50.979698 -0.954543
vt -30.523001 36.374599
vt -45.128101 50.979698
vt -45.128101 36.374599
vt -30.523001 50.979698
vt -36.374599 0.645619
vt -41.079201 118.114998
vt -50.979698 0.645619
vt -39.818100 163.442993
vt -41.079201 126.397003
vt -47.536201 163.442993
vt -46.197300 126.397003
vt -46.197300 118.114998
vt -41.846901 1.848760
vt -46.197300 -3.801290
vt -41.079201 -3.801290
vt -45.429600 1.848760
vt -41.846901 119.358002
vt -45.429600 125.153999
vt -45.429600 119.358002
vt -41.846901 125.153999
vt 21.488701 118.933998
vt 27.200001 125.853996
vt 21.610100 124.728996
vt 27.026501 117.574997
vt -41.079201 57.558498
vt -45.429600 51.908401
vt -41.846901 51.908401
vt -46.197300 57.558498
vt -39.237499 125.601997
vt -33.526199 118.681000
vt -33.647598 124.476997
vt -39.063999 117.322998
vt -35.410099 67.228104
vt -30.523001 -1.078320
vt -33.966499 161.718994
vt -45.128101 -1.078320
vt -40.921902 67.228104
vt -41.684601 161.718994
vt -40.921902 74.314697
vt 45.623402 68.204300
vt 53.398300 74.534897
vt 45.474098 75.289398
vt 53.508801 69.291901
vt -40.921902 58.435398
vt -36.126598 66.363098
vt -40.205399 66.363098
vt -35.410099 58.435398
vt -52.539501 68.349998
vt -60.314400 74.680603
vt -60.424900 69.437599
vt -52.390202 75.435097
vt -35.410099 74.314697
vt -41.684601 39.818100
vt -33.966499 47.536201
vt -41.684601 47.536201
vt 40.541801 103.191002
vt 47.536201 161.843002
vt 55.059299 97.783997
vt 49.326302 104.240997
vt 49.490299 96.368500
vt 54.949402 103.057999
vt 45.472900 96.615997
vt 41.516201 101.891998
vt 41.516201 96.615997
vt 45.472900 101.891998
vt -39.918900 97.468597
vt -34.185902 103.925003
vt -39.809101 102.742996
vt -34.349899 96.053101
vt 45.472900 71.445602
vt 40.541801 65.782700
vt 46.447300 65.782700
vt 41.516201 71.445602
vt 46.447300 95.316803
vt 46.447300 103.191002
vt 41.516201 -25.902599
vt 46.447300 -20.239700
vt 40.541801 -20.239700
vt 45.472900 -25.902599
vt -40.921902 -41.987099
vt -36.126598 -49.914799
vt -35.410099 -41.987099
vt -40.205399 -49.914799
vt -40.205399 68.149399
vt -36.126598 73.393501
vt -40.205399 73.393501
vt -36.126598 68.149399
vt -47.318802 -24.761101
vt -30.523001 -18.829800
vt -45.128101 -18.829800
vt -28.332300 -24.761101
vt -47.318802 53.170399
vt -28.332300 34.183899
vt -28.332300 53.170399
vt -47.318802 34.183899
vt 53.170399 -22.599701
vt 36.374599 -16.668501
vt 34.183899 -22.599701
vt 50.979698 -16.668501
vt 45.128101 13.435300
vt 28.332300 7.504090
vt 47.318802 7.504090
vt 30.523001 13.435300
vt -36.374599 11.274000
vt -53.170399 5.342740
vt -34.183899 5.342740
vt -50.979698 11.274000
vt 41.066700 63.875702
vt 36.153301 50.351601
vt 41.066700 55.354401
vt 34.767502 55.354401
vt 39.680901 50.351601
vt 36.153301 58.041100
vt 39.680901 62.230099
vt 36.153301 62.230099
vt 39.680901 58.041100
vt 36.153301 -10.788700
vt 41.066700 -15.791500
vt 39.680901 -10.788700
vt 34.767502 -15.791500
vt -21.445499 61.807499
vt -26.249500 55.874100
vt -21.360500 57.619400
vt -26.401400 63.352901
vt 47.590500 55.440899
vt 42.786400 61.374298
vt 42.701401 57.186199
vt 47.742298 62.919701
vt 2.439850 149.154007
vt -22.672800 156.181000
vt -24.969101 146.132004
vt 0.834234 156.181000
vt -41.466900 165.128998
vt -66.349998 171.151001
vt -67.955597 164.125000
vt -42.842899 171.151001
vt -56.806702 187.585007
vt -31.923599 193.606995
vt -55.430698 193.606995
vt -30.125700 185.738998
vt -25.834801 32.229599
vt -53.444901 44.673100
vt -32.381302 28.192400
vt -52.093601 53.961300
vt -84.020302 42.058498
vt -36.394501 165.069000
vt -65.476700 197.921005
vt -70.442101 163.746002
vt -42.887501 195.979004
vt -61.432701 188.231003
vt -31.641500 221.134995
vt -54.159000 218.966995
vt -27.432199 185.830994
vt -6.739290 196.042999
vt 23.445700 233.817993
vt 2.370930 230.410004
vt 27.177099 192.425995
vt -31.502600 -1.404870
vt -35.738300 0.406790
vt -10.919300 156.955994
vt 25.181999 190.110992
vt -2.632140 193.223999
vt 32.757900 156.955994
vt 0.000000 21.838600
vt -33.966499 39.818100
vt -37.825500 0.000000
vt -37.825500 87.354301
vt 0.000000 65.515701
vt -65.515701 149.470993
vt -21.838600 149.470993
vt -76.434998 127.014999
vt -32.757900 127.014999
vt -78.389397 35.704601
vt -89.688103 8.424040
vt 10.457800 160.016006
vt -19.831900 196.889008
vt -23.455200 156.367004
vt 1.558690 193.382996
vt 75.615402 33.768002
vt 79.422302 33.288300
vt 74.473198 55.413799
vt 56.200500 22.058901
vt 56.141899 20.849800
vt 33.758999 34.847099
vt 37.787701 35.200699
vt 34.656502 61.282799
vt 40.116901 56.421700
vt 4.836190 239.710007
vt 23.090000 237.764008
vt 64.638702 227.681000
vt 46.049400 230.171997
vt 45.252201 226.291000
vt 64.375099 229.494995
vt 53.793598 211.901993
vt 34.424198 215.276001
vt 34.204399 213.455994
vt 52.726799 216.516998
vt -1.158030 203.570007
vt -19.410000 201.606003
vt -45.636501 209.065994
vt -63.960899 208.354004
vt -32.780499 230.688004
vt -51.079498 231.979996
vt 62.957298 172.264999
vt 28.950199 169.959000
vt 36.889999 185.582001
vt 70.940002 184.322998
vt 57.446098 65.223503
vt 57.937000 73.721298
vt 80.319801 59.723999
vt -3.864730 251.369003
vt -29.713200 210.145004
vt -3.591820 205.981995
vt -19.337200 249.996002
vt -68.530602 35.664200
vt -72.118797 37.811298
vt -72.221703 20.575899
vt -54.756199 40.270199
vt -54.339298 44.112000
vt -39.998001 31.850901
vt -43.453499 30.944401
vt -38.150002 275.906006
vt -52.329601 274.441010
vt -37.700001 273.606995
vt -52.310101 274.739990
vt -60.957100 269.079987
vt -46.767502 267.746002
vt -46.789200 268.044006
vt -61.285801 267.334015
vt -17.933901 255.386002
vt -3.875420 253.145996
vt 36.758701 247.494995
vt 51.260399 240.712997
vt 50.914001 246.272003
vt 35.174900 239.675003
vt 60.241001 266.290009
vt 45.644100 259.009003
vt 61.765999 258.459015
vt 46.077099 265.200989
vt 13.877200 280.346985
vt -0.194014 275.760010
vt 15.443800 274.341003
vt -0.180623 278.101990
vt -43.436100 13.289100
vt -45.467999 15.372100
vt 15.330300 330.153992
vt 0.649074 274.894989
vt 19.450399 273.200989
vt 12.699400 330.390991
vt 55.770599 24.947300
vt 57.296398 29.260401
vt 55.289501 27.544701
vt 59.784302 28.378700
vt 58.258598 24.065599
vt 44.586800 267.393005
vt 56.659801 323.631012
vt 54.021500 323.710999
vt 63.441101 266.824005
vt -60.497898 9.513680
vt -61.215599 6.988390
vt 69.135597 220.612000
vt 42.818298 218.589005
vt 25.670000 235.134003
vt -0.450070 230.964005
vt -55.407101 227.477005
vt -29.097099 229.643997
vt -69.680099 222.729996
vt -43.355400 220.804993
vt 53.821899 199.613007
vt 27.520700 201.886002
vt -75.556900 19.249500
vt 1.918870 244.927994
vt -12.794800 300.075989
vt -16.881399 243.222000
vt -10.164100 300.315002
vt -44.264702 248.714996
vt -56.396000 304.415985
vt -63.118401 248.126007
vt -53.757702 304.498993
vt -53.881199 267.786011
vt -40.465302 323.175995
vt -43.100700 323.334991
vt -35.047501 266.645996
vt 60.265400 25.781300
vt 41.637798 312.074005
vt 54.963200 256.239990
vt 44.273499 312.229004
vt 36.127602 255.130005
vt -63.429199 -13.307700
vt -62.539700 -10.192500
vt 32.757900 141.985992
vt 69.130402 173.953003
vt 40.333801 175.141006
vt 76.434998 141.985992
vt -75.651100 21.838600
vt -75.651100 65.515701
vt -32.757900 112.044998
vt 10.919300 112.044998
vt -84.074898 8.721940
vt 57.727001 153.617004
vt 31.923599 163.666000
vt 29.143200 151.498001
vt 55.430698 163.666000
vt 66.349998 186.121994
vt 42.842899 186.121994
vt 22.672800 201.091995
vt -0.834234 201.091995
vt 65.515701 119.529999
vt 21.838600 119.529999
vn 0.0000 0.0212 0.9998
vn 0.0002 0.0212 0.9998
vn 0.9998 0.0212 0.0000
vn 0.0000 -1.0000 -0.0000
vn -0.9998 0.0212 0.0000
vn -0.2404 -0.9707 0.0000
vn -0.9998 0.0211 0.0000
vn -0.1379 0.0029 0.9904
vn -0.1992 0.9800 0.0000
vn -0.1379 0.0029 -0.9904
vn -0.0001 0.0212 -0.9998
vn -0.0000 0.0212 -0.9998
vn 0.0000 0.0211 -0.9998
vn 0.0001 0.0212 -0.9998
vn -0.0005 0.0212 -0.9998
vn 0.9959 0.0019 -0.0906
vn 0.0000 -0.9905 -0.1372
vn -0.9959 0.0019 -0.0906
vn 0.0002 0.0212 -0.9998
vn 0.9998 0.0212 0.0001
vn 0.1740 0.0037 0.9847
vn 0.9998 0.0211 0.0000
vn 0.1740 0.0037 -0.9847
vn 0.2500 -0.9682 0.0000
vn 0.2088 0.9780 0.0000
vn 0.0000 0.9955 -0.0952
vn 0.0000 0.3694 -0.9293
vn 0.9293 0.3694 0.0000
vn 0.0000 0.3694 0.9293
vn -0.9293 0.3694 0.0000
vn -0.0002 0.0212 0.9998
vn 0.0000 0.9511 0.3089
vn 0.0000 -0.9372 0.3488
vn -0.9596 0.0060 0.2814
vn 0.9596 0.0060 0.2814
vn 0.4592 0.3958 -0.7953
vn 0.4592 0.3957 -0.7953
vn -0.4592 0.3957 -0.7953
vn -0.4592 0.3958 -0.7953
vn -0.9183 0.3958 0.0000
vn -0.9184 0.3958 0.0000
vn -0.0794 -0.9947 -0.0654
vn -0.4539 0.3773 -0.8072
vn -0.9310 0.3642 0.0239
vn -0.4502 0.2910 0.8442
vn -0.4592 0.3958 0.7953
vn 0.4998 0.3168 -0.8061
vn 0.1307 -0.9881 0.0807
vn 0.1307 -0.9881 0.0808
vn 0.4964 0.2318 0.8366
vn 0.4964 0.2319 0.8366
vn 0.9695 0.2446 0.0161
vn 0.4998 0.3168 -0.8062
vn 0.1306 -0.9881 0.0808
vn 0.4540 0.2201 -0.8634
vn -0.0675 -0.9961 -0.0575
vn -0.0676 -0.9961 -0.0575
vn -0.9920 0.1255 -0.0103
vn -0.5107 0.1215 -0.8511
vn -0.5107 0.1216 -0.8511
vn 0.9454 0.3247 -0.0265
vn 0.9455 0.3247 -0.0265
vn 0.4580 0.3288 0.8259
vn 0.4580 0.3287 0.8259
vn -0.5135 0.2281 0.8272
vn -0.4661 0.2363 0.8526
vn 0.0676 0.9961 0.0575
vn 0.0675 0.9961 0.0576
vn 0.4982 0.1854 0.8470
vn 0.4580 0.3287 0.8260
vn 0.9455 0.3246 -0.0265
vn 0.5006 0.2608 -0.8254
vn -0.4689 0.3125 -0.8261
vn -0.9538 0.3001 0.0173
vn 0.9802 0.1976 0.0114
vn 0.4592 0.3958 0.7953
vn 0.9183 0.3958 0.0000
usemtl Wood.096
s 1
f 20/1/1 67/2/1 66/3/1
f 20/1/1 68/4/1 67/2/2
f 69/5/1 68/4/1 20/1/1
f 68/4/1 69/5/1 70/6/1
f 71/7/1 70/6/1 69/5/1
f 70/6/1 71/7/1 66/3/1
f 71/8/3 72/9/3 66/10/3
f 72/9/3 71/8/3 73/11/3
f 69/12/4 73/13/4 71/14/4
f 73/13/4 69/12/4 74/15/4
f 69/16/5 75/17/5 74/18/5
f 75/17/5 69/16/5 20/19/5
f 75/17/5 20/19/5 76/20/5
f 21/21/5 76/20/5 20/19/5
f 76/20/5 21/21/5 77/22/5
f 77/22/5 21/21/5 78/23/5
f 74/18/5 78/23/5 21/21/5
f 74/18/5 75/17/5 78/23/5
f 79/24/6 78/25/6 75/26/6
f 78/25/6 79/24/6 80/27/6
f 79/28/7 81/29/7 80/30/7
f 81/29/7 79/28/7 82/31/7
f 79/32/8 76/33/8 82/34/8
f 76/33/8 79/32/8 75/35/8
f 76/36/9 81/37/9 82/38/9
f 81/37/9 76/36/9 77/39/9
f 77/40/10 80/41/10 81/42/10
f 80/41/10 77/40/10 78/43/10
f 83/44/11 74/45/11 21/46/12
f 74/45/13 83/44/13 73/47/13
f 84/48/14 73/47/13 83/44/13
f 73/47/13 84/48/14 85/49/14
f 85/49/14 84/48/14 86/50/15
f 84/51/16 87/52/16 86/53/16
f 87/52/16 84/51/16 88/54/16
f 84/55/17 89/56/17 88/57/17
f 89/56/17 84/55/17 83/58/17
f 83/59/18 90/60/18 89/61/18
f 90/60/18 83/59/18 91/62/18
f 83/44/11 21/46/12 91/63/19
f 91/63/19 21/46/12 86/50/12
f 85/49/12 86/50/12 21/46/12
f 66/64/4 21/65/4 85/66/4
f 66/10/3 95/67/3 85/68/3
f 95/67/20 66/10/3 72/9/3
f 96/69/21 95/70/21 72/71/21
f 95/70/21 96/69/21 97/72/21
f 98/73/22 97/74/22 96/75/22
f 97/74/22 98/73/22 99/76/22
f 98/77/23 100/78/23 99/79/23
f 100/78/23 98/77/23 101/80/23
f 98/81/24 72/82/24 101/83/24
f 72/82/24 98/81/24 96/84/24
f 72/9/3 73/11/3 101/85/3
f 101/85/3 73/11/3 100/86/3
f 100/86/3 73/11/3 85/68/3
f 85/68/3 95/67/3 100/86/3
f 97/87/25 100/88/25 95/89/25
f 100/88/25 97/87/25 99/90/25
f 86/91/26 90/92/26 91/93/26
f 90/92/26 86/91/26 87/94/26
f 88/95/12 90/96/12 87/97/12
f 90/96/12 88/95/12 89/98/12
f 102/99/27 74/100/27 73/101/27
f 74/100/27 102/99/27 103/102/27
f 102/103/4 104/104/4 103/105/4
f 104/104/4 102/103/4 105/106/4
f 102/107/28 71/108/28 105/109/28
f 71/108/28 102/107/28 73/110/28
f 71/111/29 104/112/29 105/113/29
f 104/112/29 71/111/29 69/114/29
f 69/115/30 103/116/30 104/117/30
f 103/116/30 69/115/30 74/118/30
f 70/6/1 66/3/1 106/119/31
f 106/119/31 66/3/1 67/2/1
f 107/120/32 106/121/32 67/122/32
f 106/121/32 107/120/32 108/123/32
f 109/124/1 108/125/1 107/126/1
f 108/125/1 109/124/1 110/127/1
f 109/128/33 70/129/33 110/130/33
f 70/129/33 109/128/33 68/131/33
f 107/132/34 68/133/34 109/134/34
f 68/133/34 107/132/34 67/135/34
f 70/136/35 108/137/35 110/138/35
f 108/137/35 70/136/35 106/139/35
usemtl Leafs.057
f 1/140/36 2/141/36 3/142/36
f 2/141/37 1/140/37 4/143/37
f 5/144/38 4/145/38 1/146/38
f 4/145/39 5/144/39 6/147/39
f 5/148/40 7/149/41 6/150/40
f 7/149/41 5/148/40 8/151/41
f 9/152/42 5/153/42 8/154/42
f 10/155/42 5/153/42 9/152/42
f 5/153/42 10/155/42 11/156/42
f 10/157/43 12/158/43 11/159/43
f 12/158/43 10/157/43 13/160/43
f 10/161/44 14/162/44 13/163/44
f 14/162/44 10/161/44 9/164/44
f 9/165/45 15/166/45 14/167/45
f 15/166/45 9/165/45 16/168/45
f 8/154/42 16/169/42 9/152/42
f 16/169/42 8/154/42 17/170/42
f 18/171/46 17/172/46 8/173/46
f 17/172/46 18/171/46 19/174/46
f 18/175/4 20/176/4 19/177/4
f 20/176/4 18/175/4 21/65/4
f 18/175/4 22/178/4 21/65/4
f 22/178/4 18/175/4 23/179/4
f 8/151/40 23/180/40 18/181/40
f 23/180/40 8/151/40 5/148/40
f 5/144/39 22/182/39 23/183/39
f 22/182/39 5/144/39 1/146/39
f 5/153/42 11/156/42 1/184/42
f 1/184/42 11/156/42 24/185/42
f 11/186/47 25/187/47 24/188/47
f 25/187/47 11/186/47 12/189/47
f 12/190/48 26/191/48 25/192/49
f 13/193/49 26/191/48 12/190/48
f 13/193/49 27/194/49 26/191/48
f 27/194/49 13/193/49 28/195/48
f 14/196/48 28/195/48 13/193/49
f 28/195/48 14/196/48 29/197/49
f 29/197/49 14/196/48 15/198/49
f 15/166/45 30/199/45 14/167/45
f 30/199/45 15/166/45 31/200/45
f 32/201/50 31/202/50 15/203/50
f 31/202/51 32/201/51 33/204/51
f 25/205/52 33/206/52 32/207/52
f 33/206/52 25/205/52 34/208/52
f 25/187/47 35/209/47 34/210/53
f 35/209/47 25/187/47 12/189/47
f 12/158/43 36/211/43 35/212/43
f 36/211/43 12/158/43 13/160/43
f 13/163/44 30/213/44 36/214/44
f 30/213/44 13/163/44 14/162/44
f 32/207/52 24/215/52 25/205/52
f 24/215/52 32/207/52 37/216/52
f 32/201/51 16/217/51 37/218/51
f 16/217/51 32/201/51 15/203/50
f 29/197/49 15/198/49 32/219/49
f 29/197/49 32/219/49 38/220/49
f 38/220/49 32/219/49 25/192/49
f 38/220/49 25/192/49 39/221/54
f 25/192/49 26/191/48 39/221/54
f 40/222/55 39/223/55 26/224/55
f 39/223/55 40/222/55 41/225/55
f 40/226/56 42/227/56 41/228/57
f 43/229/57 42/227/56 40/226/56
f 43/229/57 44/230/57 42/227/56
f 44/230/57 43/229/57 45/231/57
f 45/231/57 43/229/57 46/232/57
f 47/233/58 43/234/58 46/235/58
f 43/234/58 47/233/58 48/236/58
f 49/237/59 43/238/59 48/239/59
f 43/238/60 49/237/60 40/240/60
f 50/241/55 40/222/55 49/242/55
f 40/222/55 50/241/55 41/225/55
f 51/243/61 41/244/61 50/245/61
f 41/244/62 51/243/62 52/246/62
f 51/247/63 53/248/64 52/249/63
f 53/248/64 51/247/63 54/250/64
f 54/251/65 46/252/65 53/253/65
f 46/252/65 54/251/65 47/254/65
f 55/255/56 46/232/57 53/256/56
f 46/232/57 55/255/56 45/231/57
f 56/257/66 45/258/66 55/259/66
f 45/258/66 56/257/66 57/260/66
f 56/261/67 58/262/67 57/263/68
f 58/262/67 56/261/67 59/264/67
f 59/264/67 56/261/67 60/265/67
f 55/266/69 60/267/69 56/268/69
f 60/267/69 55/266/69 61/269/69
f 55/255/56 52/270/56 61/271/56
f 55/255/56 53/256/56 52/270/56
f 53/248/70 38/272/70 52/249/70
f 38/272/64 53/248/64 29/273/64
f 46/252/65 29/274/65 53/253/65
f 29/274/65 46/252/65 28/275/65
f 46/235/58 27/276/58 28/277/58
f 27/276/58 46/235/58 43/234/58
f 43/238/60 26/278/60 27/279/60
f 26/278/60 43/238/60 40/240/60
f 39/280/71 52/246/71 38/281/71
f 52/246/71 39/280/71 41/244/71
f 41/228/57 62/282/57 52/270/56
f 41/228/57 42/227/56 62/282/57
f 42/283/72 63/284/72 62/285/72
f 63/284/72 42/283/72 59/286/72
f 44/287/73 59/288/73 42/289/73
f 59/288/73 44/287/73 58/290/73
f 44/291/74 57/292/74 58/293/74
f 57/292/74 44/291/74 45/294/74
f 59/264/67 60/265/67 63/295/68
f 60/296/75 62/297/75 63/298/75
f 62/297/75 60/296/75 61/299/75
f 61/271/56 52/270/56 62/282/57
f 16/169/42 17/170/42 37/300/42
f 37/300/42 17/170/42 64/301/42
f 19/302/76 64/303/76 17/304/76
f 64/303/76 19/302/76 65/305/76
f 19/177/4 66/64/4 65/306/4
f 19/177/4 20/176/4 66/64/4
f 66/64/4 20/176/4 21/65/4
f 21/65/4 22/178/4 85/66/4
f 85/66/4 22/178/4 92/307/4
f 1/140/36 92/308/36 22/309/36
f 92/308/36 1/140/36 3/142/36
f 1/184/42 24/185/42 3/310/42
f 3/310/42 24/185/42 64/301/42
f 37/300/42 64/301/42 24/185/42
f 3/311/77 93/312/77 64/313/77
f 93/312/77 3/311/77 2/314/77
f 93/315/76 17/304/76 64/303/76
f 17/304/76 93/315/76 94/316/76
f 94/317/46 8/173/46 17/172/46
f 8/173/46 94/317/46 7/318/46
f 64/313/77 92/319/77 3/311/77
f 92/319/77 64/313/77 65/320/77
f 65/306/4 66/64/4 92/307/4
f 85/66/4 92/307/4 66/64/4
