# Blender v2.79 (sub 0) OBJ File: 'untitled.blend'
# www.blender.org
mtllib naturePack_114.mtl
o Mesh1_Tree_Model.001
v 0.177000 0.600000 -1.003000
v 1.180000 0.000000 -1.180000
v 0.000000 0.000000 -1.180000
v 1.003000 0.600000 -1.003000
v 1.097400 0.600000 -1.097400
v 0.082600 0.600000 -1.097400
v 0.082600 0.600000 -0.082600
v 0.177000 0.600000 -0.177000
v 1.097400 0.600000 -0.082600
v 1.003000 0.600000 -0.177000
v 0.000000 0.000000 0.000000
v 1.180000 0.000000 0.000000
v 0.393303 0.000000 -0.393303
v 0.393303 0.000000 -0.786697
v 0.786697 0.000000 -0.786697
v 0.786697 0.000000 -0.393303
v 0.342162 -0.495868 -0.837838
v 0.342162 -0.495868 -0.342162
v 0.837838 -0.495868 -0.837838
v 0.837838 -0.495868 -0.342162
v 0.945180 1.343040 -0.234820
v 0.945180 1.343040 -0.945180
v 0.234820 1.343040 -0.945180
v 0.234820 1.343040 -0.234820
v 1.026360 1.343040 -0.153636
v 0.153636 1.343040 -0.153636
v 0.153636 1.343040 -1.026360
v 1.026360 1.343040 -1.026360
v 0.590000 2.663040 -0.590000
vt -32.985802 -18.037399
vt -15.484400 1.588550
vt -30.972300 1.588550
vt -13.470900 -18.037399
vt -32.985802 32.985802
vt -13.470900 13.470900
vt -13.470900 32.985802
vt -32.985802 13.470900
vt 32.985802 -22.803400
vt 15.484400 -3.177470
vt 13.470900 -22.803400
vt 30.972300 -3.177470
vt -32.985802 -22.803400
vt -15.484400 -3.177470
vt -30.972300 -3.177470
vt -13.470900 -22.803400
vt 30.972300 1.588550
vt 13.470900 -18.037399
vt 32.985802 -18.037399
vt 15.484400 1.588550
vt -6.968500 11.483800
vt -46.456699 -13.144700
vt 0.000000 -13.144700
vt -39.488201 11.483800
vt -6.968500 39.488201
vt -43.204700 43.204700
vt -39.488201 39.488201
vt -3.251970 43.204700
vt -3.251970 3.251970
vt -6.968500 6.968500
vt -43.204700 3.251970
vt -39.488201 6.968500
vt 0.000000 0.000000
vt 39.488201 24.628500
vt 6.968500 24.628500
vt 46.456699 -0.000000
vt -15.484400 15.484400
vt -46.456699 0.000000
vt -15.484400 30.972300
vt 0.000000 46.456699
vt -46.456699 46.456699
vt -30.972300 30.972300
vt -30.972300 15.484400
vt 46.456699 -13.144700
vt 6.968500 11.483800
vt 0.000000 -13.144700
vt 39.488201 11.483800
vt 43.204700 14.470500
vt 9.244880 44.331600
vt 3.251970 14.470500
vt 37.211800 44.331600
vt -43.204700 14.470500
vt -9.244880 44.331600
vt -37.211800 44.331600
vt -3.251970 14.470500
vt -43.204700 23.794100
vt -9.244880 53.655201
vt -37.211800 53.655201
vt -3.251970 23.794100
vt 3.251970 23.794100
vt 37.211800 53.655201
vt 9.244880 53.655201
vt 43.204700 23.794100
vt -40.408001 6.048660
vt -9.244880 9.244880
vt -37.211800 9.244880
vt -6.048660 6.048660
vt -9.244880 37.211800
vt -6.048660 40.408001
vt -40.408001 40.408001
vt -23.228300 92.254997
vt -40.408001 37.520500
vt -6.048660 37.520500
vt 40.408001 37.520500
vt 23.228300 92.254997
vt 6.048660 37.520500
vt 23.228300 106.836998
vt 6.048660 52.102001
vt 40.408001 52.102001
vt -40.408001 52.102001
vt -6.048660 52.102001
vt -23.228300 106.836998
vt -37.211800 37.211800
vt -6.968500 24.628500
vt -46.456699 0.000000
vt -39.488201 24.628500
vn -0.9947 0.1026 0.0000
vn 0.0000 -1.0000 -0.0000
vn 0.9947 0.1026 0.0000
vn 0.0000 0.1026 -0.9947
vn 0.0000 0.1026 0.9947
vn 0.0000 0.2829 -0.9591
vn 0.0000 0.2829 0.9591
vn 0.9591 0.2829 0.0000
vn 0.9797 0.2007 0.0000
vn 0.0000 0.2007 -0.9797
vn -0.9797 0.2007 0.0000
vn 0.0000 0.2007 0.9797
vn 0.0000 0.3139 -0.9495
vn 0.9495 0.3139 0.0000
vn 0.0000 0.3139 0.9495
vn -0.9495 0.3139 0.0000
vn -0.9591 0.2829 0.0000
usemtl Wood.065
s 1
f 17/1/1 13/2/1 14/3/1
f 13/2/1 17/1/1 18/4/1
f 19/5/2 18/6/2 17/7/2
f 18/6/2 19/5/2 20/8/2
f 19/9/3 16/10/3 20/11/3
f 16/10/3 19/9/3 15/12/3
f 19/13/4 14/14/4 15/15/4
f 14/14/4 19/13/4 17/16/4
f 16/17/5 18/18/5 20/19/5
f 18/18/5 16/17/5 13/20/5
usemtl Leafs.039
f 1/21/6 2/22/6 3/23/6
f 2/22/6 1/21/6 4/24/6
f 1/25/2 5/26/2 4/27/2
f 1/25/2 6/28/2 5/26/2
f 6/28/2 1/25/2 7/29/2
f 8/30/2 7/29/2 1/25/2
f 7/29/2 8/30/2 9/31/2
f 9/31/2 8/30/2 10/32/2
f 11/33/7 10/34/7 8/35/7
f 10/34/7 11/33/7 12/36/7
f 11/33/2 13/37/2 12/38/2
f 13/37/2 11/33/2 14/39/2
f 3/40/2 14/39/2 11/33/2
f 14/39/2 3/40/2 2/41/2
f 14/39/2 2/41/2 15/42/2
f 15/42/2 2/41/2 16/43/2
f 12/38/2 16/43/2 2/41/2
f 12/38/2 13/37/2 16/43/2
f 13/37/2 15/42/2 16/43/2
f 15/42/2 13/37/2 14/39/2
f 2/44/8 10/45/8 12/46/8
f 10/45/8 2/44/8 4/47/8
f 4/27/2 5/26/2 10/32/2
f 9/31/2 10/32/2 5/26/2
f 5/48/9 21/49/9 9/50/9
f 21/49/9 5/48/9 22/51/9
f 5/52/10 23/53/10 22/54/10
f 23/53/10 5/52/10 6/55/10
f 6/56/11 24/57/11 23/58/11
f 24/57/11 6/56/11 7/59/11
f 7/60/12 21/61/12 24/62/12
f 21/61/12 7/60/12 9/63/12
f 25/64/2 24/65/2 21/66/2
f 26/67/2 24/65/2 25/64/2
f 24/65/2 26/67/2 23/68/2
f 27/69/2 23/68/2 26/67/2
f 23/68/2 27/69/2 28/70/2
f 29/71/13 28/72/13 27/73/13
f 28/74/14 29/75/14 25/76/14
f 29/77/15 26/78/15 25/79/15
f 27/80/16 26/81/16 29/82/16
f 25/64/2 21/66/2 28/70/2
f 22/83/2 28/70/2 21/66/2
f 23/68/2 28/70/2 22/83/2
f 8/84/17 3/85/17 11/33/17
f 3/85/17 8/84/17 1/86/17
