# Blender v2.79 (sub 0) OBJ File: 'untitled.blend'
# www.blender.org
mtllib naturePack_097.mtl
o Mesh1_Grey_Cliff_Green_Top_Model
v -0.280000 2.200001 -3.000000
v 0.500000 0.000000 -3.000000
v -0.280000 0.000000 -3.000000
v 0.500000 2.200001 -3.000000
v -0.133829 2.200001 -2.387190
v 0.082659 2.200000 -1.274920
v -0.280000 2.200000 -1.924320
v -0.280000 0.000000 -1.924320
v -0.133829 0.000000 -2.387190
v 0.082659 0.000000 -1.274920
v 0.500000 -0.000000 0.000000
v -0.161050 0.000000 -0.371864
v -0.280000 -0.000000 0.000000
v -0.280000 2.200000 0.000000
v 0.500000 2.200000 0.000000
v -0.161050 2.200000 -0.371864
v -0.280000 2.200000 -0.701031
v -0.280000 0.000000 -0.701031
vt 11.023600 86.614197
vt -19.684999 0.000000
vt 11.023600 -0.000000
vt -19.684999 86.614197
vt -88.034897 86.614197
vt -68.924301 0.000000
vt -68.924301 86.614197
vt -88.034897 -0.000000
vt -117.445000 86.614197
vt -92.641701 0.000000
vt -92.641701 86.614197
vt -117.445000 -0.000000
vt -19.684999 118.110001
vt 5.268870 93.983902
vt 11.023600 118.110001
vt -3.254290 50.193600
vt -19.684999 -0.000000
vt 6.340550 14.640300
vt 11.023600 -0.000000
vt 19.684999 0.000000
vt -11.023600 86.614197
vt -11.023600 -0.000000
vt 19.684999 86.614197
vt 118.110001 -0.000000
vt -0.000000 86.614197
vt -0.000000 -0.000000
vt 118.110001 86.614197
vt -12.012500 86.614197
vt 3.358540 -0.000000
vt 3.358540 86.614197
vt -12.012500 -0.000000
vt -29.703300 86.614197
vt -15.923800 -0.000000
vt -15.923800 86.614197
vt -29.703300 0.000000
vt -44.169800 86.614197
vt -17.442499 0.000000
vt -17.442499 86.614197
vt -44.169800 0.000000
vt -71.519798 86.614197
vt -42.236401 0.000000
vt -42.236401 86.614197
vt -71.519798 0.000000
vt 11.023600 75.760399
vt 11.023600 27.599600
vt -5.268870 93.983902
vt 19.684999 118.110001
vt -11.023600 118.110001
vt 3.254290 50.193600
vt -11.023600 75.760399
vt 19.684999 -0.000000
vt -6.340550 14.640300
vt -11.023600 -0.000000
vt -11.023600 27.599600
vn 0.0000 0.0000 -1.0000
vn -0.9536 0.0000 -0.3011
vn -0.9727 -0.0000 0.2320
vn -0.0000 -1.0000 -0.0000
vn 0.0000 -0.0000 1.0000
vn 1.0000 -0.0000 0.0000
vn -0.9525 0.0000 -0.3047
vn -0.9405 -0.0000 0.3399
vn -0.8454 0.0000 -0.5342
vn -0.8731 -0.0000 0.4876
vn 0.0000 1.0000 0.0000
usemtl Stone.025
s 1
f 1/1/1 2/2/1 3/3/1
f 2/2/1 1/1/1 4/4/1
f 5/5/2 8/6/2 7/7/2
f 8/6/2 5/5/2 9/8/2
f 1/9/3 9/10/3 5/11/3
f 9/10/3 1/9/3 3/12/3
f 2/13/4 9/14/4 3/15/4
f 9/14/4 2/13/4 10/16/4
f 11/17/4 10/16/4 2/13/4
f 11/17/4 12/18/4 10/16/4
f 12/18/4 11/17/4 13/19/4
f 11/20/5 14/21/5 13/22/5
f 14/21/5 11/20/5 15/23/5
f 2/24/6 15/25/6 11/26/6
f 15/25/6 2/24/6 4/27/6
f 16/28/7 13/29/7 14/30/7
f 13/29/7 16/28/7 12/31/7
f 17/32/8 12/33/8 16/34/8
f 12/33/8 17/32/8 18/35/8
f 6/36/9 18/37/9 17/38/9
f 18/37/9 6/36/9 10/39/9
f 7/40/10 10/41/10 6/42/10
f 10/41/10 7/40/10 8/43/10
f 10/16/4 8/44/4 9/14/4
f 10/16/4 12/18/4 18/45/4
usemtl Leafs.033
f 5/46/11 4/47/11 1/48/11
f 4/47/11 5/46/11 6/49/11
f 6/49/11 5/46/11 7/50/11
f 4/47/11 6/49/11 15/51/11
f 16/52/11 15/51/11 6/49/11
f 15/51/11 16/52/11 14/53/11
f 6/49/11 17/54/11 16/52/11
