# Blender v2.79 (sub 0) OBJ File: 'untitled.blend'
# www.blender.org
mtllib naturePack_092.mtl
o Mesh1_Plate_River_Corner_Model
v 3.000000 0.300000 0.000000
v 0.000000 0.000000 0.000000
v 3.000000 0.000000 0.000000
v 0.000000 0.300000 0.000000
v 0.857709 0.300000 -0.699307
v -0.000000 0.300000 -0.758698
v 0.857709 0.150000 -0.699307
v -0.000000 0.150000 -0.758698
v 0.534905 0.150000 -2.413340
v -0.000000 0.150000 -2.241300
v 0.534905 0.300000 -2.413340
v -0.000000 0.300000 -2.241300
v 0.000000 0.300000 -3.000000
v 0.758698 0.300000 -3.000000
v 0.758698 0.150000 -3.000000
v 2.241300 0.150000 -3.000000
v 1.812920 0.150000 -1.828320
v 1.584840 0.150000 -1.095160
v 1.584840 0.300000 -1.095160
v 1.812920 0.300000 -1.828320
v 2.367710 0.300000 -2.365910
v 3.000000 0.300000 -3.000000
v 2.241300 0.300000 -3.000000
v 3.000000 0.000000 -3.000000
v 0.000000 0.000000 -3.000000
v 2.367710 0.150000 -2.365910
vt 118.110001 11.811000
vt 0.000000 0.000000
vt 118.110001 0.000000
vt 0.000000 11.811000
vt -31.785601 5.905510
vt 2.063370 11.811000
vt -31.785601 11.811000
vt 2.063370 5.905510
vt 49.139198 11.811000
vt 27.017500 5.905510
vt 49.139198 5.905510
vt 27.017500 11.811000
vt 96.279503 11.811000
vt 121.000000 5.905510
vt 121.000000 11.811000
vt 96.279503 5.905510
vt -42.821999 11.811000
vt -75.416496 5.905510
vt -42.821999 5.905510
vt -75.416496 11.811000
vt -118.110001 11.811000
vt -88.240196 5.905510
vt -88.240196 11.811000
vt -118.110001 0.000000
vt -29.870001 5.905510
vt 0.000000 0.000000
vt 0.000000 11.811000
vt -118.110001 -0.000000
vt -88.240196 5.905510
vt -118.110001 11.811000
vt -29.870001 5.905510
vt -29.870001 11.811000
vt -118.110001 118.110001
vt 0.000000 118.110001
vt -118.110001 0.000000
vt 118.110001 0.000000
vt 0.000000 11.811000
vt 0.000000 0.000000
vt 118.110001 11.811000
vt -88.240196 11.811000
vt -29.870001 11.811000
vt -73.123901 5.905510
vt -98.579201 11.811000
vt -98.579201 5.905510
vt -73.123901 11.811000
vt -101.348999 5.905510
vt -131.763000 11.811000
vt -131.763000 5.905510
vt -101.348999 11.811000
vt -59.704899 5.905510
vt -89.934097 11.811000
vt -89.934097 5.905510
vt -59.704899 11.811000
vt 21.059299 95.013496
vt -0.000000 29.870001
vt 33.768101 27.531799
vt -0.000000 88.240196
vt 29.870001 118.110001
vt 88.240196 118.110001
vt 71.374901 71.981201
vt 62.395302 43.116501
vt 93.217003 93.146202
vt 33.768101 27.531799
vt -0.000000 0.000000
vt 118.110001 0.000000
vt -0.000000 29.870001
vt 21.059299 95.013496
vt -0.000000 118.110001
vt -0.000000 88.240196
vt 29.870001 118.110001
vt 62.395302 43.116501
vt 71.374901 71.981201
vt 93.217003 93.146202
vt 118.110001 118.110001
vt 88.240196 118.110001
vn 0.0000 -0.0000 1.0000
vn 0.0691 0.0000 -0.9976
vn 0.3062 0.0000 0.9520
vn 0.9343 0.0000 0.3564
vn -0.4781 0.0000 -0.8783
vn -0.0000 0.0000 -1.0000
vn -1.0000 -0.0000 -0.0000
vn 0.0000 -1.0000 -0.0000
vn 1.0000 0.0000 0.0000
vn -0.9807 0.0000 0.1955
vn -0.6959 0.0000 -0.7182
vn -0.9549 0.0000 -0.2970
vn -0.0000 1.0000 0.0000
usemtl Stone.022
s 1
f 1/1/1 2/2/1 3/3/1
f 2/2/1 1/1/1 4/4/1
f 7/5/2 6/6/2 5/7/2
f 6/6/2 7/5/2 8/8/2
f 11/9/3 10/10/3 9/11/3
f 10/10/3 11/9/3 12/12/3
f 11/13/4 15/14/4 14/15/4
f 15/14/4 11/13/4 9/16/4
f 5/17/5 18/18/5 7/19/5
f 18/18/5 5/17/5 19/20/5
f 22/21/6 16/22/6 23/23/6
f 24/24/6 16/22/6 22/21/6
f 16/22/6 24/24/6 15/25/6
f 25/26/6 15/25/6 24/24/6
f 15/25/6 25/26/6 13/27/6
f 25/28/7 10/29/7 13/30/7
f 25/28/7 8/31/7 10/29/7
f 2/2/7 8/31/7 25/28/7
f 2/2/7 6/32/7 8/31/7
f 6/32/7 2/2/7 4/4/7
f 24/33/8 2/2/8 25/34/8
f 2/2/8 24/33/8 3/35/8
f 24/36/9 1/37/9 3/38/9
f 1/37/9 24/36/9 22/39/9
f 13/30/7 10/29/7 12/40/7
f 15/25/6 13/27/6 14/41/6
f 26/42/10 23/43/10 16/44/10
f 23/43/10 26/42/10 21/45/10
f 17/46/11 21/47/11 26/48/11
f 21/47/11 17/46/11 20/49/11
f 18/50/12 20/51/12 17/52/12
f 20/51/12 18/50/12 19/53/12
usemtl Water.004
f 9/54/13 8/55/13 7/56/13
f 8/55/13 9/54/13 10/57/13
f 9/54/13 7/56/13 15/58/13
f 15/58/13 7/56/13 16/59/13
f 16/59/13 7/56/13 17/60/13
f 17/60/13 7/56/13 18/61/13
f 16/59/13 17/60/13 26/62/13
usemtl Leafs.029
f 5/63/13 4/64/13 1/65/13
f 4/64/13 5/63/13 6/66/13
f 11/67/13 13/68/13 12/69/13
f 13/68/13 11/67/13 14/70/13
f 5/63/13 1/65/13 19/71/13
f 19/71/13 1/65/13 20/72/13
f 20/72/13 1/65/13 21/73/13
f 22/74/13 21/73/13 1/65/13
f 21/73/13 22/74/13 23/75/13
