# Blender v2.79 (sub 0) OBJ File: 'untitled.blend'
# www.blender.org
mtllib naturePack_126.mtl
o Mesh1_Brown_Waterfall_Model
v 3.000000 0.000000 -0.780000
v 3.000000 2.200000 0.000000
v 3.000000 0.000000 -0.000000
v 3.000000 2.200000 -0.780000
v 2.387190 0.000000 -0.633829
v 2.387190 2.200000 -0.633829
v 2.241300 2.200000 -0.679899
v 2.241300 0.000000 -0.679899
v 1.924320 0.000000 -0.920000
v 1.274920 0.000000 -0.557341
v 0.371864 0.000000 -0.661050
v 0.000000 0.000000 0.000000
v 0.000000 0.000000 -0.780000
v 0.000000 2.200000 -0.780000
v 0.000000 2.200000 0.000000
v 0.371864 2.200000 -0.661050
v 0.701031 0.000000 -0.780000
v 0.701031 2.200000 -0.780000
v 0.758698 2.200000 -0.743558
v 1.274920 2.200000 -0.557341
v 1.924320 2.200000 -0.920000
v 2.241300 2.200000 -0.819899
v 2.241300 0.000000 -0.819899
v 0.758698 2.200000 -0.883558
v 0.758698 0.000000 -0.883558
v 0.758698 0.000000 -0.743558
vt 30.708700 0.000000
vt -0.000000 86.614197
vt -0.000000 0.000000
vt 30.708700 86.614197
vt -97.209000 0.000000
vt -122.012001 86.614197
vt -122.012001 0.000000
vt -97.209000 86.614197
vt -82.107101 0.000000
vt -76.083900 86.614197
vt -82.107101 86.614197
vt -76.083900 0.000000
vt -118.110001 0.000000
vt -88.240196 26.767700
vt -93.983902 24.953899
vt -75.760399 36.220501
vt -50.193600 21.942600
vt -14.640300 26.025600
vt -0.000000 -0.000000
vt -0.000000 30.708700
vt -30.708700 86.614197
vt -30.708700 0.000000
vt 0.000000 86.614197
vt 118.110001 86.614197
vt 118.110001 0.000000
vt 14.640300 26.025600
vt 0.000000 -0.000000
vt 118.110001 0.000000
vt 0.000000 30.708700
vt -6.015130 86.614197
vt 9.355940 0.000000
vt 9.355940 86.614197
vt -6.015130 0.000000
vt -22.613899 86.614197
vt -36.393398 0.000000
vt -22.613899 0.000000
vt -36.393398 86.614197
vt 29.870001 29.273899
vt 27.599600 30.708700
vt 50.193600 21.942600
vt 75.760399 36.220501
vt 88.240196 26.767700
vt 93.983902 24.953899
vt 118.110001 30.708700
vt 88.240196 32.279499
vt -88.240196 32.279499
vt -29.870001 29.273899
vt -29.870001 34.785801
vt -27.599600 30.708700
vt -6.926640 86.614197
vt -9.612330 0.000000
vt -6.926640 0.000000
vt -9.612330 86.614197
vt 29.870001 34.785801
vt -118.110001 30.708700
vt -74.424103 0.000000
vt -61.336800 86.614197
vt -74.424103 86.614197
vt -61.336800 0.000000
vt 32.279499 0.000000
vt 26.767700 86.614197
vt 26.767700 0.000000
vt 32.279499 86.614197
vt -83.805199 0.000000
vt -54.521702 86.614197
vt -83.805199 86.614197
vt -54.521702 0.000000
vt -30.709499 0.000000
vt -6.667880 86.614197
vt -30.709499 86.614197
vt -6.667880 0.000000
vt -34.785801 86.614197
vt -29.273899 0.000000
vt -29.273899 86.614197
vt -34.785801 0.000000
vn 1.0000 -0.0000 0.0000
vn -0.2320 0.0000 -0.9727
vn 0.3011 0.0000 -0.9536
vn -0.0000 -1.0000 -0.0000
vn -1.0000 -0.0000 0.0000
vn 0.0000 -0.0000 1.0000
vn 0.0000 1.0000 0.0000
vn 0.3047 0.0000 -0.9525
vn -0.3399 0.0000 -0.9405
vn 0.5342 0.0000 -0.8454
vn -0.4876 0.0000 -0.8731
usemtl Wood.077
s 1
f 1/1/1 2/2/1 3/3/1
f 2/2/1 1/1/1 4/4/1
f 5/5/2 4/6/2 1/7/2
f 4/6/2 5/5/2 6/8/2
f 5/9/3 7/10/3 6/11/3
f 7/10/3 5/9/3 8/12/3
f 3/13/4 8/14/4 5/15/4
f 3/13/4 9/16/4 8/14/4
f 3/13/4 10/17/4 9/16/4
f 3/13/4 11/18/4 10/17/4
f 12/19/4 11/18/4 3/13/4
f 11/18/4 12/19/4 13/20/4
f 12/19/5 14/21/5 13/22/5
f 14/21/5 12/19/5 15/23/5
f 12/19/6 2/24/6 15/23/6
f 2/24/6 12/19/6 3/25/6
f 16/26/7 15/27/7 2/28/7
f 15/27/7 16/26/7 14/29/7
f 16/30/8 13/31/8 14/32/8
f 13/31/8 16/30/8 11/33/8
f 16/34/9 17/35/9 11/36/9
f 17/35/9 16/34/9 18/37/9
f 16/26/7 19/38/7 18/39/7
f 16/26/7 20/40/7 19/38/7
f 16/26/7 2/28/7 20/40/7
f 20/40/7 2/28/7 21/41/7
f 21/41/7 2/28/7 7/42/7
f 7/42/7 2/28/7 6/43/7
f 6/43/7 2/28/7 4/44/7
f 22/45/7 21/41/7 7/42/7
f 8/14/4 9/16/4 23/46/4
f 10/17/4 26/47/4 25/48/4
f 10/17/4 11/18/4 26/47/4
f 26/47/4 11/18/4 17/49/4
f 18/50/10 26/51/10 17/52/10
f 26/51/10 18/50/10 19/53/10
f 19/38/7 20/40/7 24/54/7
f 3/13/4 5/15/4 1/55/4
usemtl Water.007
f 23/56/3 21/57/3 22/58/3
f 21/57/3 23/56/3 9/59/3
f 23/60/1 7/61/1 8/62/1
f 7/61/1 23/60/1 22/63/1
f 9/64/11 20/65/11 21/66/11
f 20/65/11 9/64/11 10/67/11
f 10/68/10 24/69/10 20/70/10
f 24/69/10 10/68/10 25/71/10
f 24/72/5 26/73/5 19/74/5
f 26/73/5 24/72/5 25/75/5
