# Blender v2.79 (sub 0) OBJ File: 'untitled.blend'
# www.blender.org
mtllib naturePack_flat_011.mtl
o Mesh5_Flower_Tall_Red_Model
v 0.000000 0.210877 -0.242963
v 0.217556 0.000000 -0.242963
v 0.038001 0.000000 -0.242963
v 0.217556 0.107776 -0.242963
vt -1.496090 0.000000
vt -8.565200 0.000000
vt 0.000000 8.302230
vt -8.565200 4.243150
vn 0.0000 -0.0000 1.0000
usemtl Green_leafs.058
s 1
f 3/1/1 2/2/1 1/3/1
f 4/4/1 1/3/1 2/2/1
o Mesh3_Flower_Tall_Red_Model
v 0.242963 0.000000 -0.447925
v 0.242963 0.107776 -0.268370
v 0.242963 0.000000 -0.268370
v 0.242963 0.210877 -0.485926
vt 10.565700 -0.000000
vt 10.565700 4.243150
vt 17.634800 -0.000000
vt 19.130899 8.302230
vn -1.0000 0.0000 0.0000
usemtl Green_leafs.058
s 1
f 7/5/2 6/6/2 5/7/2
f 8/8/2 5/7/2 6/6/2
o Mesh4_Flower_Tall_Red_Model
v 0.242963 0.000000 -0.038001
v 0.242963 0.107776 -0.217556
v 0.242963 0.210877 0.000000
v 0.242963 0.000000 -0.217556
vt 0.000000 8.302230
vt 8.565200 4.243150
vt 1.496090 0.000000
vt 8.565200 0.000000
vn -1.0000 -0.0000 0.0000
usemtl Green_leafs.058
s 1
f 11/9/3 10/10/3 9/11/3
f 12/12/3 9/11/3 10/10/3
o Mesh1_Flower_Tall_Red_Model
v 0.268370 0.000000 -0.242963
v 0.268370 0.360000 -0.217556
v 0.268370 0.000000 -0.217556
v 0.268370 0.360000 -0.268370
v 0.242963 0.000000 -0.217556
v 0.217556 0.000000 -0.217556
v 0.242963 0.000000 -0.268370
v 0.217556 0.000000 -0.242963
v 0.217556 0.000000 -0.268370
v 0.217556 0.360000 -0.268370
v 0.217556 0.360000 -0.217556
v 0.321713 0.360000 -0.164213
v 0.164213 0.360000 -0.164213
v 0.321713 0.360000 -0.321713
v 0.164213 0.360000 -0.321713
v 0.131925 0.540000 -0.354000
v 0.354000 0.540000 -0.354000
v 0.354000 0.540000 -0.131925
v 0.131925 0.540000 -0.131925
v 0.268370 0.000000 -0.268370
vt -12.665900 6.465070
vt -8.565200 8.565200
vt -10.565700 8.565200
vt -6.465070 6.465070
vt -8.565200 10.565700
vt -12.665900 12.665900
vt -10.565700 10.565700
vt -6.465070 12.665900
vt -5.193910 23.386499
vt -12.665900 16.186800
vt -6.465070 16.186800
vt -13.937000 23.386499
vt -13.937000 20.008801
vt -6.465070 12.809100
vt -5.193910 20.008801
vt -12.665900 12.809100
vt 13.937000 20.008801
vt 6.465070 12.809100
vt 12.665900 12.809100
vt 8.565200 0.000000
vt 8.565200 14.173200
vt 9.565470 0.000000
vt 10.565700 14.173200
vt 9.565470 0.000000
vt 10.565700 0.000000
vt -9.565470 8.565200
vt -9.565470 10.565700
vt -10.565700 8.565200
vt -8.565200 8.565200
vt -8.565200 9.565470
vt -8.565200 10.565700
vt -8.565200 0.000000
vt -10.565700 14.173200
vt -9.565470 0.000000
vt -8.565200 14.173200
vt 8.565200 0.000000
vt 8.565200 14.173200
vt 5.193910 5.193910
vt 5.193910 13.937000
vt 13.937000 5.193910
vt 5.193910 20.008801
vt 5.193910 23.386499
vt 13.937000 23.386499
vt 6.465070 16.186800
vt 13.937000 13.937000
vt 12.665900 16.186800
vt 10.565700 14.173200
vt 10.565700 0.000000
vt -10.565700 10.565700
vt -10.565700 9.565470
vt -8.565200 0.000000
vt -9.565470 0.000000
vt -8.565200 14.173200
vt -10.565700 0.000000
vt -10.565700 14.173200
vt -10.565700 0.000000
vn 0.0000 -1.0000 0.0000
vn 0.0000 -0.1766 -0.9843
vn -0.9843 -0.1766 0.0000
vn 0.0000 -0.1766 0.9843
vn -1.0000 0.0000 0.0000
vn 0.0000 -0.0000 1.0000
vn 0.0000 1.0000 0.0000
vn 1.0000 0.0000 0.0000
vn 0.0000 0.0000 -1.0000
vn 0.0000 0.1766 -0.9843
vn -0.9843 0.1766 0.0000
vn 0.9239 0.0000 -0.3827
vn 0.9239 -0.0000 0.3827
vn 0.9239 -0.2706 -0.2706
usemtl Mushroom_Red.002
s 1
f 24/13/4 23/14/4 14/15/4
f 25/16/4 23/14/4 24/13/4
f 23/14/4 25/16/4 22/17/4
f 22/17/4 26/18/4 16/19/4
f 27/20/4 22/17/4 25/16/4
f 28/21/5 26/22/5 27/23/5
f 26/22/5 28/21/5 29/24/5
f 28/25/6 25/26/6 31/27/6
f 25/26/6 28/25/6 27/28/6
f 30/29/7 25/30/7 24/31/7
usemtl Green_leafs.058
f 15/32/8 14/33/8 13/34/8
f 14/35/9 17/36/9 15/37/9
f 17/38/4 19/39/4 15/40/4
f 18/41/4 19/39/4 17/38/4
f 20/42/4 19/39/4 18/41/4
f 21/43/10 20/42/10 19/39/10
f 18/44/8 22/45/8 20/46/8
f 23/47/11 18/44/11 22/45/11
f 18/48/12 14/35/12 17/36/12
f 23/49/12 14/35/12 18/48/12
f 26/18/10 14/15/10 24/13/10
f 26/18/10 27/20/10 22/17/10
f 31/50/4 28/51/4 30/52/4
f 31/53/13 30/29/13 25/30/13
f 30/54/14 29/55/14 24/56/14
f 29/57/4 30/52/4 28/51/4
f 26/58/14 24/56/14 29/55/14
f 14/15/10 26/18/10 16/19/10
f 16/59/8 13/34/8 14/33/8
f 16/59/11 13/34/11 32/60/11
f 15/40/15 32/61/16 13/62/17
f 15/40/4 19/39/4 32/61/4
f 21/63/9 19/64/9 22/65/9
f 32/66/9 22/65/9 19/64/9
f 16/67/9 22/65/9 32/66/9
f 21/68/11 22/45/11 20/46/11
o Mesh2_Flower_Tall_Red_Model
v 0.268370 0.107776 -0.242963
v 0.447925 0.000000 -0.242963
v 0.268370 0.000000 -0.242963
v 0.485926 0.210877 -0.242963
vt -10.565700 0.000000
vt -17.634800 0.000000
vt -10.565700 4.243150
vt -19.130899 8.302230
vn 0.0000 -0.0000 1.0000
usemtl Green_leafs.058
s 1
f 35/69/18 34/70/18 33/71/18
f 36/72/18 33/71/18 34/70/18
