# Blender v2.79 (sub 0) OBJ File: 'untitled.blend'
# www.blender.org
mtllib naturePack_001.mtl
o Mesh1_Plate_Grass_Dirt_Model
v 3.000000 0.300000 0.000000
v 0.000000 0.000000 0.000000
v 3.000000 0.000000 0.000000
v 0.000000 0.300000 0.000000
v 0.000000 0.300000 -3.000000
v 3.000000 0.300000 -3.000000
v 3.000000 0.000000 -3.000000
v 0.000000 0.000000 -3.000000
vt 0.000000 11.811000
vt 0.000000 0.000000
vt 118.110001 0.000000
vt 118.110001 11.811000
vt 118.110001 11.811000
vt 0.000000 11.811000
vt 0.000000 0.000000
vt 118.110001 0.000000
vt 0.000000 118.110001
vt -118.110001 118.110001
vt -118.110001 0.000000
vt -118.110001 11.811000
vt -118.110001 0.000000
vt 0.000000 11.811000
vt -118.110001 11.811000
vt -118.110001 0.000000
vt 0.000000 0.000000
vt 118.110001 0.000000
vt 118.110001 118.110001
vt 0.000000 118.110001
vt 0.000000 0.000000
vn 1.0000 0.0000 0.0000
vn 0.0000 -0.0000 1.0000
vn 0.0000 -1.0000 -0.0000
vn -1.0000 0.0000 0.0000
vn 0.0000 0.0000 -1.0000
vn 0.0000 1.0000 0.0000
usemtl Wood
s 1
f 1/1/1 3/2/1 7/3/1 6/4/1
f 1/5/2 4/6/2 2/7/2 3/8/2
f 2/7/3 8/9/3 7/10/3 3/11/3
f 2/7/4 4/6/4 5/12/4 8/13/4
f 5/14/5 6/15/5 7/16/5 8/17/5
usemtl Leafs
f 1/18/6 6/19/6 5/20/6 4/21/6
