# Blender v2.79 (sub 0) OBJ File: 'untitled.blend'
# www.blender.org
mtllib naturePack_080.mtl
o Mesh1_Group1_Model.057
v 0.798649 0.210000 -0.333900
v 0.458993 0.000000 0.000000
v 0.917987 0.000000 -0.265000
v 0.458993 0.210000 -0.137800
v 0.798649 0.590000 -0.333900
v 0.458993 0.590000 -0.137800
v 0.458993 0.590000 -0.250668
v 0.217085 0.590000 -0.390334
v 0.119338 0.590000 -0.333900
v 0.119338 0.590000 -0.726100
v 0.217085 0.590000 -0.669666
v 0.458993 0.590000 -0.922200
v 0.458993 0.590000 -0.809332
v 0.217085 0.510000 -0.669666
v 0.458993 0.510000 -0.809332
v 0.458993 0.510000 -0.250668
v 0.217085 0.510000 -0.390334
v 0.700902 0.510000 -0.390334
v 0.700902 0.590000 -0.390334
v 0.700902 0.590000 -0.669666
v 0.798649 0.590000 -0.726100
v 0.700902 0.510000 -0.669666
v 0.738704 0.404851 -0.760709
v 0.738704 0.264851 -0.760709
v 0.798649 0.210000 -0.726100
v 0.617460 0.264851 -0.830709
v 0.458993 0.210000 -0.922200
v 0.119338 0.210000 -0.726100
v 0.458993 0.000000 -1.060000
v 0.000000 0.000000 -0.795000
v 0.000000 0.000000 -0.265000
v 0.917987 0.000000 -0.795000
v 0.119338 0.210000 -0.333900
v 0.119338 0.499801 -0.424099
v 0.119338 0.499801 -0.635901
v 0.119338 0.300199 -0.635901
v 0.119338 0.300199 -0.424099
v 0.009338 0.322155 -0.447397
v 0.009338 0.477845 -0.447397
v 0.009338 0.477845 -0.612603
v 0.009338 0.322155 -0.612603
v -0.100662 0.322155 -0.447397
v -0.100662 0.322155 -0.612603
v -0.100662 0.477845 -0.612603
v -0.100662 0.477845 -0.447397
v 0.617460 0.404851 -0.830709
v 0.721253 0.383151 -0.967083
v 0.804911 0.383151 -0.918783
v 0.804911 0.286551 -0.918783
v 0.721253 0.286551 -0.967083
vt 33.803101 5.045360
vt 15.649600 -4.464090
vt 36.515701 -4.464090
vt 18.362200 5.045360
vt 33.803101 23.228300
vt 18.362200 8.267720
vt 33.803101 8.267720
vt 18.362200 23.228300
vt 18.070601 9.868830
vt 18.070601 5.425200
vt 31.442900 13.145700
vt 8.546660 15.367500
vt 4.698360 13.145700
vt 4.698360 28.586599
vt 8.546660 26.364799
vt 18.070601 36.307098
vt 18.070601 31.863501
vt 27.594601 15.367500
vt 27.594601 26.364799
vt 31.442900 28.586599
vt -12.937000 23.228300
vt -10.211900 15.939000
vt 2.503940 23.228300
vt -10.211900 10.427200
vt -12.937000 8.267720
vt -4.700070 10.427200
vt 2.503940 8.267720
vt -33.803101 8.267720
vt -18.362200 23.228300
vt -33.803101 23.228300
vt -18.362200 8.267720
vt -36.515701 -13.392300
vt -18.362200 -3.882830
vt -33.803101 -3.882830
vt -15.649600 -13.392300
vt -18.070601 41.732300
vt 0.000000 10.433100
vt 0.000000 31.299200
vt -18.070601 0.000000
vt -36.141201 31.299200
vt 2.503940 -12.811000
vt -15.649600 -22.320499
vt 5.216540 -22.320499
vt -12.937000 -12.811000
vt 13.145700 -8.346920
vt 31.299200 -17.856400
vt 28.586599 -8.346920
vt 10.433100 -17.856400
vt -36.141201 10.433100
vt 28.586599 8.267720
vt 13.145700 23.228300
vt 13.145700 8.267720
vt 28.586599 23.228300
vt 12.937000 13.973500
vt -5.216540 4.464090
vt 15.649600 4.464090
vt -2.503940 13.973500
vt 12.937000 23.228300
vt -2.503940 8.267720
vt 12.937000 8.267720
vt -2.503940 23.228300
vt -13.145700 23.228300
vt -16.696800 19.677200
vt -13.145700 8.267720
vt -28.586599 23.228300
vt -25.035500 19.677200
vt -25.035500 11.818900
vt -28.586599 8.267720
vt -16.696800 11.818900
vt 1.136730 19.677200
vt -3.290050 12.683300
vt 1.136730 11.818900
vt -3.290050 18.812799
vt -16.696800 8.459100
vt -24.118200 4.042960
vt -17.614100 4.042960
vt -25.035500 8.459100
vt -9.783870 19.677200
vt -5.357090 12.683300
vt -5.357090 18.812799
vt -9.783870 11.818900
vt -25.035500 -2.294040
vt -17.614100 2.122090
vt -24.118200 2.122090
vt -16.696800 -2.294040
vt 3.963060 17.614100
vt -0.367650 24.118200
vt -0.367650 17.614100
vt 3.963060 24.118200
vt -17.614100 12.683300
vt -24.118200 18.812799
vt -24.118200 12.683300
vt -17.614100 18.812799
vt -3.963060 12.683300
vt 0.367650 18.812799
vt -3.963060 18.812799
vt 0.367650 12.683300
vt 0.367650 17.614100
vt -3.963060 24.118200
vt -3.963060 17.614100
vt 0.367650 24.118200
vt -0.367650 12.683300
vt 3.963060 18.812799
vt -0.367650 18.812799
vt 3.963060 12.683300
vt -31.299200 -0.000000
vt -13.145700 9.509450
vt -28.586599 9.509450
vt -10.433100 -0.000000
vt -4.700070 15.939000
vt -10.211900 -38.134201
vt -5.554400 -44.881401
vt -4.700070 -38.134201
vt -9.357550 -44.881401
vt 38.859299 15.939000
vt 45.606602 11.281500
vt 45.606602 15.084700
vt 38.859299 10.427200
vt -10.211900 41.472698
vt -5.554400 48.219898
vt -9.357550 48.219898
vt -4.700070 41.472698
vt -40.747501 15.939000
vt -47.494701 11.281500
vt -40.747501 10.427200
vt -47.494701 15.084700
vt -5.554400 15.084700
vt -9.357550 11.281500
vt -5.554400 11.281500
vt -9.357550 15.084700
vt 20.584000 20.078699
vt 31.581301 23.228300
vt 20.584000 23.228300
vt 31.581301 20.078699
vt 8.546660 26.364799
vt 18.070601 9.868830
vt 18.070601 31.863501
vt 8.546660 15.367500
vt 26.364799 20.078699
vt 15.367500 23.228300
vt 15.367500 20.078699
vt 26.364799 23.228300
vt 0.282120 23.228300
vt -10.715200 20.078699
vt 0.282120 20.078699
vt -10.715200 23.228300
vt -20.584000 23.228300
vt -31.581301 20.078699
vt -20.584000 20.078699
vt -31.581301 23.228300
vt -0.282120 20.078699
vt 10.715200 23.228300
vt -0.282120 23.228300
vt 10.715200 20.078699
vt 27.594601 15.367500
vt 27.594601 26.364799
vt -15.367500 20.078699
vt -26.364799 23.228300
vt -26.364799 20.078699
vt -15.367500 23.228300
vn 0.4347 0.4941 0.7529
vn 0.5000 -0.0000 0.8660
vn -0.0000 1.0000 0.0000
vn 0.5000 -0.0000 -0.8660
vn -0.5000 0.0000 -0.8660
vn -0.4347 0.4941 -0.7529
vn -0.0000 -1.0000 -0.0000
vn 0.4347 0.4941 -0.7529
vn 0.8694 0.4941 0.0000
vn 1.0000 0.0000 0.0000
vn -0.4347 0.4941 0.7529
vn -0.5000 -0.0000 0.8660
vn -1.0000 0.0000 0.0000
vn -0.2072 -0.0000 0.9783
vn -0.1957 0.9807 0.0000
vn -0.2072 0.0000 -0.9783
vn -0.1957 -0.9807 0.0000
vn 0.0000 -0.0000 1.0000
vn 0.0000 0.0000 -1.0000
vn -0.8694 0.4941 0.0000
vn 0.0633 0.9920 -0.1097
vn 0.9224 0.0000 0.3863
vn 0.0633 -0.9920 -0.1097
vn -0.7957 0.0000 -0.6056
usemtl Wood.051
s 1
f 1/1/1 2/2/1 3/3/1
f 2/2/1 1/1/1 4/4/1
f 5/5/2 4/6/2 1/7/2
f 4/6/2 5/5/2 6/8/2
f 7/9/3 6/10/3 5/11/3
f 8/12/3 6/10/3 7/9/3
f 8/12/3 9/13/3 6/10/3
f 9/13/3 8/12/3 10/14/3
f 11/15/3 10/14/3 8/12/3
f 10/14/3 11/15/3 12/16/3
f 12/16/3 11/15/3 13/17/3
f 7/9/3 5/11/3 19/18/3
f 19/18/3 5/11/3 20/19/3
f 21/20/3 20/19/3 5/11/3
f 12/16/3 20/19/3 21/20/3
f 12/16/3 13/17/3 20/19/3
f 21/21/4 23/22/4 12/23/4
f 21/21/4 24/24/4 23/22/4
f 25/25/4 24/24/4 21/21/4
f 24/24/4 25/25/4 26/26/4
f 27/27/4 26/26/4 25/25/4
f 26/26/4 27/27/4 12/23/4
f 27/28/5 10/29/5 12/30/5
f 10/29/5 27/28/5 28/31/5
f 29/32/6 28/33/6 27/34/6
f 28/33/6 29/32/6 30/35/6
f 29/36/7 31/37/7 30/38/7
f 31/37/7 29/36/7 2/39/7
f 2/39/7 29/36/7 32/40/7
f 27/41/8 32/42/8 29/43/8
f 32/42/8 27/41/8 25/44/8
f 1/45/9 32/46/9 25/47/9
f 32/46/9 1/45/9 3/48/9
f 2/39/7 32/40/7 3/49/7
f 25/50/10 5/51/10 1/52/10
f 5/51/10 25/50/10 21/53/10
f 4/54/11 31/55/11 2/56/11
f 31/55/11 4/54/11 33/57/11
f 6/58/12 33/59/12 4/60/12
f 33/59/12 6/58/12 9/61/12
f 9/62/13 34/63/13 33/64/13
f 34/63/13 9/62/13 10/65/13
f 34/63/13 10/65/13 35/66/13
f 35/66/13 10/65/13 36/67/13
f 28/68/13 36/67/13 10/65/13
f 28/68/13 37/69/13 36/67/13
f 33/64/13 37/69/13 28/68/13
f 37/69/13 33/64/13 34/63/13
f 34/70/14 38/71/14 37/72/14
f 38/71/14 34/70/14 39/73/14
f 34/74/15 40/75/15 39/76/15
f 40/75/15 34/74/15 35/77/15
f 35/78/16 41/79/16 40/80/16
f 41/79/16 35/78/16 36/81/16
f 36/82/17 38/83/17 41/84/17
f 38/83/17 36/82/17 37/85/17
f 42/86/7 41/87/7 38/88/7
f 41/87/7 42/86/7 43/89/7
f 42/90/13 44/91/13 43/92/13
f 44/91/13 42/90/13 45/93/13
f 42/94/18 39/95/18 45/96/18
f 39/95/18 42/94/18 38/97/18
f 39/98/3 44/99/3 45/100/3
f 44/99/3 39/98/3 40/101/3
f 41/102/19 44/103/19 40/104/19
f 44/103/19 41/102/19 43/105/19
f 30/106/20 33/107/20 28/108/20
f 33/107/20 30/106/20 31/109/20
f 26/26/4 12/23/4 46/110/4
f 46/110/4 12/23/4 23/22/4
f 23/111/21 47/112/21 46/113/21
f 47/112/21 23/111/21 48/114/21
f 23/115/22 49/116/22 48/117/22
f 49/116/22 23/115/22 24/118/22
f 24/119/23 50/120/23 49/121/23
f 50/120/23 24/119/23 26/122/23
f 46/123/24 50/124/24 26/125/24
f 50/124/24 46/123/24 47/126/24
f 47/127/4 49/128/4 50/129/4
f 49/128/4 47/127/4 48/130/4
usemtl Light_Wood.002
f 14/131/2 13/132/2 11/133/2
f 13/132/2 14/131/2 15/134/2
f 14/135/3 16/136/3 15/137/3
f 16/136/3 14/135/3 17/138/3
f 14/139/10 8/140/10 17/141/10
f 8/140/10 14/139/10 11/142/10
f 8/143/4 16/144/4 17/145/4
f 16/144/4 8/143/4 7/146/4
f 7/147/5 18/148/5 16/149/5
f 18/148/5 7/147/5 19/150/5
f 15/151/12 20/152/12 13/153/12
f 20/152/12 15/151/12 22/154/12
f 15/137/3 18/155/3 22/156/3
f 15/137/3 16/136/3 18/155/3
f 18/157/13 20/158/13 22/159/13
f 20/158/13 18/157/13 19/160/13
