# Blender v2.79 (sub 0) OBJ File: 'untitled.blend'
# www.blender.org
mtllib naturePack_flat_009.mtl
o Mesh4_Flower_Yellow_Model.001
v 0.000000 0.210877 -0.242963
v 0.217556 0.000000 -0.242963
v 0.038001 0.000000 -0.242963
v 0.217556 0.107776 -0.242963
vt -1.496090 0.000000
vt -8.565200 0.000000
vt 0.000000 8.302230
vt -8.565200 4.243150
vn 0.0000 -0.0000 1.0000
usemtl Green_leafs.056
s 1
f 3/1/1 2/2/1 1/3/1
f 4/4/1 1/3/1 2/2/1
o Mesh3_Flower_Yellow_Model.001
v 0.242963 0.000000 -0.268370
v 0.217556 0.000000 -0.242963
v 0.217556 0.000000 -0.268370
v 0.217556 0.000000 -0.217556
v 0.217556 0.282100 -0.268370
v 0.217556 0.282100 -0.217556
v 0.268370 0.282100 -0.217556
v 0.242963 0.000000 -0.217556
v 0.268370 0.000000 -0.217556
v 0.268370 0.000000 -0.268370
v 0.268370 0.282100 -0.268370
v 0.346125 0.282100 -0.346125
v 0.139800 0.282100 -0.346125
v 0.139800 0.282100 -0.139800
v 0.346125 0.282100 -0.139800
v 0.268370 0.000000 -0.242963
v 0.097504 0.400000 -0.388422
v 0.388422 0.400000 -0.388422
v 0.388422 0.400000 -0.097504
v 0.097504 0.400000 -0.097504
vt -8.565200 10.565700
vt -5.503950 13.627000
vt -13.627000 13.627000
vt -5.503950 5.503950
vt -8.565200 8.565200
vt -13.627000 5.503950
vt -10.565700 8.565200
vt -10.565700 10.565700
vt -3.838730 19.986900
vt -13.627000 15.055500
vt -5.503950 15.055500
vt -15.292200 19.986900
vt 3.838730 15.292200
vt 15.292200 3.838730
vt 15.292200 15.292200
vt 3.838730 3.838730
vt -5.503950 8.595370
vt -15.292200 13.526800
vt -13.627000 8.595370
vt 5.503950 8.595370
vt 15.292200 13.526800
vt 3.838730 13.526800
vt 13.627000 8.595370
vt 5.503950 15.055500
vt 15.292200 19.986900
vt 3.838730 19.986900
vt 13.627000 15.055500
vt -8.565200 10.565700
vt -8.565200 9.565470
vt -9.565470 10.565700
vt -8.565200 11.106300
vt -8.565200 0.000000
vt -10.565700 11.106300
vt 8.565200 0.000000
vt 10.565700 11.106300
vt 8.565200 11.106300
vt 9.565470 0.000000
vt 10.565700 0.000000
vt -9.565470 8.565200
vt -10.565700 8.565200
vt -8.565200 8.565200
vt -10.565700 10.565700
vt -9.565470 0.000000
vt -8.565200 11.106300
vt -10.565700 0.000000
vt -8.565200 0.000000
vt -10.565700 11.106300
vt 8.565200 11.106300
vt 9.565470 0.000000
vt 10.565700 11.106300
vt 8.565200 0.000000
vt 10.565700 0.000000
vt -10.565700 9.565470
vt -3.838730 13.526800
vt -10.565700 0.000000
vt -9.565470 0.000000
vn -0.0000 -1.0000 -0.0000
vn 0.0000 -0.3377 -0.9413
vn 0.0000 1.0000 0.0000
vn -0.9413 -0.3377 -0.0000
vn 0.0000 -0.3377 0.9413
vn 0.9413 -0.3377 -0.0000
vn 1.0000 -0.0000 0.0000
vn 0.0000 -0.0000 1.0000
vn 0.0000 0.0000 -1.0000
vn 0.9239 0.0000 -0.3827
vn 0.9239 -0.0000 0.3827
vn 0.9239 -0.2706 -0.2706
vn 0.9413 0.3377 0.0000
usemtl Water.015
s 1
f 9/5/2 17/6/2 16/7/2
f 17/6/2 9/5/2 18/8/2
f 18/8/2 10/9/2 19/10/2
f 19/10/2 10/9/2 11/11/2
f 19/10/2 11/11/2 16/7/2
f 15/12/2 16/7/2 11/11/2
f 21/13/3 16/14/3 17/15/3
f 16/14/3 21/13/3 22/16/3
f 21/17/4 23/18/4 22/19/4
f 23/18/4 21/17/4 24/20/4
f 18/21/5 21/22/5 17/23/5
f 18/24/6 23/25/6 24/26/6
f 23/25/6 18/24/6 19/27/6
f 19/28/7 22/29/7 23/30/7
f 22/29/7 19/28/7 16/31/7
usemtl Green_leafs.056
f 7/32/4 6/33/4 5/34/4
f 10/35/8 8/36/8 9/37/8
f 8/38/9 11/39/9 10/40/9
f 12/41/9 11/39/9 8/38/9
f 11/39/9 12/41/9 13/42/9
f 12/43/2 5/34/2 13/44/2
f 8/45/4 5/34/4 6/33/4
f 12/43/4 5/34/4 8/45/4
f 14/46/4 5/34/4 13/44/4
f 5/47/10 9/48/10 14/49/10
f 9/48/10 5/47/10 7/50/10
f 14/49/10 9/48/10 15/51/10
f 15/12/4 16/7/4 9/5/4
f 11/52/8 20/53/8 15/54/8
f 20/53/8 11/52/8 13/55/8
f 15/54/8 20/53/8 14/56/8
f 13/44/11 14/46/12 20/57/13
f 24/58/14 18/21/14 21/22/14
f 9/5/4 18/8/4 10/9/4
f 7/59/8 9/37/8 6/60/8
f 6/60/8 9/37/8 8/36/8
o Mesh5_Flower_Yellow_Model.001
v 0.242963 0.000000 -0.447925
v 0.242963 0.107776 -0.268370
v 0.242963 0.000000 -0.268370
v 0.242963 0.210877 -0.485926
vt 10.565700 -0.000000
vt 10.565700 4.243150
vt 17.634800 -0.000000
vt 19.130899 8.302230
vn -1.0000 0.0000 0.0000
usemtl Green_leafs.056
s 1
f 27/61/15 26/62/15 25/63/15
f 28/64/15 25/63/15 26/62/15
o Mesh1_Flower_Yellow_Model.001
v 0.268370 0.107776 -0.242963
v 0.447925 0.000000 -0.242963
v 0.268370 0.000000 -0.242963
v 0.485926 0.210877 -0.242963
vt -10.565700 0.000000
vt -17.634800 0.000000
vt -10.565700 4.243150
vt -19.130899 8.302230
vn 0.0000 -0.0000 1.0000
usemtl Green_leafs.056
s 1
f 31/65/16 30/66/16 29/67/16
f 32/68/16 29/67/16 30/66/16
o Mesh2_Flower_Yellow_Model.001
v 0.242963 0.000000 -0.038001
v 0.242963 0.107776 -0.217556
v 0.242963 0.210877 0.000000
v 0.242963 0.000000 -0.217556
vt 0.000000 8.302230
vt 8.565200 4.243150
vt 1.496090 0.000000
vt 8.565200 0.000000
vn -1.0000 -0.0000 0.0000
usemtl Green_leafs.056
s 1
f 35/69/17 34/70/17 33/71/17
f 36/72/17 33/71/17 34/70/17
