# Blender v2.79 (sub 0) OBJ File: 'untitled.blend'
# www.blender.org
mtllib naturePack_052.mtl
o Mesh1_Group1_Model.041
v 0.960769 3.239730 -1.788040
v 1.477850 3.403640 -1.407939
v 1.578880 3.169230 -1.466269
v 0.960769 3.403640 -1.706479
v 0.383145 3.263170 -1.442890
v 0.443683 3.403640 -1.407939
v 0.443683 3.403640 -0.810859
v 0.364586 3.220100 -0.765193
v 0.180154 3.230650 -0.701640
v 0.180154 3.287440 -1.565539
v 0.927728 3.256340 -2.000499
v 0.978354 4.060211 -1.653179
v 0.469123 4.014530 -1.388159
v 0.503867 4.065800 -0.816913
v 0.988057 4.148600 -0.587260
v 0.927728 3.142760 -0.272702
v 0.960769 3.147500 -0.384856
v 0.000000 2.374120 -0.554700
v 0.960769 2.374120 0.000000
v 0.862749 2.374120 -1.011380
v 0.862749 2.374120 -1.207420
v 0.960769 2.374120 -2.218800
v 0.000000 2.374120 -1.664100
v 1.675300 3.168450 -1.571560
v 1.425260 4.144670 -1.342909
v 1.018940 4.058341 -1.741769
v 0.442525 4.009810 -1.402839
v 0.442525 4.064420 -0.734529
v 1.018940 4.167570 -0.405141
v 0.591465 4.291800 -0.848106
v 0.993809 4.244500 -0.617251
v 1.407360 4.182940 -0.845575
v 1.396150 4.227760 -0.851345
v 1.396150 4.258320 -1.316299
v 0.993809 4.305621 -1.547149
v 0.591465 4.322360 -1.313059
v 1.675300 3.111660 -0.707659
v 1.595350 4.216100 -0.744066
v 1.595350 4.161480 -1.412379
v 0.906981 5.182890 -1.513949
v 1.258400 5.148890 -1.337839
v 0.924714 5.187730 -1.618559
v 0.591424 5.193270 -1.323129
v 0.510558 5.201930 -1.378089
v 0.510558 5.174300 -0.899630
v 0.584924 5.172250 -0.951584
v 0.592371 5.230190 -0.962936
v 0.592371 5.200800 -1.322619
v 0.902597 5.226921 -1.505029
v 1.212820 5.282430 -1.327759
v 1.212820 5.311820 -0.968069
v 1.278410 5.123960 -0.929663
v 0.918053 5.137160 -0.735109
v 0.902597 5.285700 -0.785660
v 0.924714 5.132470 -0.661647
v 0.996823 6.538130 -1.011749
v 0.938870 6.543980 -1.045049
v 0.938870 6.547850 -1.111999
v 0.996823 6.545860 -1.145649
v 1.054780 6.536140 -1.045399
v 1.338870 5.118270 -0.902120
v 1.338870 5.145900 -1.380579
v 1.054780 6.540010 -1.112349
v 1.600180 3.119800 -0.740236
v 1.921540 2.374120 -0.554700
v 1.058790 2.374120 -1.011380
v 0.885053 1.775500 -0.989327
v 0.885053 1.605620 -0.983068
v 0.775285 0.000000 -0.923916
v 1.015050 1.605620 -0.983068
v 1.146250 0.000000 -0.923916
v 1.103800 1.152220 -1.033980
v 1.146250 0.000000 -1.294880
v 0.775285 0.000000 -1.294880
v 0.719639 -0.140000 -1.350530
v 0.719639 -0.140000 -0.868271
v 1.201900 -0.140000 -1.350530
v 1.201900 -0.140000 -0.868271
v 1.058790 2.374120 -1.207420
v 1.921540 2.374120 -1.664100
v 1.477850 3.403640 -0.810859
v 0.960769 3.403640 -0.512320
v 1.097550 1.322110 -1.033980
v 1.202770 1.182240 -1.057230
v 1.198450 1.299460 -1.057230
v 1.202770 1.182240 -1.160730
v 1.198450 1.299460 -1.160730
v 1.097550 1.322110 -1.183980
v 1.103800 1.152220 -1.183980
v 0.795313 0.543656 -1.203680
v 0.795313 0.543656 -1.043680
v 0.801940 0.723534 -1.043680
v 0.801940 0.723534 -1.203680
v 0.716295 0.571784 -1.181280
v 0.721066 0.701296 -1.181280
v 0.716295 0.571784 -1.066080
v 0.721066 0.701296 -1.066080
v 1.015050 1.775500 -0.989327
v 0.904553 1.752970 -0.908442
v 0.995553 1.752970 -0.908442
v 0.904553 1.634050 -0.904061
v 0.995553 1.634050 -0.904061
vt 33.966499 94.872002
vt 34.844601 71.288300
vt 41.684601 94.872002
vt 34.844601 64.595398
vt 30.523001 1.339150
vt 39.962700 64.595398
vt 45.128101 1.339150
vt 36.374599 -1.661410
vt 40.707802 43.732498
vt 39.818100 91.871399
vt 50.979698 -1.661410
vt -30.523001 36.374599
vt -45.128101 50.979698
vt -45.128101 36.374599
vt -30.523001 50.979698
vt -53.170399 5.342740
vt -36.374599 11.274000
vt -50.979698 11.274000
vt -34.183899 5.342740
vt -47.318802 53.170399
vt -28.332300 34.183899
vt -28.332300 53.170399
vt -47.318802 34.183899
vt 53.170399 -22.599701
vt 36.374599 -16.668501
vt 34.183899 -22.599701
vt 50.979698 -16.668501
vt -47.318802 -24.761101
vt -30.523001 -18.829800
vt -45.128101 -18.829800
vt -28.332300 -24.761101
vt -33.966499 91.655998
vt -45.128101 -1.876850
vt -30.523001 -1.876850
vt -41.684601 91.655998
vt -41.684601 39.818100
vt -33.966499 47.536201
vt -41.684601 47.536201
vt 40.707802 50.425400
vt 47.536201 91.871399
vt 55.544300 46.791801
vt 51.302101 52.298801
vt 51.542099 45.610199
vt 55.378700 51.407001
vt 45.697899 44.769901
vt 41.623100 49.388000
vt 41.623100 44.769901
vt 45.697899 49.388000
vt -35.782299 46.082699
vt -31.540100 51.589600
vt -35.616699 50.697800
vt -31.780100 44.901001
vt 45.697899 58.823502
vt 40.707802 54.752102
vt 46.613300 54.752102
vt 41.623100 58.823502
vt 46.613300 43.732498
vt 46.613300 50.425400
vt 41.623100 -34.831799
vt 46.613300 -30.760401
vt 40.707802 -30.760401
vt 45.697899 -34.831799
vt -50.979698 1.123720
vt -47.388901 22.542000
vt -47.536201 94.656601
vt -41.089699 22.542000
vt -36.374599 1.123720
vt -39.818100 94.656601
vt -41.089699 29.628599
vt -47.388901 29.628599
vt -39.689301 22.140900
vt -43.174099 28.115601
vt -42.922798 21.033501
vt -39.870201 27.240101
vt -41.971600 23.534100
vt -46.507000 28.636499
vt -46.507000 23.534100
vt -41.971600 28.636499
vt 15.847800 22.986700
vt 19.332600 28.961399
vt 16.028700 28.085899
vt 19.081301 21.879299
vt -41.971600 -19.018200
vt -47.388901 -22.320400
vt -41.089699 -22.320400
vt -46.507000 -19.018200
vt -41.089699 37.994900
vt -46.507000 34.692699
vt -41.971600 34.692699
vt -47.388901 37.994900
vt 45.128101 13.435300
vt 28.332300 7.504090
vt 47.318802 7.504090
vt 30.523001 13.435300
vt 39.962700 71.288300
vt 35.612301 52.977299
vt 39.962700 56.283100
vt 34.844601 56.283100
vt 39.195000 52.977299
vt 35.612301 65.599297
vt 39.195000 70.284401
vt 35.612301 70.284401
vt 39.195000 65.599297
vt 35.612301 -11.710100
vt 39.962700 -15.015800
vt 39.195000 -11.710100
vt 34.844601 -15.015800
vt -26.321199 69.387299
vt -29.357500 63.585999
vt -26.153601 64.705299
vt -29.596901 70.274597
vt 47.061699 62.952301
vt 44.025501 68.753601
vt 43.857899 64.071602
vt 47.301102 69.640900
vt 2.439850 85.520699
vt -22.672800 92.547401
vt -24.969101 82.498001
vt 0.834234 92.547401
vt -41.466900 101.496002
vt -66.349998 107.517998
vt -67.955597 100.490997
vt -42.842899 107.517998
vt -56.806702 123.950996
vt -31.923599 129.973007
vt -55.430698 129.973007
vt -30.125700 122.105003
vt -25.834801 25.101200
vt -53.444901 37.544701
vt -32.381302 21.064100
vt -52.093601 46.832901
vt -84.020302 34.930099
vt -36.394501 100.899002
vt -65.476700 133.751999
vt -70.442101 99.577202
vt -42.887501 131.809998
vt -61.432701 123.697998
vt -31.641500 156.602005
vt -54.159000 154.434006
vt -27.432199 121.297997
vt -6.739290 129.751007
vt 23.445700 167.524994
vt 2.370930 164.117996
vt 27.177099 126.134003
vt -31.502600 -8.533250
vt -35.738300 -6.721580
vt -10.919300 93.322701
vt 25.181999 126.477997
vt -2.632140 129.589996
vt 32.757900 93.322701
vt 0.000000 21.838600
vt -33.966499 39.818100
vt -37.825500 0.000000
vt -37.825500 87.354301
vt 0.000000 65.515701
vt -65.515701 85.837502
vt -21.838600 85.837502
vt -76.434998 63.381901
vt -32.757900 63.381901
vt -78.389397 28.576200
vt -89.688103 1.295670
vt 10.457800 94.293602
vt -19.831900 131.167007
vt -23.455200 90.645500
vt 1.558690 127.661003
vt 75.615402 23.124399
vt 79.422302 22.644699
vt 74.473198 44.770199
vt 56.200500 11.415300
vt 56.141899 10.206200
vt 33.758999 24.203501
vt 37.787701 24.557100
vt 34.656502 50.639198
vt 40.116901 45.778099
vt 4.836190 173.417999
vt 23.090000 171.470993
vt 64.638702 160.278000
vt 46.049400 162.768997
vt 45.252201 158.888000
vt 64.375099 162.091995
vt 53.793598 144.714996
vt 34.424198 148.089005
vt 34.204399 146.268997
vt 52.726799 149.328995
vt -1.158030 137.848007
vt -19.410000 135.884003
vt -45.636501 144.897003
vt -63.960899 144.184998
vt -32.780499 166.154999
vt -51.079498 167.447006
vt 62.957298 105.077003
vt 28.950199 102.772003
vt 36.889999 118.179001
vt 70.940002 116.919998
vt 57.446098 54.579800
vt 57.937000 63.077702
vt 80.319801 49.080399
vt -3.864730 183.776993
vt -29.713200 142.552994
vt -3.591820 138.389999
vt -19.337200 182.404007
vt -68.530602 29.516600
vt -72.118797 31.663700
vt -72.221703 14.428300
vt -54.756199 34.122601
vt -54.339298 37.964401
vt -39.998001 25.703300
vt -43.453499 24.796801
vt -38.150002 207.162994
vt -52.329601 205.697006
vt -37.700001 204.863007
vt -52.310101 205.996002
vt -60.957100 200.302994
vt -46.767502 198.968002
vt -46.789200 199.266998
vt -61.285801 198.557007
vt -17.933901 187.794006
vt -3.875420 185.554001
vt 36.758701 181.957001
vt 51.260399 175.175003
vt 50.914001 180.733002
vt 35.174900 174.136993
vt 60.241001 200.850006
vt 45.644100 193.569000
vt 61.765999 193.018005
vt 46.077099 199.761002
vt 13.877200 212.882004
vt -0.194014 208.294998
vt 15.443800 206.876007
vt -0.180623 210.636993
vt -43.436100 7.141470
vt -45.467999 9.224470
vt 15.330300 262.824005
vt 0.649074 207.565994
vt 19.450399 205.871002
vt 12.699400 263.062012
vt 55.770599 18.799601
vt 57.296398 23.112700
vt 55.289501 21.396999
vt 59.784302 22.231100
vt 58.258598 17.917999
vt 44.586800 199.302994
vt 56.659801 255.541000
vt 54.021500 255.621002
vt 63.441101 198.733994
vt -60.497898 3.366040
vt -61.215599 0.840755
vt 69.135597 155.171997
vt 42.818298 153.149002
vt 25.670000 167.669006
vt -0.450070 163.498993
vt -55.407101 158.733002
vt -29.097099 160.899994
vt -69.680099 153.951996
vt -43.355400 152.026993
vt 53.821899 134.074005
vt 27.520700 136.348007
vt -75.556900 13.101900
vt 1.918870 178.035004
vt -12.794800 233.184006
vt -16.881399 176.328995
vt -10.164100 233.421997
vt -44.264702 182.895004
vt -56.396000 238.595993
vt -63.118401 182.306000
vt -53.757702 238.677994
vt -53.881199 201.688004
vt -40.465302 257.078003
vt -43.100700 257.237000
vt -35.047501 200.548004
vt 60.265400 19.633699
vt 41.637798 244.147995
vt 54.963200 188.313995
vt 44.273499 244.304001
vt 36.127602 187.203995
vt -63.429199 -20.436001
vt -62.539700 -17.320900
vt 32.757900 78.352303
vt 69.130402 110.320000
vt 40.333801 111.507004
vt 76.434998 78.352303
vt -75.651100 21.838600
vt -75.651100 65.515701
vt -32.757900 48.411598
vt 10.919300 48.411598
vt -84.074898 1.593560
vt 57.727001 89.983200
vt 31.923599 100.032997
vt 29.143200 87.864403
vt 55.430698 100.032997
vt 66.349998 122.487999
vt 42.842899 122.487999
vt 22.672800 137.459000
vt -0.834234 137.459000
vt 65.515701 55.896702
vt 21.838600 55.896702
vn 0.0000 0.0368 0.9993
vn 0.0001 0.0368 0.9993
vn 0.9993 0.0368 -0.0000
vn 0.9993 0.0368 0.0001
vn 0.0000 -1.0000 -0.0000
vn -0.9293 0.3694 0.0000
vn 0.9293 0.3694 0.0000
vn 0.0000 0.3694 -0.9293
vn 0.0000 0.0368 -0.9993
vn 0.2263 0.0083 0.9740
vn 0.2263 0.0083 -0.9740
vn 0.2903 -0.9569 -0.0000
vn 0.9993 0.0368 0.0004
vn 0.2190 0.9757 0.0000
vn -0.9993 0.0368 -0.0000
vn -0.9993 0.0368 0.0003
vn -0.2694 0.0099 -0.9630
vn -0.2694 0.0099 0.9630
vn -0.3354 -0.9421 0.0000
vn -0.2651 0.9642 0.0000
vn 0.0000 0.3694 0.9293
vn 0.0000 0.9633 0.2683
vn 0.0000 -0.9409 0.3386
vn -0.9716 0.0087 0.2367
vn 0.9716 0.0087 0.2366
vn 0.4592 0.3958 -0.7953
vn 0.4592 0.3957 -0.7953
vn -0.4592 0.3957 -0.7953
vn -0.4592 0.3958 -0.7953
vn -0.9183 0.3958 0.0000
vn -0.9184 0.3958 0.0000
vn -0.0794 -0.9947 -0.0654
vn -0.4539 0.3773 -0.8072
vn -0.9310 0.3642 0.0239
vn -0.4502 0.2910 0.8442
vn -0.4592 0.3958 0.7953
vn 0.4998 0.3168 -0.8061
vn 0.1307 -0.9881 0.0807
vn 0.1307 -0.9881 0.0808
vn 0.1308 -0.9881 0.0808
vn 0.4964 0.2318 0.8366
vn 0.4964 0.2319 0.8366
vn 0.9695 0.2446 0.0161
vn 0.4998 0.3168 -0.8062
vn 0.1306 -0.9881 0.0808
vn 0.4540 0.2201 -0.8634
vn -0.0675 -0.9961 -0.0575
vn -0.0676 -0.9961 -0.0575
vn -0.9920 0.1255 -0.0103
vn -0.5106 0.1219 -0.8511
vn -0.5107 0.1216 -0.8511
vn 0.9454 0.3247 -0.0265
vn 0.9455 0.3247 -0.0265
vn 0.4580 0.3287 0.8259
vn 0.4580 0.3288 0.8259
vn -0.5135 0.2281 0.8272
vn -0.4661 0.2363 0.8526
vn 0.0676 0.9961 0.0575
vn 0.0675 0.9961 0.0576
vn 0.4982 0.1854 0.8470
vn 0.4580 0.3287 0.8260
vn 0.9455 0.3246 -0.0265
vn 0.5006 0.2608 -0.8254
vn -0.4689 0.3125 -0.8261
vn -0.9538 0.3001 0.0173
vn -0.9538 0.3001 0.0174
vn 0.9802 0.1976 0.0114
vn 0.4592 0.3958 0.7953
vn 0.9183 0.3958 0.0000
usemtl Wood.032
s 1
f 20/1/1 67/2/1 66/3/1
f 20/1/1 68/4/1 67/2/2
f 69/5/1 68/4/1 20/1/1
f 68/4/1 69/5/1 70/6/1
f 71/7/1 70/6/1 69/5/1
f 70/6/1 71/7/1 66/3/1
f 71/8/3 72/9/3 66/10/4
f 72/9/3 71/8/3 73/11/3
f 69/12/5 73/13/5 71/14/5
f 73/13/5 69/12/5 74/15/5
f 75/16/6 69/17/6 74/18/6
f 69/17/6 75/16/6 76/19/6
f 77/20/5 76/21/5 75/22/5
f 76/21/5 77/20/5 78/23/5
f 77/24/7 71/25/7 78/26/7
f 71/25/7 77/24/7 73/27/7
f 77/28/8 74/29/8 73/30/8
f 74/29/8 77/28/8 75/31/8
f 21/32/9 73/33/9 74/34/9
f 73/33/9 21/32/9 79/35/9
f 66/36/5 21/37/5 79/38/5
f 66/10/3 83/39/3 79/40/3
f 83/39/3 66/10/4 72/9/3
f 84/41/10 83/42/10 72/43/10
f 83/42/10 84/41/10 85/44/10
f 86/45/3 85/46/3 84/47/3
f 85/46/3 86/45/3 87/48/3
f 86/49/11 88/50/11 87/51/11
f 88/50/11 86/49/11 89/52/11
f 86/53/12 72/54/12 89/55/12
f 72/54/12 86/53/12 84/56/12
f 72/9/3 73/11/3 89/57/13
f 89/57/13 73/11/3 88/58/3
f 88/58/3 73/11/3 79/40/3
f 79/40/3 83/39/3 88/58/3
f 85/59/14 88/60/14 83/61/14
f 88/60/14 85/59/14 87/62/14
f 74/63/15 90/64/15 21/65/15
f 74/63/15 91/66/15 90/64/15
f 69/67/15 91/66/15 74/63/15
f 91/66/15 69/67/15 20/68/15
f 91/66/15 20/68/15 92/69/15
f 21/65/15 92/69/15 20/68/15
f 92/69/15 21/65/15 93/70/16
f 93/70/16 21/65/15 90/64/15
f 94/71/17 93/72/17 90/73/17
f 93/72/17 94/71/17 95/74/17
f 96/75/15 95/76/15 94/77/15
f 95/76/15 96/75/15 97/78/15
f 96/79/18 92/80/18 97/81/18
f 92/80/18 96/79/18 91/82/18
f 96/83/19 90/84/19 91/85/19
f 90/84/19 96/83/19 94/86/19
f 92/87/20 95/88/20 97/89/20
f 95/88/20 92/87/20 93/90/20
f 71/91/21 76/92/21 78/93/21
f 76/92/21 71/91/21 69/94/21
f 70/6/1 66/3/1 98/95/1
f 98/95/1 66/3/1 67/2/1
f 99/96/22 98/97/22 67/98/22
f 98/97/22 99/96/22 100/99/22
f 101/100/1 100/101/1 99/102/1
f 100/101/1 101/100/1 102/103/1
f 101/104/23 70/105/23 102/106/23
f 70/105/23 101/104/23 68/107/23
f 99/108/24 68/109/24 101/110/24
f 68/109/24 99/108/24 67/111/24
f 70/112/25 100/113/25 102/114/25
f 100/113/25 70/112/25 98/115/25
usemtl Leafs.007
f 1/116/26 2/117/26 3/118/26
f 2/117/27 1/116/27 4/119/27
f 5/120/28 4/121/28 1/122/28
f 4/121/29 5/120/29 6/123/29
f 5/124/30 7/125/31 6/126/30
f 7/125/31 5/124/30 8/127/31
f 9/128/32 5/129/32 8/130/32
f 10/131/32 5/129/32 9/128/32
f 5/129/32 10/131/32 11/132/32
f 10/133/33 12/134/33 11/135/33
f 12/134/33 10/133/33 13/136/33
f 10/137/34 14/138/34 13/139/34
f 14/138/34 10/137/34 9/140/34
f 9/141/35 15/142/35 14/143/35
f 15/142/35 9/141/35 16/144/35
f 8/130/32 16/145/32 9/128/32
f 16/145/32 8/130/32 17/146/32
f 18/147/36 17/148/36 8/149/36
f 17/148/36 18/147/36 19/150/36
f 18/151/5 20/152/5 19/153/5
f 20/152/5 18/151/5 21/37/5
f 18/151/5 22/154/5 21/37/5
f 22/154/5 18/151/5 23/155/5
f 8/127/30 23/156/30 18/157/30
f 23/156/30 8/127/30 5/124/30
f 5/120/29 22/158/29 23/159/29
f 22/158/29 5/120/29 1/122/29
f 5/129/32 11/132/32 1/160/32
f 1/160/32 11/132/32 24/161/32
f 11/162/37 25/163/37 24/164/37
f 25/163/37 11/162/37 12/165/37
f 12/166/38 26/167/38 25/168/39
f 13/169/40 26/167/38 12/166/38
f 13/169/40 27/170/40 26/167/38
f 27/170/40 13/169/40 28/171/39
f 14/172/38 28/171/39 13/169/40
f 28/171/39 14/172/38 29/173/39
f 29/173/39 14/172/38 15/174/39
f 15/142/35 30/175/35 14/143/35
f 30/175/35 15/142/35 31/176/35
f 32/177/41 31/178/41 15/179/41
f 31/178/42 32/177/42 33/180/42
f 25/181/43 33/182/43 32/183/43
f 33/182/43 25/181/43 34/184/43
f 25/163/37 35/185/37 34/186/44
f 35/185/37 25/163/37 12/165/37
f 12/134/33 36/187/33 35/188/33
f 36/187/33 12/134/33 13/136/33
f 13/139/34 30/189/34 36/190/34
f 30/189/34 13/139/34 14/138/34
f 32/183/43 24/191/43 25/181/43
f 24/191/43 32/183/43 37/192/43
f 32/177/42 16/193/42 37/194/42
f 16/193/42 32/177/42 15/179/41
f 29/173/39 15/174/39 32/195/39
f 29/173/39 32/195/39 38/196/39
f 38/196/39 32/195/39 25/168/39
f 38/196/39 25/168/39 39/197/45
f 25/168/39 26/167/38 39/197/45
f 40/198/46 39/199/46 26/200/46
f 39/199/46 40/198/46 41/201/46
f 40/202/47 42/203/47 41/204/48
f 43/205/48 42/203/47 40/202/47
f 43/205/48 44/206/48 42/203/47
f 44/206/48 43/205/48 45/207/48
f 45/207/48 43/205/48 46/208/48
f 47/209/49 43/210/49 46/211/49
f 43/210/49 47/209/49 48/212/49
f 49/213/50 43/214/50 48/215/50
f 43/214/51 49/213/51 40/216/51
f 50/217/46 40/198/46 49/218/46
f 40/198/46 50/217/46 41/201/46
f 51/219/52 41/220/52 50/221/52
f 41/220/53 51/219/53 52/222/53
f 51/223/54 53/224/54 52/225/55
f 53/224/54 51/223/54 54/226/54
f 54/227/56 46/228/56 53/229/56
f 46/228/56 54/227/56 47/230/56
f 55/231/47 46/208/48 53/232/47
f 46/208/48 55/231/47 45/207/48
f 56/233/57 45/234/57 55/235/57
f 45/234/57 56/233/57 57/236/57
f 56/237/58 58/238/58 57/239/59
f 58/238/58 56/237/58 59/240/58
f 59/240/58 56/237/58 60/241/58
f 55/242/60 60/243/60 56/244/60
f 60/243/60 55/242/60 61/245/60
f 55/231/47 52/246/47 61/247/47
f 55/231/47 53/232/47 52/246/47
f 53/224/61 38/248/61 52/225/61
f 38/248/54 53/224/54 29/249/54
f 46/228/56 29/250/56 53/229/56
f 29/250/56 46/228/56 28/251/56
f 46/211/49 27/252/49 28/253/49
f 27/252/49 46/211/49 43/210/49
f 43/214/51 26/254/51 27/255/51
f 26/254/51 43/214/51 40/216/51
f 39/256/62 52/222/62 38/257/62
f 52/222/62 39/256/62 41/220/62
f 41/204/48 62/258/48 52/246/47
f 41/204/48 42/203/47 62/258/48
f 42/259/63 63/260/63 62/261/63
f 63/260/63 42/259/63 59/262/63
f 44/263/64 59/264/64 42/265/64
f 59/264/64 44/263/64 58/266/64
f 44/267/65 57/268/65 58/269/66
f 57/268/65 44/267/65 45/270/65
f 59/240/58 60/241/58 63/271/59
f 60/272/67 62/273/67 63/274/67
f 62/273/67 60/272/67 61/275/67
f 61/247/47 52/246/47 62/258/48
f 16/145/32 17/146/32 37/276/32
f 37/276/32 17/146/32 64/277/32
f 19/278/68 64/279/68 17/280/68
f 64/279/68 19/278/68 65/281/68
f 19/153/5 66/36/5 65/282/5
f 19/153/5 20/152/5 66/36/5
f 66/36/5 20/152/5 21/37/5
f 21/37/5 22/154/5 79/38/5
f 79/38/5 22/154/5 80/283/5
f 1/116/26 80/284/26 22/285/26
f 80/284/26 1/116/26 3/118/26
f 1/160/32 24/161/32 3/286/32
f 3/286/32 24/161/32 64/277/32
f 37/276/32 64/277/32 24/161/32
f 3/287/69 81/288/69 64/289/69
f 81/288/69 3/287/69 2/290/69
f 81/291/68 17/280/68 64/279/68
f 17/280/68 81/291/68 82/292/68
f 82/293/36 8/149/36 17/148/36
f 8/149/36 82/293/36 7/294/36
f 64/289/69 80/295/69 3/287/69
f 80/295/69 64/289/69 65/296/69
f 65/282/5 66/36/5 80/283/5
f 79/38/5 80/283/5 66/36/5
