# Blender v2.79 (sub 0) OBJ File: 'untitled.blend'
# www.blender.org
mtllib naturePack_038.mtl
o Mesh1_Group1_Model.027
v 0.543392 2.140000 -0.386473
v 0.366413 1.430000 -0.603796
v 0.487351 1.430000 -0.367903
v 0.458736 2.140000 -0.551599
v 0.889576 2.140000 -0.401147
v 0.728256 2.140000 -0.308008
v 0.751441 1.430000 -0.255810
v 0.403127 0.000000 -0.186820
v 0.843278 0.000000 0.000000
v 0.529866 0.000000 -1.279050
v 0.000000 0.000000 -0.973133
v 0.245475 1.430000 -0.839690
v 0.563394 1.430000 -1.023240
v 0.981899 1.430000 -0.388865
v 1.227370 0.000000 -0.221758
v 1.227370 0.000000 -0.586758
v 0.981899 1.430000 -0.607865
vt -3.779710 86.096497
vt -14.572300 58.049500
vt -4.135690 58.049500
vt -11.085300 86.096497
vt 12.002800 57.356701
vt 21.654699 85.351501
vt 13.748100 85.351501
vt 23.297800 57.356701
vt 11.735900 1.793150
vt 23.297800 58.638100
vt 12.002800 58.638100
vt 30.561001 1.793150
vt -15.871100 7.355130
vt -20.860901 50.356400
vt -33.199902 0.000000
vt 0.000000 38.312302
vt -4.135690 58.554199
vt -34.092899 1.914270
vt 0.695605 1.914270
vt -14.572300 58.554199
vt -25.008801 58.554199
vt -9.891190 83.520401
vt -31.448799 55.557800
vt -5.782140 55.557800
vt -27.857901 83.520401
vt 38.227100 83.677902
vt 30.656401 55.635899
vt 41.133099 55.635899
vt 30.893400 83.677902
vt 28.752001 -3.051810
vt 41.133099 54.223598
vt 30.656401 54.223598
vt 46.213200 -3.051810
vt -48.321800 23.100700
vt -48.321800 8.730620
vt 12.635800 51.104599
vt -18.023300 -5.537000
vt 20.667400 -5.537000
vt -10.578600 51.104599
vt 15.309600 48.947300
vt 23.100700 -8.175370
vt 23.931700 48.947300
vt 8.730620 -8.175370
vt -43.244202 -5.453980
vt -24.898899 51.621601
vt -39.351799 51.621601
vt -19.156200 -5.453980
vt 21.393400 15.215500
vt 35.022701 15.793200
vt 18.060499 21.716499
vt 28.671499 12.126300
vt 14.425700 23.771500
vt 22.180901 40.285099
vt 9.664360 33.058701
vt 38.657398 15.309600
vt 38.657398 23.931700
vn -0.8869 0.0819 0.4547
vn -0.3901 0.0548 0.9191
vn -0.3870 0.1382 0.9117
vn -0.0000 -1.0000 -0.0000
vn -0.8845 0.1095 0.4535
vn 0.3296 0.0265 -0.9438
vn 0.4984 0.0797 0.8633
vn 0.4915 0.1838 0.8513
vn 0.7002 0.1098 -0.7055
vn 0.9856 0.1692 0.0000
vn -0.4932 0.1644 -0.8542
vn 0.0000 1.0000 0.0000
usemtl Wood.024
s 1
f 1/1/1 2/2/1 3/3/1
f 2/2/1 1/1/1 4/4/1
f 3/5/2 6/6/2 1/7/2
f 6/6/2 3/5/2 7/8/2
f 8/9/3 7/10/3 3/11/3
f 7/10/3 8/9/3 9/12/3
f 8/13/4 10/14/4 9/15/4
f 10/14/4 8/13/4 11/16/4
f 3/17/5 11/18/5 8/19/5
f 11/18/5 3/17/5 2/20/5
f 11/18/5 2/20/5 12/21/5
f 4/22/6 14/23/6 2/24/6
f 14/23/6 4/22/6 5/25/6
f 5/26/7 7/27/7 14/28/7
f 7/27/7 5/26/7 6/29/7
f 9/30/8 14/31/8 7/32/8
f 14/31/8 9/30/8 15/33/8
f 9/15/4 16/34/4 15/35/4
f 9/15/4 10/14/4 16/34/4
f 13/36/9 16/37/9 10/38/9
f 16/37/9 13/36/9 17/39/9
f 14/40/10 16/41/10 17/42/10
f 16/41/10 14/40/10 15/43/10
f 10/44/11 12/45/11 13/46/11
f 12/45/11 10/44/11 11/47/11
usemtl Green_leafs.020
f 1/48/12 5/49/12 4/50/12
f 5/49/12 1/48/12 6/51/12
f 2/52/12 13/53/12 12/54/12
f 13/53/12 2/52/12 14/55/12
f 13/53/12 14/55/12 17/56/12
