# Blender v2.79 (sub 0) OBJ File: 'untitled.blend'
# www.blender.org
mtllib naturePack_120.mtl
o Mesh1_Brown_Cliff_End_Green_Top_Model
v -0.280000 2.200001 -3.000000
v 0.500000 0.000000 -3.000000
v -0.640000 0.000000 -3.000000
v 0.500000 2.200001 -3.000000
v -0.133829 2.200001 -2.387190
v 0.500000 2.200001 -2.387190
v -0.160571 2.036581 -2.387190
v 0.500000 2.036581 -2.387190
v 0.500000 2.036580 -1.924320
v -0.306742 2.036580 -1.924320
v -0.640000 0.000000 -1.924320
v -0.360574 1.707600 -1.924320
v -0.277341 0.000000 -1.274920
v -0.055886 1.353340 -1.274920
v 0.002085 1.707600 -1.274920
v 0.500000 1.707600 -1.274920
v 0.500000 1.353340 -1.274920
v 0.500000 1.353340 -0.701031
v -0.418545 1.353340 -0.701031
v -0.503558 0.833814 -0.701031
v -0.640000 0.000000 -0.701031
v -0.521050 0.000000 -0.371864
v 0.500000 0.000000 -0.000000
v -0.640000 -0.000000 -0.000000
v -0.595655 0.270999 0.000000
v 0.500000 0.270999 0.000000
v 0.500000 0.270999 -0.371864
v 0.500000 0.833814 -0.371864
v 0.500000 0.833814 -0.701031
v 0.500000 1.707600 -1.924320
v -0.384608 0.833814 -0.371864
v -0.476705 0.270999 -0.371864
v -0.493829 0.000000 -2.387190
vt 11.023600 86.614197
vt -19.684999 -0.000000
vt 25.196899 -0.000000
vt -19.684999 86.614197
vt -6.321690 80.180298
vt 19.684999 86.614197
vt -5.268870 86.614197
vt 19.684999 80.180298
vt -64.656403 -7.221720
vt -68.607300 73.928802
vt -87.717796 73.928802
vt -67.969101 60.820400
vt -49.146900 2.113000
vt -73.066498 70.024200
vt -78.430298 2.113000
vt -44.895901 55.934898
vt -43.783001 70.024200
vt -2.200240 53.280899
vt 19.684999 67.228500
vt 0.082099 67.228500
vt 19.684999 53.280899
vt -41.256001 48.849300
vt -12.740700 28.200899
vt -14.528700 48.849300
vt -9.871100 -4.938980
vt -36.598400 -4.938980
vt 10.918900 50.193600
vt 20.513800 14.640300
vt 25.196899 27.599600
vt -19.684999 0.000000
vt 25.196899 0.000000
vt 19.684999 0.000000
vt -23.451000 10.669300
vt -25.196899 -0.000000
vt 19.684999 10.669300
vt 118.110001 0.000000
vt 0.000000 10.669300
vt 0.000000 0.000000
vt 14.640300 10.669300
vt 14.640300 32.827301
vt 27.599600 32.827301
vt 27.599600 53.280899
vt 50.193600 53.280899
vt 50.193600 67.228500
vt 75.760399 67.228500
vt 75.760399 80.180298
vt 93.983902 80.180298
vt 93.983902 86.614197
vt 118.110001 86.614197
vt 19.684999 80.180298
vt -14.195800 67.228500
vt 19.684999 67.228500
vt -12.076400 80.180298
vt 19.684999 53.280899
vt -19.825100 32.827301
vt 19.684999 32.827301
vt -16.478201 53.280899
vt -15.142000 32.827301
vt 19.684999 10.669300
vt 19.684999 32.827301
vt -18.767900 10.669300
vt -32.694500 31.036100
vt -20.147301 8.617140
vt -18.915001 31.036100
vt -20.740601 -2.177710
vt -34.520199 -2.177710
vt 7.676670 -3.695780
vt -8.226320 7.102270
vt -7.694400 -3.695780
vt 7.144760 7.102270
vt -19.684999 118.110001
vt 19.442101 93.983902
vt 25.196899 118.110001
vt -95.930199 0.454960
vt -117.445000 88.159500
vt -120.733002 0.454960
vt -92.886002 81.644600
vt -92.641701 88.159500
vt -83.766899 -7.221720
vt 25.196899 75.760399
vt -5.268870 93.983902
vt 19.684999 118.110001
vt -11.023600 118.110001
vt 19.684999 93.983902
vt -6.321690 93.983902
vt 19.684999 75.760399
vt 19.684999 93.983902
vt -12.076400 75.760399
vt -2.200240 50.193600
vt 19.684999 27.599600
vt 19.684999 50.193600
vt -16.478201 27.599600
vt 0.082099 50.193600
vt 19.684999 75.760399
vt -14.195800 75.760399
vt 19.684999 50.193600
vt -15.142000 14.640300
vt 19.684999 27.599600
vt -19.825100 27.599600
vt 19.684999 14.640300
vt 19.684999 0.000000
vt -18.767900 14.640300
vt -23.451000 -0.000000
vt 19.684999 14.640300
vn 0.0000 0.0000 -1.0000
vn 0.0000 -0.0000 1.0000
vn -0.9422 0.1542 -0.2973
vn -0.9422 0.1542 -0.2975
vn -0.8483 0.1531 -0.5070
vn -0.8643 0.1414 0.4827
vn -0.8374 0.1370 -0.5292
vn -0.0000 -1.0000 -0.0000
vn 1.0000 -0.0000 0.0000
vn -0.9295 0.1521 0.3359
vn -0.9411 0.1540 -0.3010
vn -0.9606 0.1572 0.2291
vn 0.0000 1.0000 0.0000
usemtl Wood.071
s 1
f 1/1/1 2/2/1 3/3/1
f 2/2/1 1/1/1 4/4/1
f 7/5/2 6/6/2 5/7/2
f 6/6/2 7/5/2 8/8/2
f 11/9/3 10/10/3 7/11/4
f 10/10/3 11/9/3 12/12/5
f 13/13/6 12/14/6 11/15/6
f 14/16/6 12/14/6 13/13/6
f 12/14/6 14/16/6 15/17/6
f 14/18/2 16/19/2 15/20/2
f 16/19/2 14/18/2 17/21/2
f 14/22/7 20/23/7 19/24/7
f 20/23/7 14/22/7 21/25/7
f 21/25/7 14/22/7 13/26/7
f 13/27/8 22/28/8 21/29/8
f 23/30/8 22/28/8 13/27/8
f 22/28/8 23/30/8 24/31/8
f 23/32/2 25/33/2 24/34/2
f 25/33/2 23/32/2 26/35/2
f 2/36/9 26/37/9 23/38/9
f 26/37/9 2/36/9 27/39/9
f 27/39/9 2/36/9 28/40/9
f 28/40/9 2/36/9 29/41/9
f 29/41/9 2/36/9 18/42/9
f 18/42/9 2/36/9 17/43/9
f 17/43/9 2/36/9 16/44/9
f 16/44/9 2/36/9 30/45/9
f 30/45/9 2/36/9 9/46/9
f 9/46/9 2/36/9 8/47/9
f 8/47/9 2/36/9 6/48/9
f 6/48/9 2/36/9 4/49/9
f 9/50/2 12/51/2 30/52/2
f 12/51/2 9/50/2 10/53/2
f 18/54/2 20/55/2 29/56/2
f 20/55/2 18/54/2 19/57/2
f 31/58/2 27/59/2 28/60/2
f 27/59/2 31/58/2 32/61/2
f 20/62/10 32/63/10 31/64/10
f 32/63/10 20/62/10 22/65/10
f 22/65/10 20/62/10 21/66/10
f 24/67/11 32/68/11 22/69/11
f 32/68/11 24/67/11 25/70/11
f 23/30/8 13/27/8 2/71/8
f 33/72/8 2/71/8 13/27/8
f 2/71/8 33/72/8 3/73/8
f 33/74/12 1/75/12 3/76/12
f 7/77/12 1/75/12 33/74/12
f 1/75/12 7/77/12 5/78/12
f 11/9/3 7/11/4 33/79/4
f 13/27/8 11/80/8 33/72/8
usemtl Leafs.045
f 5/81/13 4/82/13 1/83/13
f 4/82/13 5/81/13 6/84/13
f 7/85/13 9/86/13 8/87/13
f 9/86/13 7/85/13 10/88/13
f 14/89/13 18/90/13 17/91/13
f 18/90/13 14/89/13 19/92/13
f 15/93/13 30/94/13 12/95/13
f 30/94/13 15/93/13 16/96/13
f 31/97/13 29/98/13 20/99/13
f 29/98/13 31/97/13 28/100/13
f 26/101/13 32/102/13 25/103/13
f 32/102/13 26/101/13 27/104/13
