# Blender v2.79 (sub 0) OBJ File: 'untitled.blend'
# www.blender.org
mtllib naturePack_029.mtl
o Mesh1_Tall_Rock_1_Model
v 0.614878 1.590000 -0.259859
v 0.259786 1.590000 -0.669884
v 0.259786 1.590000 -0.464872
v 0.538243 1.590000 -0.811308
v 0.969970 1.590000 -0.669884
v 0.969970 1.590000 -0.464872
v 0.614878 0.740000 -0.177500
v 1.076040 0.740000 -0.443750
v 0.614878 0.000000 0.000000
v 1.229760 0.000000 -0.355000
v 1.229760 0.000000 -1.065000
v 0.614878 0.000000 -1.420000
v 0.000000 0.000000 -0.355000
v 0.000000 0.000000 -1.065000
v 0.153720 0.740000 -0.443750
v 0.153720 0.740000 -0.710000
v 0.515353 0.740000 -0.893667
v 1.076040 0.740000 -0.710000
v 1.076040 0.740000 -0.976250
v 0.614878 0.740000 -1.242500
v 0.153720 0.740000 -0.976250
vt 24.207800 10.230700
vt 21.190701 31.941200
vt 10.227800 26.373400
vt 10.227800 18.302000
vt -28.080299 59.298500
vt -31.556999 25.716900
vt -8.328640 25.716900
vt -10.194500 59.298500
vt -6.988190 2.461780
vt 20.964600 2.461780
vt 17.470501 32.217602
vt -3.494090 32.217602
vt -24.207800 0.000000
vt -48.415600 41.929100
vt -48.415600 13.976400
vt 18.302000 57.388100
vt 17.470501 23.664000
vt 27.952801 23.664000
vt 26.373400 57.388100
vt -24.207800 55.905499
vt 0.000000 13.976400
vt 0.000000 41.929100
vt 17.470501 19.908701
vt 13.976400 -9.847110
vt 41.929100 -9.847110
vt 27.952801 19.908701
vt -21.061701 60.443802
vt -33.357399 60.443802
vt -34.022202 26.816999
vt -18.053699 26.816999
vt -3.494090 30.549999
vt 17.470501 30.549999
vt 15.849200 64.132202
vt -0.293488 64.132202
vt -20.964600 -12.308900
vt 6.988190 -12.308900
vt 3.494090 17.446899
vt -17.470501 17.446899
vt -18.302000 63.383099
vt -26.373400 63.383099
vt -27.952801 29.659000
vt -17.470501 29.659000
vt 42.363602 27.952801
vt 42.363602 38.435001
vt 24.207800 48.917301
vt 20.289499 35.183701
vt 38.435001 19.908701
vt -48.917301 -7.385330
vt -20.964600 -7.385330
vt -24.458700 22.370501
vt -45.423199 22.370501
vt 20.964600 -2.461780
vt 48.917301 -2.461780
vt 45.423199 27.294001
vt 24.458700 27.294001
vt -41.929100 -0.000000
vt -27.952801 29.755800
vt -38.435001 29.755800
vt 6.051950 38.435001
vt 6.051950 27.952801
vt 38.187801 18.302000
vt 38.187801 26.373400
vt 24.458700 28.525801
vt 45.423199 28.525801
vt 42.222599 62.108002
vt 26.079901 62.108002
vt -17.470501 29.755800
vt -13.976400 -0.000000
vn -0.0000 1.0000 0.0000
vn 0.3102 0.0834 -0.9470
vn -0.4895 0.2034 0.8479
vn -0.4948 0.1438 0.8570
vn -0.4948 0.1437 0.8570
vn -0.0000 -1.0000 -0.0000
vn 0.9923 0.1238 0.0000
vn 0.9865 0.1638 0.0000
vn 0.9865 0.1637 -0.0000
vn 0.9791 0.2034 0.0000
vn -0.4506 0.0981 -0.8873
vn -0.4982 0.0836 0.8630
vn 0.4895 0.2034 -0.8479
vn -0.9923 0.1238 0.0000
vn -0.9865 0.1637 -0.0000
vn -0.9865 0.1638 0.0000
vn -0.4895 0.2034 -0.8479
vn 0.4895 0.2034 0.8479
vn 0.4948 0.1438 0.8570
vn -0.9791 0.2034 0.0000
vn 0.4982 0.0836 0.8630
usemtl Stone.008
s 1
f 1/1/1 4/2/1 2/3/1 3/4/1
f 5/5/2 18/6/2 17/7/2 4/8/2
f 13/9/3 9/10/3 7/11/4 15/12/5
f 9/13/6 11/14/6 10/15/6
f 6/16/7 8/17/8 18/18/9 5/19/7
f 12/20/6 13/21/6 14/22/6
f 8/23/8 10/24/10 11/25/10 18/26/9
f 2/27/11 4/28/11 17/29/11 16/30/11
f 15/31/5 7/32/4 1/33/12 3/34/12
f 11/35/13 12/36/13 20/37/13 19/38/13
f 3/39/14 2/40/14 16/41/15 15/42/16
f 18/43/1 19/44/1 20/45/1 17/46/1
f 18/26/9 11/25/10 19/47/10
f 12/48/17 14/49/17 21/50/17 20/51/17
f 9/52/18 10/53/18 8/54/19 7/55/19
f 14/56/20 16/57/15 21/58/20
f 17/46/1 21/59/1 16/60/1
f 21/59/1 17/46/1 20/45/1
f 1/1/1 6/61/1 5/62/1 4/2/1
f 7/63/19 8/64/19 6/65/21 1/66/21
f 15/67/16 16/57/15 14/56/20 13/68/20
f 13/21/6 12/20/6 11/14/6 9/13/6
