# Blender v2.79 (sub 0) OBJ File: 'untitled.blend'
# www.blender.org
mtllib naturePack_063.mtl
o Mesh1_Group1_Model.048
v 1.766370 2.837300 -1.596110
v 1.282160 2.770100 -1.233500
v 1.157860 2.837300 -1.244789
v 1.282870 2.744800 -1.202640
v 1.284650 2.691040 -1.137240
v 1.766370 2.691040 -1.415349
v 2.446960 2.837300 -1.203169
v 2.290420 2.691040 -1.112790
v 2.290420 2.691040 -0.507663
v 2.446960 2.837300 -0.417287
v 1.766370 2.837300 -0.024346
v 1.280280 2.837300 -1.244789
v 1.280280 2.837300 -0.952863
v 1.085770 2.837300 -0.417287
v 1.085770 2.837300 -0.952863
v 1.085770 3.170430 -1.027449
v 1.085770 3.170430 -0.417286
v 1.766370 3.170430 -0.024346
v 1.242310 2.691040 -0.507663
v 1.766370 2.691040 -0.205099
v 1.284650 2.691040 -0.937932
v 1.242310 2.691040 -0.937932
v 1.184770 2.744800 -0.932153
v 0.985773 2.744800 -0.932153
v 1.018450 3.914000 -1.193929
v 1.270970 3.170430 -1.027449
v 1.282870 2.744800 -0.932153
v 0.971935 2.327960 -0.976965
v 0.985773 2.744800 -1.229249
v 0.971935 2.327960 -1.301740
v 1.056610 2.327960 -1.301740
v 1.282870 2.744800 -1.229249
v 1.216960 2.152890 -1.332180
v 1.216960 1.811100 -1.391620
v 1.335060 1.172700 -1.502640
v 1.143370 1.718280 -1.407760
v 1.035380 1.661040 -1.417710
v 0.949794 1.661040 -1.417710
v 0.933581 1.172700 -1.502640
v 1.395020 0.000000 -1.562600
v 0.873620 0.000000 -1.562600
v 0.873620 0.000000 -1.041200
v 1.395020 0.000000 -1.041200
v 1.335060 1.172700 -1.101160
v 1.018450 3.914000 -1.425669
v 0.260894 3.914000 -0.805526
v 1.134320 3.914000 -0.301253
v 1.250190 3.914000 -1.193929
v 1.266880 3.316890 -1.060239
v 1.296760 3.341060 -0.539097
v 1.270970 3.170430 -1.300750
v 1.766370 3.170430 -1.596110
v 1.254790 3.170430 -1.300750
v 1.270810 3.176220 -1.301720
v 1.266880 3.316890 -1.098609
v 1.296760 3.341060 -1.081359
v 1.766370 3.341060 -0.267969
v 1.766370 3.341060 -1.352479
v 2.235970 3.341060 -0.539097
v 2.446960 3.170430 -0.417286
v 2.446960 3.170430 -1.203169
v 2.235970 3.341060 -1.081359
v 1.250190 3.914000 -1.425669
v 1.134320 3.914001 -2.318349
v 0.260894 3.914000 -1.814069
v 0.000000 4.157760 -0.654899
v 0.000000 4.157761 -1.964699
v 0.000000 4.712980 -1.964699
v 0.000000 4.712980 -0.654899
v 1.134320 4.712980 0.000001
v 1.134320 4.157760 0.000001
v 2.268640 4.157760 -0.654899
v 2.007750 3.914000 -0.805526
v 2.007750 3.914000 -1.814069
v 2.268640 4.157761 -1.964699
v 1.134320 4.157761 -2.619599
v 1.134320 4.712980 -2.619599
v 0.351639 4.997360 -0.857918
v 0.351639 4.997361 -1.761679
v 1.134320 4.997360 -0.406037
v 1.134320 4.997361 -2.213559
v 1.917000 4.997360 -0.857918
v 2.268640 4.712980 -0.654899
v 2.268640 4.712980 -1.964699
v 1.917000 4.997361 -1.761679
v 1.216960 1.811100 -1.032530
v 0.933581 1.172700 -1.101160
v 1.097990 1.661040 -1.048660
v 1.097990 1.661040 -0.921667
v 1.216960 1.811100 -0.852981
v 1.216960 2.152890 -0.852981
v 1.216960 2.152890 -0.995786
v 0.966123 2.152890 -0.995786
v 0.954775 1.811100 -1.032530
v 0.966123 2.152890 -1.332180
v 0.954775 1.811100 -1.391620
v 1.056610 2.327960 -0.976965
v 1.056610 2.327960 -0.945558
v 0.699707 2.327960 -0.739500
v 0.699707 2.152890 -0.554347
v 0.342805 2.327960 -0.945558
v 0.182457 2.152890 -0.852981
v 0.182457 2.152890 -1.450250
v 0.342805 2.327960 -1.357670
v 0.699707 2.327960 -1.563730
v 1.056610 2.327960 -1.357670
v 1.216960 2.152890 -1.450250
v 1.216960 1.811100 -1.450250
v 0.699707 1.811100 -1.748880
v 0.699707 1.811100 -0.554347
v 0.182457 1.811100 -0.852981
v 0.182457 1.811100 -1.450250
v 0.301425 1.661040 -0.921667
v 0.301425 1.661040 -1.381560
v 0.699707 1.661040 -1.611510
v 0.699707 2.152890 -1.748880
v 0.699707 1.661040 -0.691719
v 0.949794 1.661040 -1.048660
vt 42.747002 117.202003
vt 38.810001 113.470001
vt 46.644600 113.470001
vt 40.096600 160.641998
vt 42.747002 130.641998
vt 50.038200 130.641998
vt 50.404800 117.202003
vt 50.506599 113.470001
vt 46.644600 103.521004
vt 50.576801 101.392998
vt 50.506599 103.521004
vt 48.909801 101.392998
vt 38.810001 103.521004
vt 38.265099 87.015602
vt -48.395500 109.291000
vt -38.463200 92.871201
vt -36.698898 109.291000
vt -51.249500 92.871201
vt -38.810001 98.173500
vt -41.598801 81.516098
vt -38.265099 81.516098
vt -50.506599 98.173500
vt -47.911701 74.520401
vt -47.911701 60.861900
vt -52.561401 35.350800
vt -45.014400 57.152599
vt -40.762798 54.865501
vt -37.393398 54.865501
vt -36.755199 35.350800
vt -54.922100 -3.141440
vt -36.755199 43.088200
vt -52.561401 43.088200
vt -34.394501 -3.141440
vt -54.922100 61.519699
vt -34.394501 40.992100
vt -34.394501 61.519699
vt -54.922100 40.992100
vt 61.519699 -2.804540
vt 43.352798 43.425098
vt 40.992100 -2.804540
vt 59.159000 43.425098
vt 44.773102 104.209999
vt 43.352798 44.399799
vt 59.159000 44.399799
vt 36.926498 104.209999
vt 47.348099 106.328003
vt 36.698898 106.328003
vt 47.348099 106.610001
vt 37.514301 110.252998
vt 36.698898 106.610001
vt 49.007301 110.252998
vt 48.562801 107.606003
vt 48.395500 106.610001
vt 48.395500 106.328003
vt -50.506599 114.586998
vt -45.584999 118.279999
vt -50.478699 115.597000
vt -38.810001 114.586998
vt -40.096600 161.264008
vt -48.395500 109.105003
vt -47.005299 155.154999
vt -56.128601 155.154999
vt -36.698898 109.105003
vt 49.876999 136.550995
vt 49.219898 160.641998
vt -50.404800 118.279999
vt -49.401299 131.578995
vt -50.038200 131.578995
vt -50.031799 131.811005
vt 43.252201 129.141998
vt 51.210701 123.373001
vt 51.249001 123.601997
vt 41.741901 129.141998
vt 40.450802 123.373001
vt -49.219898 161.264008
vt 47.005299 152.658997
vt 56.128601 152.658997
vt 47.911701 66.549599
vt 52.561401 41.270901
vt 36.755199 41.270901
vt 43.227901 60.607800
vt 38.036301 80.083603
vt 47.911701 80.083603
vt 37.589600 66.549599
vt -52.448101 85.974998
vt -40.650799 72.511101
vt -39.204201 85.974998
vt -54.788200 72.511101
vt -38.036301 74.520401
vt -37.589600 60.861900
vt 41.598801 87.015602
vt 37.393398 60.607800
vt -55.815498 66.600197
vt -43.352798 47.363400
vt -41.285900 66.600197
vt -59.159000 47.363400
vt -61.519699 1.756320
vt -43.352798 47.985901
vt -59.159000 47.985901
vt -40.992100 1.756320
vt 34.394501 2.093220
vt 52.561401 48.322800
vt 36.755199 48.322800
vt 54.922100 2.093220
vt -91.644501 90.618301
vt -67.997299 86.742897
vt -63.981499 90.618301
vt -67.414001 85.284203
vt -66.187401 82.184196
vt -88.086403 82.184196
vt -59.745800 141.432999
vt -32.363800 132.998001
vt -28.805700 141.432999
vt -56.187698 132.998001
vt 47.368801 146.654007
vt 19.986700 138.220001
vt 43.810699 138.220001
vt 16.428600 146.654007
vt -69.541901 0.958538
vt -96.336899 47.368801
vt -96.336899 16.428600
vt -69.541901 62.838902
vt -50.404800 49.007301
vt -50.404800 37.514301
vt -42.747002 16.428600
vt -42.747002 37.514301
vt -16.428600 111.705002
vt -40.450802 124.820000
vt -37.514301 111.705002
vt -16.428600 124.820000
vt 28.805700 111.705002
vt 59.745800 124.820000
vt 28.805700 124.820000
vt 59.745800 111.705002
vt 32.363800 41.812901
vt 59.745800 50.247101
vt 28.805700 50.247101
vt 56.187698 41.812901
vt -48.909801 19.986700
vt -50.576801 36.926498
vt -69.541901 8.074770
vt -48.909801 36.926498
vt -19.986700 36.591499
vt -36.698898 39.691502
vt -36.926498 36.591499
vt -16.428600 45.025600
vt -37.514301 45.025600
vt -40.096600 47.005299
vt -10.271400 31.713699
vt -40.096600 56.128601
vt -44.658298 11.860400
vt -49.219898 47.005299
vt -40.450802 111.727997
vt -21.224300 122.411003
vt -41.741901 120.898003
vt -16.428600 111.727997
vt 69.541901 0.958538
vt 42.747002 40.450802
vt 42.747002 16.428600
vt 50.038200 40.450802
vt 50.038200 51.210701
vt 69.541901 62.838902
vt 49.401299 51.210701
vt -91.644501 111.705002
vt -68.388100 124.820000
vt -91.644501 124.820000
vt -63.981499 111.705002
vt -45.584999 49.007301
vt -43.252201 120.898003
vt -42.573002 122.411003
vt 69.541901 10.550000
vt 51.053398 42.573002
vt 51.053398 21.224300
vt 69.541901 53.247398
vt 88.030502 21.224300
vt 65.500099 62.782501
vt 91.644501 52.099602
vt 86.848801 62.782501
vt 60.704399 52.099602
vt 33.601398 116.855003
vt 59.745800 106.171997
vt 54.950100 116.855003
vt 28.805700 106.171997
vt 96.336899 16.428600
vt 60.704399 111.705002
vt 91.644501 124.820000
vt 60.704399 124.820000
vt 91.644501 111.705002
vt 64.262497 92.627098
vt 91.644501 101.060997
vt 60.704399 101.060997
vt 88.086403 92.627098
vt -90.174103 43.810699
vt -90.174103 19.986700
vt -69.541901 55.722599
vt -50.576801 44.773102
vt 47.368801 111.705002
vt 16.428600 124.820000
vt 16.428600 111.705002
vt 47.368801 124.820000
vt -59.745800 111.705002
vt -28.805700 124.820000
vt -59.745800 124.820000
vt -28.805700 111.705002
vt 96.336899 47.368801
vt 42.573002 14.266700
vt 16.428600 3.583830
vt 47.368801 3.583830
vt 21.224300 14.266700
vt 88.030502 42.573002
vt -54.950100 19.823000
vt -28.805700 9.140080
vt -33.601398 19.823000
vt -59.745800 9.140080
vt -91.644501 63.212101
vt -65.500099 73.894997
vt -86.848801 73.894997
vt -68.953300 63.574902
vt -68.388100 63.212101
vt -44.658298 91.273499
vt -49.219898 56.128601
vt -10.271400 71.420197
vt -25.783501 111.751999
vt -71.420197 97.695099
vt -31.713699 97.695099
vt -77.350403 111.751999
vt -25.783501 163.690994
vt -77.350403 185.550003
vt -77.350403 163.690994
vt -25.783501 185.550003
vt -12.891700 163.690994
vt 38.675201 185.550003
vt -12.891700 185.550003
vt 38.675201 163.690994
vt -6.961540 81.379204
vt 38.675201 95.436203
vt -12.891700 95.436203
vt 32.744999 81.379204
vt 44.605400 114.011002
vt 90.242104 128.067993
vt 38.675201 128.067993
vt 84.311897 114.011002
vt -79.045097 31.713699
vt -79.045097 71.420197
vt 6.961540 179.274002
vt -38.675201 193.330994
vt -32.744999 179.274002
vt 12.891700 193.330994
vt -44.605400 146.643005
vt -90.242104 160.699997
vt -84.311897 146.643005
vt -38.675201 160.699997
vt -38.675201 185.550003
vt -90.242104 163.690994
vt -38.675201 163.690994
vt -90.242104 185.550003
vt 0.000000 77.350403
vt 44.658298 0.000000
vt 44.658298 103.134003
vt 0.000000 25.783501
vt -33.776299 134.483994
vt -77.350403 116.679001
vt -25.783501 116.679001
vt -69.357498 134.483994
vt 44.658298 15.985700
vt 13.844100 69.357498
vt 13.844100 33.776299
vt 44.658298 87.148102
vt 75.472504 33.776299
vt 46.668098 117.122002
vt 90.242104 99.317001
vt 82.249298 117.122002
vt 38.675201 99.317001
vt -4.898860 151.845993
vt 38.675201 134.041000
vt 30.682301 151.845993
vt -12.891700 134.041000
vt 89.316498 25.783501
vt 90.242104 185.550003
vt 90.242104 163.690994
vt -44.658298 0.000000
vt -89.316498 77.350403
vt -89.316498 25.783501
vt -44.658298 103.134003
vt 0.000000 25.783501
vt 0.000000 77.350403
vt 12.891700 185.550003
vt -38.675201 163.690994
vt 12.891700 163.690994
vt -38.675201 185.550003
vt 89.316498 77.350403
vt 25.783501 185.550003
vt 77.350403 163.690994
vt 77.350403 185.550003
vt 25.783501 163.690994
vt 31.713699 162.959000
vt 77.350403 177.014999
vt 25.783501 177.014999
vt 71.420197 162.959000
vt 69.357498 65.036102
vt 25.783501 47.231201
vt 77.350403 47.231201
vt 33.776299 65.036102
vt 75.472504 69.357498
vt -30.682301 47.674099
vt 12.891700 29.869301
vt 4.898860 47.674099
vt -38.675201 29.869301
vt -90.242104 64.593201
vt -46.668098 82.398003
vt -82.249298 82.398003
vt -38.675201 64.593201
vt -64.820900 72.382103
vt 40.650799 85.639099
vt 36.286098 78.099998
vt 41.285900 78.099998
vt 33.581902 85.639099
vt 40.650799 71.303200
vt 33.581902 84.759598
vt 33.581902 71.303200
vt 39.204201 84.759598
vt 37.226700 39.489498
vt 39.204201 30.143000
vt 38.463200 39.489498
vt 33.581902 30.143000
vt 38.414001 75.313301
vt 58.283699 65.966797
vt 54.639000 75.313301
vt 34.769199 65.966797
vt -6.925250 93.919701
vt 12.944500 84.573196
vt 9.299770 93.919701
vt -10.570000 84.573196
vt -37.226700 76.702301
vt -57.096500 67.355797
vt -33.581902 67.355797
vt -53.451698 76.702301
vt 27.547501 29.114201
vt 13.496300 53.451698
vt 13.496300 37.226700
vt 27.547501 61.564201
vt 38.265099 38.463200
vt 41.598801 37.226700
vt 41.598801 38.463200
vt 38.265099 51.249500
vt 41.598801 53.451698
vt 41.598801 51.249500
vt 52.448101 30.143000
vt 53.451698 39.489498
vt 51.249500 39.489498
vt 57.096500 30.143000
vt 54.788200 71.303200
vt 57.096500 84.759598
vt 52.448101 84.759598
vt 57.096500 71.303200
vt 57.096500 85.639099
vt 54.788200 85.639099
vt 55.423698 80.975502
vt -37.589600 54.788200
vt -47.911701 57.096500
vt -47.911701 54.788200
vt -27.547501 68.853699
vt -27.547501 21.824699
vt -7.183360 33.581902
vt -7.183360 57.096500
vt -57.096500 51.410900
vt -36.286098 43.871700
vt -33.581902 51.410900
vt -54.392300 43.871700
vt -34.769199 84.361603
vt -55.579601 76.822403
vt -37.473400 76.822403
vt -58.283699 84.361603
vt -34.769199 84.759598
vt -58.283699 71.303200
vt -34.769199 71.303200
vt -58.283699 84.759598
vt -38.414001 40.878399
vt -58.283699 31.531900
vt -34.769199 31.531900
vt -54.639000 40.878399
vt -9.299770 22.271999
vt 10.570000 12.925500
vt 6.925250 22.271999
vt -12.944500 12.925500
vt -12.944500 71.303200
vt 10.570000 84.759598
vt -12.944500 84.759598
vt 10.570000 71.303200
vt -11.271800 96.812103
vt 10.570000 101.475998
vt -12.944500 101.475998
vt -7.393850 93.936501
vt 7.865830 93.936501
vt -37.393398 55.815498
vt -27.547501 63.445400
vt -40.762798 55.815498
vt -27.547501 27.233000
vt -11.867100 36.286098
vt -11.867100 54.392300
vt 12.944500 35.574299
vt -7.865830 28.035101
vt 10.240400 28.035101
vt -10.570000 35.574299
vt 12.944500 84.759598
vt -10.570000 71.303200
vt 12.944500 71.303200
vt -10.570000 84.759598
vt -57.096500 84.759598
vt -33.581902 71.303200
vt -33.581902 84.759598
vt -57.096500 71.303200
vt 34.769199 71.303200
vt 58.283699 84.759598
vt 34.769199 84.759598
vt 58.283699 71.303200
vt 37.473400 45.149300
vt 58.283699 52.688400
vt 34.769199 52.688400
vt 55.579601 45.149300
vt -37.393398 41.285900
vt -43.227901 36.286098
vt -43.227901 41.285900
vt -47.911701 33.581902
vt -37.589600 40.650799
vt -47.911701 40.650799
vn -0.0000 0.2185 0.9758
vn 0.0000 -0.1069 0.9943
vn -0.9996 0.0274 0.0000
vn -0.9994 0.0332 0.0000
vn -0.9996 0.0281 -0.0000
vn 0.0000 0.1713 -0.9852
vn -0.0001 0.1713 -0.9852
vn 0.0000 0.0511 -0.9987
vn 0.0000 -1.0000 -0.0000
vn 0.9987 0.0511 0.0000
vn 0.9994 0.0332 0.0000
vn 0.9995 0.0314 0.0000
vn 0.9995 0.0331 0.0000
vn 0.9995 0.0306 0.0000
vn 0.9996 0.0280 0.0000
vn 0.9996 0.0280 -0.0001
vn 0.9996 0.0295 -0.0001
vn 0.0000 -0.1657 -0.9862
vn -0.9996 0.0279 0.0000
vn 0.0000 -0.1656 -0.9862
vn 0.9996 0.0279 0.0000
vn 0.9996 0.0276 0.0002
vn 0.0001 -0.1657 -0.9862
vn 0.0001 -0.1656 -0.9862
vn -0.9987 0.0511 0.0000
vn 0.0000 0.0511 0.9987
vn -0.3413 -0.7307 -0.5912
vn -0.3414 -0.7307 -0.5913
vn -0.3414 -0.7306 -0.5913
vn 0.3414 -0.7307 -0.5912
vn 0.6827 -0.7307 0.0000
vn -1.0000 0.0000 0.0000
vn -0.5000 0.0000 0.8660
vn -0.3414 -0.7307 0.5912
vn -0.3414 -0.7307 0.5913
vn -0.6827 -0.7307 0.0000
vn -0.6288 0.7776 -0.0000
vn -0.6289 0.7775 -0.0000
vn 0.0000 1.0000 0.0000
vn -0.5000 0.0000 -0.8660
vn 0.3144 0.7776 0.5446
vn 0.3144 0.7775 0.5446
vn -0.3144 0.7775 0.5446
vn 0.5000 -0.0000 0.8660
vn 0.3414 -0.7307 0.5912
vn 1.0000 0.0000 0.0000
vn 0.5000 0.0000 -0.8660
vn 0.6288 0.7776 0.0000
vn 0.3144 0.7776 -0.5446
vn 0.3144 0.7775 -0.5446
vn -0.3144 0.7776 -0.5446
vn -0.3145 0.7775 -0.5446
vn -0.3143 0.7778 -0.5443
vn -0.3144 0.7775 -0.5446
vn -0.3414 -0.7307 -0.5912
vn -0.6288 0.7775 0.0000
vn 0.6288 0.7775 0.0000
vn -0.3141 0.7777 -0.5446
vn 0.7836 -0.6213 0.0000
vn 0.7374 0.6754 0.0000
vn 0.3687 0.6754 0.6386
vn -0.3687 0.6754 0.6386
vn -0.7374 0.6754 0.0000
vn -0.7836 -0.6212 0.0000
vn -0.7836 -0.6213 0.0000
vn -0.3918 -0.6213 -0.6786
vn -0.3918 -0.6212 -0.6786
vn -0.3687 0.6754 -0.6386
vn 0.3687 0.6754 -0.6386
vn 0.3918 -0.6213 -0.6786
vn 0.3918 -0.6212 -0.6786
vn -0.3918 -0.6212 0.6786
vn -0.3918 -0.6213 0.6786
vn 0.3918 -0.6212 0.6786
vn 0.3918 -0.6213 0.6786
usemtl Wood.036
s 1
f 15/1/1 24/2/1 23/3/1
f 24/2/1 15/1/1 25/4/1
f 25/4/1 15/1/1 16/5/1
f 15/1/1 26/6/1 16/5/1
f 26/6/1 15/1/1 13/7/1
f 23/3/1 13/7/1 15/1/1
f 13/7/1 23/3/1 27/8/1
f 23/9/2 21/10/2 27/11/2
f 21/10/2 23/9/2 22/12/2
f 24/13/2 22/12/2 23/9/2
f 22/12/2 24/13/2 28/14/2
f 29/15/3 28/16/4 24/17/5
f 28/16/4 29/15/4 30/18/4
f 29/19/6 31/20/6 30/21/6
f 32/22/6 31/20/6 29/19/6
f 32/22/6 33/23/7 31/20/6
f 32/22/6 34/24/6 33/23/7
f 35/25/6 34/24/6 32/22/6
f 35/25/6 36/26/6 34/24/6
f 35/25/6 37/27/6 36/26/6
f 35/25/6 38/28/6 37/27/6
f 38/28/6 35/25/6 39/29/6
f 40/30/8 39/31/8 35/32/8
f 39/31/8 40/30/8 41/33/8
f 40/34/9 42/35/9 41/36/9
f 42/35/9 40/34/9 43/37/9
f 40/38/10 44/39/10 43/40/10
f 44/39/10 40/38/10 35/41/10
f 5/42/11 44/43/11 35/44/11
f 44/43/11 5/42/11 21/45/11
f 4/46/12 21/45/13 5/42/13
f 21/45/13 4/46/12 27/47/14
f 4/48/12 13/49/15 27/50/14
f 13/49/15 4/48/15 12/51/15
f 12/51/15 4/48/15 2/52/16
f 2/52/15 4/48/17 32/53/14
f 4/46/17 35/44/11 32/54/14
f 5/42/11 35/44/11 4/46/17
f 32/55/18 3/56/18 2/57/18
f 29/58/18 3/56/18 32/55/18
f 3/56/18 29/58/18 45/59/18
f 29/60/3 25/61/19 45/62/19
f 25/61/19 29/60/3 24/63/5
f 25/4/1 49/64/1 48/65/1
f 25/4/1 16/5/1 49/64/1
f 12/66/18 2/57/18 3/56/18
f 53/67/18 12/66/18 3/56/18
f 12/66/18 53/67/18 51/68/18
f 54/69/20 51/68/20 53/67/20
f 55/70/21 51/71/21 54/72/22
f 49/73/21 51/71/21 55/70/21
f 51/71/21 49/73/21 26/74/21
f 49/64/1 16/5/1 26/6/1
f 26/74/21 12/51/21 51/71/21
f 12/51/21 26/74/21 13/49/21
f 53/67/23 45/59/18 54/69/24
f 3/56/18 45/59/18 53/67/23
f 54/69/24 45/59/18 63/75/18
f 48/76/21 54/72/21 63/77/21
f 48/76/21 55/70/21 54/72/21
f 55/70/21 48/76/21 49/73/21
f 86/78/2 44/79/2 21/10/2
f 44/79/2 86/78/2 87/80/2
f 87/80/2 86/78/2 88/81/2
f 93/82/2 86/78/2 92/83/2
f 86/78/2 93/82/2 94/84/2
f 95/85/4 94/86/4 93/87/4
f 94/86/4 95/85/4 96/88/4
f 95/89/6 34/24/6 96/90/6
f 34/24/6 95/89/6 33/23/6
f 95/89/6 31/20/6 33/23/6
f 31/20/6 95/89/6 30/21/6
f 93/87/4 30/18/4 95/85/4
f 30/18/4 93/87/4 28/16/4
f 93/82/2 97/91/2 28/14/2
f 93/82/2 92/83/2 97/91/2
f 97/91/2 21/10/2 28/14/2
f 92/83/2 21/10/2 97/91/2
f 86/78/2 21/10/2 92/83/2
f 28/14/2 21/10/2 22/12/2
f 118/92/2 87/80/2 88/81/2
f 38/93/4 87/94/4 118/95/4
f 87/94/4 38/93/4 39/96/4
f 41/97/25 87/98/25 39/99/25
f 87/98/25 41/97/25 42/100/25
f 42/101/26 44/102/26 87/103/26
f 44/102/26 42/101/26 43/104/26
f 118/95/4 96/88/4 38/93/4
f 96/88/4 118/95/4 94/86/4
f 118/92/2 86/78/2 94/84/2
f 86/78/2 118/92/2 88/81/2
f 96/90/6 37/27/6 38/28/6
f 37/27/6 96/90/6 36/26/6
f 36/26/6 96/90/6 34/24/6
usemtl Leafs.012
f 1/105/27 2/106/27 3/107/27
f 2/106/27 1/105/27 4/108/28
f 4/108/28 1/105/27 5/109/29
f 5/109/29 1/105/27 6/110/27
f 7/111/30 6/112/30 1/113/30
f 6/112/30 7/111/30 8/114/30
f 7/115/31 9/116/31 8/117/31
f 9/116/31 7/115/31 10/118/31
f 11/119/9 7/120/9 10/121/9
f 11/119/9 1/122/9 7/120/9
f 11/119/9 12/123/9 1/122/9
f 11/119/9 13/124/9 12/123/9
f 14/125/9 13/124/9 11/119/9
f 13/124/9 14/125/9 15/126/9
f 14/127/32 16/128/32 15/129/32
f 16/128/32 14/127/32 17/130/32
f 14/131/33 18/132/33 17/133/33
f 18/132/33 14/131/33 11/134/33
f 19/135/34 11/136/34 14/137/34
f 11/136/34 19/135/34 20/138/35
f 19/139/9 21/140/9 20/141/9
f 21/140/9 19/139/9 22/142/9
f 19/143/36 23/144/36 22/145/36
f 14/146/36 23/144/36 19/143/36
f 23/144/36 14/146/36 15/147/36
f 25/148/9 46/149/9 45/150/9
f 46/149/9 25/148/9 47/151/9
f 47/151/9 25/148/9 48/152/9
f 16/153/37 50/154/37 49/155/38
f 50/154/37 16/153/37 17/156/37
f 18/157/39 16/158/39 17/159/39
f 16/158/39 18/157/39 26/160/39
f 26/160/39 18/157/39 51/161/39
f 52/162/39 51/161/39 18/157/39
f 51/161/39 52/162/39 53/163/39
f 1/164/40 53/165/40 52/166/40
f 53/165/40 1/164/40 3/167/40
f 1/122/9 12/123/9 3/168/9
f 49/155/38 50/154/37 55/169/38
f 55/169/38 50/154/37 56/170/38
f 57/171/39 56/172/39 50/173/39
f 56/172/39 57/171/39 58/174/39
f 58/174/39 57/171/39 59/175/39
f 57/176/41 60/177/41 59/178/41
f 60/177/42 57/176/42 18/179/42
f 50/180/43 18/181/43 57/182/43
f 18/181/43 50/180/43 17/183/43
f 52/162/39 18/157/39 60/184/39
f 11/185/44 60/186/44 18/187/44
f 60/186/44 11/185/44 10/188/44
f 20/189/45 10/190/45 11/191/45
f 10/190/45 20/189/45 9/192/45
f 20/141/9 8/193/9 9/194/9
f 20/141/9 6/195/9 8/193/9
f 20/141/9 5/196/9 6/195/9
f 20/141/9 21/140/9 5/196/9
f 7/197/46 60/198/46 10/199/46
f 60/198/46 7/197/46 61/200/46
f 7/201/47 52/202/47 61/203/47
f 52/202/47 7/201/47 1/204/47
f 52/162/39 60/184/39 61/205/39
f 62/206/48 60/207/48 61/208/48
f 60/207/48 62/206/48 59/209/48
f 58/174/39 59/175/39 62/210/39
f 62/211/49 52/212/49 58/213/49
f 52/212/50 62/211/50 61/214/50
f 52/215/51 56/216/52 58/217/51
f 52/215/51 54/218/53 56/216/52
f 54/218/53 52/215/51 53/219/54
f 45/150/9 64/220/9 63/221/9
f 46/149/9 64/220/9 45/150/9
f 64/220/9 46/149/9 65/222/9
f 66/223/36 65/224/36 46/225/36
f 65/224/36 66/223/36 67/226/36
f 66/227/32 68/228/32 67/229/32
f 68/228/32 66/227/32 69/230/32
f 66/231/33 70/232/33 69/233/33
f 70/232/33 66/231/33 71/234/33
f 46/235/34 71/236/34 66/237/34
f 71/236/34 46/235/34 47/238/34
f 47/239/45 72/240/45 71/241/45
f 72/240/45 47/239/45 73/242/45
f 47/151/9 48/152/9 73/243/9
f 73/243/9 48/152/9 74/244/9
f 63/221/9 74/244/9 48/152/9
f 63/221/9 64/220/9 74/244/9
f 64/245/30 75/246/30 74/247/30
f 75/246/30 64/245/30 76/248/30
f 65/249/55 76/250/55 64/251/55
f 76/250/55 65/249/55 67/252/55
f 68/253/40 76/254/40 67/255/40
f 76/254/40 68/253/40 77/256/40
f 68/257/39 70/258/39 77/259/39
f 70/258/39 68/257/39 69/260/39
f 78/261/56 68/262/56 69/263/56
f 68/262/56 78/261/56 79/264/56
f 80/265/39 79/266/39 78/267/39
f 79/266/39 80/265/39 81/268/39
f 81/268/39 80/265/39 82/269/39
f 80/270/42 83/271/42 82/272/42
f 83/271/42 80/270/42 70/273/42
f 78/274/43 70/275/43 80/276/43
f 70/275/43 78/274/43 69/277/43
f 77/259/39 70/258/39 83/278/39
f 71/234/44 83/279/44 70/232/44
f 83/279/44 71/234/44 72/280/44
f 71/281/9 75/282/9 72/283/9
f 71/281/9 76/284/9 75/282/9
f 66/285/9 76/284/9 71/281/9
f 76/284/9 66/285/9 67/286/9
f 77/287/47 75/288/47 76/289/47
f 75/288/47 77/287/47 84/290/47
f 77/259/39 83/278/39 84/291/39
f 83/292/46 75/293/46 84/294/46
f 75/293/46 83/292/46 72/295/46
f 73/296/31 75/297/31 72/298/31
f 75/297/31 73/296/31 74/299/31
f 85/300/57 83/301/57 84/302/57
f 83/301/57 85/300/57 82/303/57
f 81/268/39 82/269/39 85/304/39
f 85/305/50 77/306/50 81/307/50
f 77/306/50 85/305/50 84/308/50
f 77/309/54 79/310/54 81/311/54
f 79/310/54 77/309/54 68/312/54
f 56/216/52 54/218/53 55/313/58
f 25/148/9 63/221/9 48/152/9
f 63/221/9 25/148/9 45/150/9
f 86/314/59 89/315/59 88/316/59
f 89/315/59 86/314/59 90/317/59
f 86/318/46 91/319/46 90/320/46
f 91/319/46 86/318/46 92/321/46
f 98/322/60 92/323/60 97/324/60
f 92/323/60 98/322/60 91/325/60
f 99/326/61 91/327/61 98/328/61
f 91/327/61 99/326/61 100/329/61
f 101/330/62 100/331/62 99/332/62
f 100/331/62 101/330/62 102/333/62
f 101/334/63 103/335/63 102/336/63
f 103/335/63 101/334/63 104/337/63
f 99/338/39 104/339/39 101/340/39
f 104/339/39 99/338/39 105/341/39
f 105/341/39 99/338/39 28/342/39
f 28/342/39 99/338/39 98/343/39
f 28/342/39 98/343/39 97/344/39
f 30/345/39 105/341/39 28/342/39
f 105/341/39 30/345/39 106/346/39
f 106/346/39 30/345/39 31/347/39
f 33/348/60 106/349/60 31/350/60
f 106/349/60 33/348/60 107/351/60
f 34/352/46 107/353/46 33/354/46
f 107/353/46 34/352/46 108/355/46
f 108/356/59 34/357/59 36/358/59
f 96/359/9 108/360/9 34/361/9
f 96/359/9 109/362/9 108/360/9
f 110/363/9 109/362/9 96/359/9
f 111/364/9 109/362/9 110/363/9
f 109/362/9 111/364/9 112/365/9
f 112/366/64 113/367/64 111/368/64
f 113/367/65 112/366/65 114/369/65
f 112/370/66 115/371/67 114/372/66
f 115/371/67 112/370/66 109/373/67
f 103/374/40 109/375/40 112/376/40
f 109/375/40 103/374/40 116/377/40
f 104/378/68 116/379/68 103/380/68
f 116/379/68 104/378/68 105/381/68
f 106/382/69 116/383/69 105/384/69
f 116/383/69 106/382/69 107/385/69
f 108/386/47 116/387/47 107/388/47
f 116/387/47 108/386/47 109/389/47
f 36/390/70 109/391/70 108/392/70
f 37/393/71 109/391/70 36/390/70
f 109/391/71 37/393/71 115/394/71
f 38/395/9 115/396/9 37/397/9
f 117/398/9 115/396/9 38/395/9
f 113/399/9 115/396/9 117/398/9
f 115/396/9 113/399/9 114/400/9
f 110/401/72 113/402/72 117/403/72
f 113/402/72 110/401/72 111/404/73
f 100/405/33 111/406/33 110/407/33
f 111/406/33 100/405/33 102/408/33
f 103/409/32 111/410/32 102/411/32
f 111/410/32 103/409/32 112/412/32
f 110/413/44 91/414/44 100/415/44
f 91/414/44 110/413/44 90/416/44
f 117/417/74 90/418/75 110/419/74
f 90/418/75 117/417/74 89/420/75
f 118/421/9 89/422/9 117/398/9
f 89/422/9 118/421/9 88/423/9
f 117/398/9 38/395/9 118/421/9
f 90/424/9 94/425/9 86/426/9
f 94/425/9 90/424/9 110/363/9
f 110/363/9 96/359/9 94/425/9
