# Blender v2.79 (sub 0) OBJ File: 'untitled.blend'
# www.blender.org
mtllib naturePack_036.mtl
o Mesh1_Group1_Model.025
v 0.702520 1.790000 -0.241967
v 0.000000 0.000000 -0.743800
v 0.749402 0.000000 0.000000
v 0.252879 1.790000 -0.688247
v 0.477700 1.790000 -0.465107
v 0.715989 2.170000 -0.349351
v 0.563111 2.170000 -0.501086
v 0.732654 2.170000 -0.805732
v 0.926107 2.170000 -0.470662
v 1.011520 1.790000 -0.420366
v 1.264400 0.000000 -0.297333
v 1.264400 0.000000 -1.027330
v 0.316099 0.000000 -1.209830
v 0.000000 0.000000 -1.027330
v 0.252879 1.790000 -0.858366
v 0.442539 1.790000 -0.967866
v 0.727028 1.790000 -0.913116
v 1.011520 1.790000 -0.858366
v 0.926107 2.170000 -0.768502
vt 12.919800 72.289497
vt -20.628700 1.605790
vt 20.940599 1.605790
vt -12.021800 72.289497
vt 0.449036 72.289497
vt 10.318000 89.856300
vt 0.449036 74.519897
vt 12.919800 74.519897
vt 1.837830 89.856300
vt 28.715900 67.488800
vt 40.841099 82.830101
vt 31.289000 82.830101
vt 42.763100 67.488800
vt 25.551201 -1.904090
vt 42.763100 69.162804
vt 28.715900 69.162804
vt 48.963200 -1.904090
vt -29.504000 0.000000
vt -49.779400 40.446201
vt -49.779400 11.706000
vt -12.444900 47.631199
vt 0.000000 29.283501
vt 0.000000 40.446201
vt -29.283501 -0.000000
vt -33.793900 71.172203
vt -40.446201 -0.000000
vt -27.096300 71.172203
vt -28.018999 85.937401
vt -45.331699 70.808601
vt -25.146000 70.808601
vt -41.745201 85.937401
vt -22.330000 72.686203
vt -32.719501 57.171299
vt -21.313601 57.171299
vt -30.086000 72.686203
vt 18.530001 75.357903
vt 33.793900 60.023998
vt 30.256001 75.357903
vt 16.549900 60.023998
vt 16.549900 64.208900
vt 40.446201 -6.963360
vt 33.793900 64.208900
vt 11.706000 -6.963360
vt -41.238800 -5.823740
vt -9.907680 65.149200
vt -32.719501 65.149200
vt -3.219150 -5.823740
vt -34.593201 -5.276740
vt -25.518999 66.009201
vt -34.141102 66.009201
vt -20.223101 -5.276740
vt -21.313601 65.149200
vt 28.188499 13.754000
vt 28.844601 31.721701
vt 22.169701 19.727800
vt 36.460899 18.530001
vt 18.807100 18.311300
vt 9.955880 33.793900
vt 9.955880 27.096300
vt 17.422800 38.105000
vt 28.623199 35.949501
vt 36.460899 30.256001
vn -0.7023 0.0773 0.7076
vn -0.7001 -0.1753 0.6922
vn -0.6872 0.2200 0.6924
vn 0.4876 0.2214 0.8445
vn 0.4958 0.1291 0.8588
vn 0.0000 -1.0000 -0.0000
vn -0.9902 0.1399 0.0000
vn -0.8641 0.1487 -0.4809
vn 0.1822 0.2649 -0.9469
vn 0.9757 0.2193 0.0000
vn 0.9902 0.1399 0.0000
vn 0.1876 0.1185 -0.9751
vn 0.1877 0.1187 -0.9750
vn 0.1877 0.1183 -0.9751
vn -0.4943 0.1506 -0.8561
vn 0.1570 0.6425 -0.7500
vn -0.0000 1.0000 0.0000
usemtl Wood.022
s 1
f 1/1/1 2/2/1 3/3/1
f 2/2/1 1/1/1 4/4/1
f 4/4/1 1/1/1 5/5/2
f 6/6/3 5/7/3 1/8/3
f 5/7/3 6/6/3 7/9/3
f 1/10/4 9/11/4 6/12/4
f 9/11/4 1/10/4 10/13/4
f 3/14/5 10/15/5 1/16/5
f 10/15/5 3/14/5 11/17/5
f 3/18/6 12/19/6 11/20/6
f 3/18/6 13/21/6 12/19/6
f 2/22/6 13/21/6 3/18/6
f 13/21/6 2/22/6 14/23/6
f 2/24/7 15/25/7 14/26/7
f 15/25/7 2/24/7 4/27/7
f 7/28/8 17/29/8 5/30/8
f 17/29/8 7/28/8 8/31/8
f 8/32/9 18/33/9 17/34/9
f 18/33/9 8/32/9 19/35/9
f 9/36/10 18/37/10 19/38/10
f 18/37/10 9/36/10 10/39/10
f 10/40/11 12/41/11 18/42/11
f 12/41/11 10/40/11 11/43/11
f 12/44/12 16/45/13 18/46/14
f 16/45/13 12/44/12 13/47/12
f 13/48/15 15/49/15 16/50/15
f 15/49/15 13/48/15 14/51/15
f 18/46/14 16/45/13 17/52/16
usemtl Green_leafs.018
f 6/53/17 8/54/17 7/55/17
f 8/54/17 6/53/17 9/56/17
f 5/57/17 15/58/17 4/59/17
f 15/58/17 5/57/17 16/60/17
f 16/60/17 5/57/17 17/61/17
f 8/54/17 9/56/17 19/62/17
