# Blender v2.79 (sub 0) OBJ File: 'untitled.blend'
# www.blender.org
mtllib naturePack_125.mtl
o Mesh1_Brown_Waterfall_Top_Model
v -0.420000 0.290000 -3.000000
v 0.500000 0.000000 -3.000000
v -0.280000 0.000000 -3.000000
v 0.500000 0.290000 -3.000000
v -0.215291 0.290000 -3.000000
v -0.273829 0.290000 -2.387190
v -0.133829 0.000000 -2.387190
v -0.057341 0.000000 -1.274920
v 0.500000 0.000000 0.000000
v -0.161050 0.000000 -0.371864
v -0.280000 0.000000 0.000000
v 0.500000 0.290000 0.000000
v -0.420000 0.290000 0.000000
v -0.210938 0.290000 0.000000
v -0.090737 0.290000 -0.375774
v 0.500000 0.290000 -0.758698
v 0.500000 0.140000 -0.758698
v 0.500000 0.140000 -2.241300
v 0.500000 0.290000 -2.241300
v -0.067353 0.290000 -2.379780
v -0.111084 0.290000 -2.241300
v -0.319899 0.290000 -2.241300
v -0.247486 0.140000 -2.241300
v -0.179899 0.000000 -2.241300
v -0.319899 0.000000 -2.241300
v -0.420000 0.000000 -1.924320
v -0.057341 0.140000 -1.274920
v -0.420000 0.140000 -1.924320
v -0.319899 0.140000 -2.241300
v -0.243558 0.140000 -0.758698
v -0.311144 0.140000 -0.758698
v -0.383558 0.140000 -0.758698
v -0.383558 0.000000 -0.758698
v -0.243558 0.000000 -0.758698
v -0.280000 0.000000 -0.701031
v -0.301050 0.290000 -0.371864
v -0.420000 0.290000 -0.701031
v -0.383558 0.290000 -0.758698
v -0.199607 0.290000 -0.677046
v -0.148008 0.290000 -0.758698
vt 16.535400 11.417300
vt -19.684999 -0.000000
vt 11.023600 -0.000000
vt -19.684999 11.417300
vt 8.476010 11.417300
vt -8.476010 118.110001
vt -16.535400 118.110001
vt -10.780700 93.983902
vt -118.723999 5.523270
vt -92.641701 -7.090210
vt -93.920601 5.523270
vt -117.445000 -7.090210
vt -19.684999 118.110001
vt 5.268870 93.983902
vt 11.023600 118.110001
vt 2.257520 50.193600
vt -19.684999 -0.000000
vt 6.340550 14.640300
vt 11.023600 0.000000
vt 19.684999 11.417300
vt -11.023600 -0.000000
vt 19.684999 0.000000
vt -16.535400 11.417300
vt -8.304630 11.417300
vt 29.870001 11.417300
vt -0.000000 11.417300
vt 29.870001 5.511810
vt -0.000000 -0.000000
vt 118.110001 -0.000000
vt 88.240196 5.511810
vt 88.240196 11.417300
vt 118.110001 11.417300
vt -4.373370 88.240196
vt -2.651690 93.692299
vt -12.594500 88.240196
vt -88.034897 13.935700
vt -80.351799 26.504801
vt -86.375099 26.504801
vt -81.210297 20.003500
vt -82.011597 13.935700
vt 7.082660 88.240196
vt 12.594500 88.240196
vt 16.535400 75.760399
vt 9.588910 29.870001
vt 15.100700 29.870001
vt 11.023600 27.599600
vt -17.797001 12.947200
vt -29.703300 0.408251
vt -15.923800 0.408251
vt -31.576500 12.947200
vt -11.852400 14.640300
vt -15.100700 29.870001
vt -16.535400 27.599600
vt -7.858530 26.655300
vt -8.304630 -0.000000
vt -16.535400 -0.000000
vt -10.333300 16.952700
vt 3.358540 4.386300
vt 5.037820 16.952700
vt -12.012500 4.386300
vt -3.572320 14.794200
vt -19.684999 11.417300
vt 15.100700 11.417300
vt 5.827080 11.417300
vt -19.684999 5.511810
vt 9.588910 5.511810
vt 12.249800 5.511810
vt -20.128201 9.092080
vt -17.183800 21.423599
vt -18.706800 15.045200
vt -17.442499 9.092080
vt -14.498100 21.423599
vt -5.827080 29.870001
vt 19.684999 5.511810
vt -12.594500 11.417300
vt -9.743530 5.511810
vt 19.684999 11.417300
vt -4.373370 11.417300
vt -12.249800 5.511810
vt -9.588910 0.000000
vt -9.588910 5.511810
vt -44.923801 5.511810
vt -74.207199 -0.000000
vt -44.923801 -0.000000
vt -74.207199 5.511810
vt -2.257520 50.193600
vt -12.594500 88.240196
vt -16.535400 75.760399
vt -9.743530 88.240196
vt 19.684999 88.240196
vt 19.684999 29.870001
vt -9.588910 29.870001
vt -12.249800 29.870001
vt -15.100700 29.870001
vt -41.225399 5.511810
vt -17.183800 0.000000
vt -17.183800 5.511810
vt -41.225399 0.000000
vt -15.100700 0.000000
vt -15.100700 5.511810
vt 7.082660 0.000000
vt 12.594500 5.511810
vt 9.743530 5.511810
vt 12.594500 0.000000
vt -67.264603 0.000000
vt -80.351799 5.511810
vt -80.351799 0.000000
vt -67.264603 5.511810
vt 19.684999 -0.000000
vt 19.684999 29.870001
vt 19.684999 118.110001
vt 19.684999 88.240196
vn 0.0000 0.0000 -1.0000
vn 0.0000 0.0000 1.0000
vn -0.0000 1.0000 0.0000
vn -0.8805 -0.4251 0.2100
vn -0.0000 -1.0000 -0.0000
vn 1.0000 0.0000 0.0000
vn -0.8662 -0.4182 -0.2735
vn -0.8563 -0.4134 0.3095
vn -0.8654 -0.4178 -0.2768
vn -0.7827 -0.3778 -0.4946
vn -0.7824 -0.4083 -0.4703
vn -0.8731 0.0000 0.4876
vn -0.8454 0.0000 -0.5342
vn -0.9536 0.0000 -0.3011
usemtl Wood.076
s 1
f 1/1/1 2/2/1 3/3/1
f 2/2/1 1/1/1 4/4/1
f 4/4/1 1/1/1 5/5/2
f 5/6/3 1/7/3 6/8/3
f 1/9/4 7/10/4 6/11/4
f 7/10/4 1/9/4 3/12/4
f 2/13/5 7/14/5 3/15/5
f 7/14/5 2/13/5 8/16/5
f 9/17/5 8/16/5 2/13/5
f 9/17/5 10/18/5 8/16/5
f 10/18/5 9/17/5 11/19/5
f 12/20/2 11/21/2 9/22/2
f 11/21/2 12/20/2 13/23/2
f 13/23/2 12/20/2 14/24/2
f 16/25/6 12/26/6 17/27/6
f 9/28/6 17/27/6 12/26/6
f 17/27/6 9/28/6 2/29/6
f 17/27/6 2/29/6 18/30/6
f 18/30/6 2/29/6 19/31/6
f 19/31/6 2/29/6 4/32/6
f 5/6/3 21/33/3 20/34/3
f 6/8/3 21/33/3 5/6/3
f 21/33/3 6/8/3 22/35/3
f 7/36/7 22/37/7 6/38/7
f 7/36/7 23/39/7 22/37/7
f 23/39/7 7/36/7 24/40/7
f 8/16/5 24/41/5 7/14/5
f 8/16/5 25/42/5 24/41/5
f 25/42/5 8/16/5 26/43/5
f 8/16/5 34/44/5 33/45/5
f 34/44/5 8/16/5 10/18/5
f 10/18/5 35/46/5 34/44/5
f 36/47/8 35/48/8 10/49/8
f 35/48/8 36/47/8 37/50/8
f 36/51/3 38/52/3 37/53/3
f 38/52/3 36/51/3 39/54/3
f 39/54/3 36/51/3 14/55/3
f 14/55/3 36/51/3 13/56/3
f 36/57/9 11/58/9 13/59/9
f 11/58/9 36/57/9 10/60/9
f 15/61/3 39/54/3 14/55/3
f 16/62/1 38/63/1 40/64/1
f 17/65/1 38/63/1 16/62/1
f 30/66/1 38/63/1 17/65/1
f 38/63/1 30/66/1 31/67/1
f 34/68/10 38/69/10 31/70/11
f 35/71/10 38/69/10 34/68/10
f 38/69/10 35/71/10 37/72/10
f 38/52/3 39/54/3 40/73/3
f 18/74/2 22/75/2 23/76/2
f 22/75/2 18/74/2 19/77/2
f 22/75/2 19/77/2 21/78/2
usemtl Stone.035
f 31/79/2 34/80/2 30/81/2
usemtl Water.006
f 27/82/12 26/83/12 8/84/12
f 26/83/12 27/82/12 28/85/12
f 27/86/3 29/87/3 28/88/3
f 29/87/3 27/86/3 23/89/3
f 23/89/3 27/86/3 18/90/3
f 18/90/3 27/86/3 17/91/3
f 27/86/3 30/92/3 17/91/3
f 27/86/3 31/93/3 30/92/3
f 31/93/3 27/86/3 32/94/3
f 27/95/13 33/96/13 32/97/13
f 33/96/13 27/95/13 8/98/13
f 31/79/2 33/99/2 34/80/2
f 33/99/2 31/79/2 32/100/2
f 24/101/1 29/102/1 23/103/1
f 29/102/1 24/101/1 25/104/1
f 26/105/14 29/106/14 25/107/14
f 29/106/14 26/105/14 28/108/14
usemtl Leafs.046
f 12/109/3 15/61/3 14/55/3
f 15/61/3 12/109/3 16/110/3
f 4/111/3 20/34/3 19/112/3
f 20/34/3 4/111/3 5/6/3
f 15/61/3 40/73/3 39/54/3
f 40/73/3 15/61/3 16/110/3
f 19/112/3 20/34/3 21/33/3
