# Blender v2.79 (sub 0) OBJ File: 'untitled.blend'
# www.blender.org
mtllib naturePack_105.mtl
o Mesh1_Grey_Cliff_Corner_Model
v 0.780000 0.000000 0.000000
v 0.000000 0.000000 0.000000
v 0.780000 0.000000 -0.780000
v 0.780000 2.200000 0.000000
v 0.000000 2.200000 0.000000
v 0.780000 2.200000 -0.780000
vt -30.708700 0.000000
vt 0.000000 0.000000
vt -30.708700 30.708700
vt 30.708700 86.614197
vt 30.708700 0.000000
vt 0.000000 86.614197
vt 30.708700 30.708700
vt 0.000000 0.000000
vt 30.708700 0.000000
vt -43.428600 86.614197
vt -43.428600 0.000000
vt 0.000000 86.614197
vt 30.708700 0.000000
vt 30.708700 86.614197
vt 0.000000 0.000000
vn 0.0000 -1.0000 -0.0000
vn 0.0000 -0.0000 1.0000
vn 0.0000 1.0000 0.0000
vn -0.7071 0.0000 -0.7071
vn 1.0000 0.0000 0.0000
usemtl Stone.033
s 1
f 1/1/1 2/2/1 3/3/1
f 4/4/2 2/2/2 1/5/2
f 2/2/2 4/4/2 5/6/2
f 6/7/3 5/8/3 4/9/3
f 6/10/4 2/2/4 5/6/4
f 2/2/4 6/10/4 3/11/4
f 4/12/5 3/13/5 6/14/5
f 3/13/5 4/12/5 1/15/5
