# Blender v2.79 (sub 0) OBJ File: 'untitled.blend'
# www.blender.org
mtllib naturePack_035.mtl
o Mesh1_Group1_Model.024
v 1.264400 0.000000 -0.730000
v 0.831341 1.060000 -1.074920
v 1.030480 1.060000 -0.730000
v 0.948298 0.000000 -1.277500
v 1.264400 0.000000 -0.365000
v 0.632199 0.000000 0.000000
v 0.632199 0.000000 -1.460000
v 0.000000 0.000000 -1.095000
v 0.000000 0.000000 -0.365000
v 0.632199 1.060000 -0.270100
v 0.233913 1.060000 -0.500050
v 0.614923 1.230000 -0.367176
v 0.308244 1.230000 -0.544238
v 0.308244 1.230000 -0.898361
v 0.514017 1.230000 -1.017160
v 0.805934 1.230000 -0.477456
v 0.880264 1.060000 -0.413321
v 1.030480 1.060000 -0.500050
v 0.632199 1.060000 -1.189900
v 0.501152 1.060000 -1.114240
v 0.233913 1.060000 -0.959950
vt -0.000000 -10.789700
vt 20.285101 31.697800
vt 4.604600 31.697800
vt 24.889700 -10.789700
vt -49.779400 14.370100
vt -37.334599 50.295300
vt -49.779400 28.740200
vt -24.889700 0.000000
vt -24.889700 57.480301
vt -0.000000 43.110199
vt 0.000000 14.370100
vt 16.238199 45.417999
vt -7.185040 2.681720
vt 21.555099 2.681720
vt -1.868110 45.417999
vt 13.738200 54.250500
vt -1.868110 46.928299
vt 16.238199 46.928299
vt -0.203615 54.250500
vt 26.872000 35.089199
vt 36.877499 42.712601
vt 28.194000 42.712601
vt 38.149300 35.089199
vt 26.872000 40.054600
vt 44.978298 40.054600
vt 38.149300 40.054600
vt 21.555099 -2.681720
vt 50.295300 -2.681720
vt 28.740200 -10.726900
vt 19.687000 32.009399
vt 14.370100 -10.726900
vt 28.740200 32.009399
vt -44.978298 34.691101
vt -26.872000 34.691101
vt -39.020901 34.691101
vt -50.295300 -8.045170
vt -21.555099 -8.045170
vt -43.110199 0.000000
vt -19.687000 42.736301
vt -37.793301 42.736301
vt -14.370100 -0.000000
vt -21.426701 49.231098
vt -37.793301 41.926399
vt -19.687000 41.926399
vt -35.368500 49.231098
vt -28.194000 31.202700
vt -39.020901 23.620399
vt -26.872000 23.620399
vt -37.548599 31.202700
vt 1.438600 40.033501
vt 29.198601 33.201199
vt 25.595900 40.033501
vt -2.174580 33.201199
vt 1.868110 29.327700
vt -7.185040 -13.408600
vt 7.185040 -13.408600
vt -7.185040 29.327700
vt 24.209600 14.455800
vt 12.135600 35.368500
vt 12.135600 21.426701
vt 20.236900 40.045799
vt 31.729700 18.797501
vt 40.570202 28.740200
vt 34.656101 16.272499
vt 40.570202 19.687000
vt 32.730000 42.319901
vt 24.889700 46.846500
vt 19.730400 43.867699
vn 0.8506 0.1877 -0.4911
vn -0.0000 -1.0000 -0.0000
vn -0.4883 0.2155 0.8457
vn -0.4570 0.4056 0.7916
vn 0.4390 0.4788 0.7603
vn 0.4883 0.2155 0.8457
vn 0.4813 0.2990 0.8240
vn 0.9765 0.2155 0.0000
vn -0.4883 0.2155 -0.8457
vn -0.4882 0.2155 -0.8457
vn -0.2579 -0.7670 -0.5876
vn -0.9765 0.2155 0.0000
vn -0.9162 0.4006 0.0000
vn -0.4413 0.4699 -0.7644
vn -0.4414 0.4699 -0.7644
vn 0.8616 0.2009 -0.4660
vn 0.4883 0.2155 -0.8457
vn 0.0000 1.0000 0.0000
usemtl Wood.021
s 1
f 1/1/1 2/2/1 3/3/1
f 2/2/1 1/1/1 4/4/1
f 5/5/2 4/6/2 1/7/2
f 6/8/2 4/6/2 5/5/2
f 6/8/2 7/9/2 4/6/2
f 6/8/2 8/10/2 7/9/2
f 8/10/2 6/8/2 9/11/2
f 10/12/3 9/13/3 6/14/3
f 9/13/3 10/12/3 11/15/3
f 12/16/4 11/17/4 10/18/4
f 11/17/4 12/16/4 13/19/4
f 10/20/5 16/21/5 12/22/5
f 16/21/5 10/20/5 17/23/5
f 10/24/6 18/25/6 17/26/7
f 6/27/6 18/25/6 10/24/6
f 18/25/6 6/27/6 5/28/6
f 1/29/8 18/30/8 5/31/8
f 18/30/8 1/29/8 3/32/8
f 19/33/9 21/34/10 20/35/11
f 7/36/9 21/34/10 19/33/9
f 21/34/10 7/36/9 8/37/9
f 8/38/12 11/39/12 21/40/12
f 11/39/12 8/38/12 9/41/12
f 13/42/13 21/43/13 11/44/13
f 21/43/13 13/42/13 14/45/13
f 14/46/14 20/47/14 21/48/15
f 20/47/14 14/46/14 15/49/14
f 16/50/16 20/51/16 15/52/16
f 20/51/16 16/50/16 17/53/16
f 19/54/17 4/55/17 7/56/17
f 4/55/17 19/54/17 2/57/17
usemtl Green_leafs.017
f 12/58/18 14/59/18 13/60/18
f 14/59/18 12/58/18 15/61/18
f 15/61/18 12/58/18 16/62/18
f 3/63/18 17/64/18 18/65/18
f 2/66/18 17/64/18 3/63/18
f 19/67/18 17/64/18 2/66/18
f 17/64/18 19/67/18 20/68/18
