# Blender v2.79 (sub 0) OBJ File: 'untitled.blend'
# www.blender.org
mtllib naturePack_034.mtl
o Mesh1_Tall_Rock_2_Model.001
v 0.588897 0.000000 -1.360000
v 0.000000 0.000000 -0.340000
v 0.000000 0.000000 -1.020000
v 0.588897 0.000000 0.000000
v 1.177790 0.000000 -1.020000
v 0.588897 1.060000 -1.264800
v 1.095350 1.060000 -0.972400
v 1.095350 1.060000 -0.680000
v 0.540045 1.060000 -0.847446
v 0.082446 1.060000 -0.972400
v 0.082446 1.060000 -0.680000
v 0.082446 1.060000 -0.387600
v 0.588897 1.060000 -0.095200
v 1.095350 1.060000 -0.387600
v 1.177790 0.000000 -0.340000
v 1.024450 1.480000 -0.399321
v 1.024450 1.480000 -0.650785
v 0.546885 1.480000 -0.794789
v 0.153349 1.480000 -0.650785
v 0.153349 1.480000 -0.399321
v 0.588897 1.480000 -0.147857
v 0.970774 2.170000 -0.411561
v 0.609269 2.170000 -0.202846
v 0.970774 2.170000 -0.620277
v 0.574398 2.170000 -0.739799
v 0.446683 2.170000 -0.296715
v 0.393011 1.480000 -0.260952
vt -23.184900 53.543301
vt 0.000000 13.385800
vt 0.000000 40.157501
vt -23.184900 0.000000
vt -46.369900 40.157501
vt 4.818900 37.363701
vt -20.078699 -4.494670
vt 6.692910 -4.494670
vt -18.204700 37.363701
vt -40.157501 -0.000000
vt -26.771700 41.858299
vt -38.283501 41.858299
vt -15.259800 41.858299
vt -13.385800 -0.000000
vt -6.692910 0.898934
vt 18.204700 42.757301
vt -4.818900 42.757301
vt 20.078699 0.898934
vt 20.078699 -0.898934
vt 44.976398 40.959400
vt 21.952801 40.959400
vt 46.850399 -0.898934
vt -46.369900 13.385800
vt 40.157501 -3.595740
vt 15.259800 38.262600
vt 13.385800 -3.595740
vt 26.771700 38.262600
vt 38.283501 38.262600
vt 26.771700 33.971500
vt 15.721300 50.740898
vt 15.259800 33.971500
vt 25.621500 50.740898
vt -33.558800 37.094299
vt -11.580400 53.739300
vt -31.218201 53.739300
vt -10.724100 37.094299
vt -31.431999 38.477501
vt -14.474200 55.138199
vt -30.972500 55.138199
vt -12.248000 38.477501
vt -26.771700 41.690300
vt -15.721300 58.459702
vt -25.621500 58.459702
vt -15.259800 41.690300
vt -4.818900 43.090099
vt 17.168200 59.722801
vt -2.632150 59.722801
vt 18.204700 43.090099
vt 21.952801 40.587502
vt 42.789600 57.220100
vt 22.989300 57.220100
vt 44.976398 40.587502
vt 41.200600 85.032501
vt 22.989300 57.827202
vt 42.789600 57.827202
vt 24.766300 85.032501
vt -36.030102 58.886398
vt -16.095400 86.101303
vt -34.249901 86.101303
vt -14.157300 58.886398
vt 8.263030 59.722801
vt 16.780300 86.713501
vt 8.263030 59.452999
vt 17.168200 59.452999
vt 9.389000 86.713501
vt -13.242500 83.029297
vt -31.218201 55.806999
vt -11.580400 55.806999
vt -29.541901 83.029297
vt 16.203199 82.211800
vt 25.621500 54.964401
vt 24.420300 82.211800
vt 15.721300 54.964401
vt -21.952801 39.161499
vt -46.850399 -2.696800
vt -20.078699 -2.696800
vt -44.976398 39.161499
vt 23.184900 49.795300
vt 43.124001 26.771700
vt 43.124001 38.283501
vt 21.261600 33.363998
vt 3.245890 38.283501
vt 3.245890 26.771700
vt 38.219398 24.420300
vt 23.986900 7.986080
vt 38.219398 16.203199
vt 22.614100 29.125999
vt 17.585899 11.681700
vt 6.037360 25.621500
vt 15.472900 10.273700
vt 21.530899 31.290899
vt 6.037360 15.721300
vn -0.0000 -1.0000 -0.0000
vn 0.4985 0.0775 -0.8634
vn -0.9970 0.0775 0.0000
vn -0.9925 0.1221 0.0000
vn -0.9925 0.1220 0.0000
vn -0.4985 0.0775 0.8634
vn -0.4979 0.0926 0.8623
vn -0.4978 0.0927 0.8623
vn 0.4985 0.0775 0.8634
vn 0.4978 0.0927 0.8623
vn 0.9970 0.0775 0.0000
vn 0.9925 0.1219 0.0000
vn 0.9925 0.1221 0.0000
vn 0.9925 0.1222 0.0000
vn 0.2868 0.1146 -0.9511
vn 0.2875 0.0897 -0.9536
vn 0.2875 0.0896 -0.9536
vn -0.3411 0.1224 -0.9320
vn -0.9860 0.1665 0.0000
vn -0.4977 0.0956 0.8621
vn -0.4971 0.1079 0.8610
vn 0.4984 0.0811 0.8632
vn 0.4993 0.0542 0.8648
vn -0.9591 0.0603 -0.2765
vn -0.7196 0.1922 0.6672
vn -0.4983 0.0835 0.8630
vn 0.2881 0.0647 -0.9554
vn 0.9970 0.0776 0.0000
vn -0.4985 0.0775 -0.8634
vn -0.0000 1.0000 0.0000
usemtl Wood.020
s 1
f 1/1/1 2/2/1 3/3/1
f 2/2/1 1/1/1 4/4/1
f 4/4/1 1/1/1 5/5/1
f 6/6/2 5/7/2 1/8/2
f 5/7/2 6/6/2 7/9/2
f 3/10/3 11/11/4 10/12/3
f 3/10/3 12/13/5 11/11/4
f 12/13/5 3/10/3 2/14/3
f 2/15/6 13/16/7 12/17/8
f 13/16/7 2/15/6 4/18/6
f 4/19/9 14/20/10 13/21/10
f 14/20/10 4/19/9 15/22/9
f 4/4/1 5/5/1 15/23/1
f 5/24/11 14/25/12 15/26/11
f 14/25/12 5/24/11 8/27/13
f 8/27/13 5/24/11 7/28/11
f 8/29/13 16/30/14 14/31/12
f 16/30/14 8/29/13 17/32/14
f 8/33/15 18/34/16 17/35/17
f 18/34/16 8/33/15 9/36/15
f 9/37/18 19/38/18 18/39/18
f 19/38/18 9/37/18 11/40/18
f 11/41/4 20/42/19 19/43/19
f 20/42/19 11/41/4 12/44/5
f 12/45/8 21/46/20 20/47/21
f 21/46/20 12/45/8 13/48/7
f 13/49/10 16/50/22 21/51/22
f 16/50/22 13/49/10 14/52/10
f 22/53/23 21/54/22 16/55/22
f 21/54/22 22/53/23 23/56/23
f 18/57/24 26/58/24 25/59/24
f 26/58/24 18/57/24 27/60/24
f 20/47/21 21/46/20 27/61/25
f 23/62/26 27/63/25 21/64/20
f 27/63/25 23/62/26 26/65/26
f 25/66/27 17/67/17 18/68/16
f 17/67/17 25/66/27 24/69/27
f 22/70/28 17/71/14 24/72/28
f 17/71/14 22/70/28 16/73/14
f 10/74/29 1/75/29 3/76/29
f 1/75/29 10/74/29 6/77/29
usemtl Green_leafs.016
f 6/78/30 8/79/30 7/80/30
f 6/78/30 9/81/30 8/79/30
f 10/82/30 9/81/30 6/78/30
f 9/81/30 10/82/30 11/83/30
f 24/84/30 23/85/30 22/86/30
f 25/87/30 23/85/30 24/84/30
f 23/85/30 25/87/30 26/88/30
f 19/89/30 27/90/30 18/91/30
f 27/90/30 19/89/30 20/92/30
