# Blender v2.79 (sub 0) OBJ File: 'untitled.blend'
# www.blender.org
mtllib naturePack_043.mtl
o Mesh1_Group1_Model.032
v 0.154458 0.180000 -0.164002
v 0.564822 0.180000 -1.248430
v 0.000000 0.180000 -0.626677
v 0.377393 0.180000 -0.108538
v 0.154458 0.000000 -0.164002
v 0.377393 0.000000 -0.108538
v 0.564822 0.000000 -1.248430
v 0.000000 0.000000 -0.626677
v 1.389560 0.000000 -1.043240
v 1.389560 0.180000 -1.043240
v 1.158700 0.180000 0.000000
v 0.545792 0.180000 -0.216436
v 0.545792 0.000000 -0.216436
v 1.158700 0.000000 0.000000
v 1.629640 0.000000 -0.504299
v 1.629640 0.180000 -0.504299
vt 6.081040 6.456760
vt 22.237101 49.150700
vt -0.000000 24.672300
vt 14.858000 4.273150
vt 4.342300 0.000000
vt 13.386800 7.086610
vt 4.342300 7.086610
vt 13.386800 0.000000
vt -6.081040 6.456760
vt -22.237101 49.150700
vt -14.858000 4.273150
vt 0.000000 24.672300
vt -4.198880 0.000000
vt -23.402700 7.086610
vt -23.402700 0.000000
vt -4.198880 7.086610
vt -51.332802 7.086610
vt -18.261999 0.000000
vt -18.261999 7.086610
vt -51.332802 0.000000
vt -9.712890 7.086610
vt -43.172600 0.000000
vt -9.712890 0.000000
vt -43.172600 7.086610
vt 45.618099 -0.000000
vt 54.707100 41.072601
vt 21.487900 8.521080
vt 14.815700 0.000000
vt 22.689699 7.086610
vt 14.815700 7.086610
vt 22.689699 0.000000
vt -21.487900 8.521080
vt -45.618099 -0.000000
vt -54.707100 41.072601
vt -64.158997 19.854300
vt 15.257400 0.000000
vt -7.970910 7.086610
vt -7.970910 0.000000
vt 15.257400 7.086610
vt 64.158997 19.854300
vt 31.135201 7.086610
vt 58.300598 0.000000
vt 58.300598 7.086610
vt 31.135201 0.000000
vt 17.424299 7.086610
vt 43.014900 0.000000
vt 43.014900 7.086610
vt 17.424299 0.000000
vn 0.0000 1.0000 0.0000
vn -0.2414 -0.0000 0.9704
vn 0.0000 -1.0000 -0.0000
vn -0.9485 -0.0000 0.3167
vn -0.7402 0.0000 -0.6724
vn 0.2414 0.0000 -0.9704
vn 0.5395 -0.0000 0.8420
vn 0.9135 0.0000 -0.4069
vn 0.7309 0.0000 0.6825
vn -0.3330 -0.0000 0.9429
usemtl Stone.014
s 1
f 1/1/1 2/2/1 3/3/1
f 2/2/1 1/1/1 4/4/1
f 5/5/2 4/6/2 1/7/2
f 4/6/2 5/5/2 6/8/2
f 5/9/3 7/10/3 6/11/3
f 7/10/3 5/9/3 8/12/3
f 5/13/4 3/14/4 8/15/4
f 3/14/4 5/13/4 1/16/4
f 2/17/5 8/18/5 3/19/5
f 8/18/5 2/17/5 7/20/5
f 2/21/6 9/22/6 7/23/6
f 9/22/6 2/21/6 10/24/6
f 2/2/1 11/25/1 10/26/1
f 2/2/1 12/27/1 11/25/1
f 2/2/1 4/4/1 12/27/1
f 6/28/7 12/29/7 4/30/7
f 12/29/7 6/28/7 13/31/7
f 6/11/3 7/10/3 13/32/3
f 13/32/3 7/10/3 14/33/3
f 14/33/3 7/10/3 9/34/3
f 14/33/3 9/34/3 15/35/3
f 9/36/8 16/37/8 15/38/8
f 16/37/8 9/36/8 10/39/8
f 10/26/1 11/25/1 16/40/1
f 11/41/9 15/42/9 16/43/9
f 15/42/9 11/41/9 14/44/9
f 12/45/10 14/46/10 11/47/10
f 14/46/10 12/45/10 13/48/10
