# Blender v2.79 (sub 0) OBJ File: 'untitled.blend'
# www.blender.org
mtllib naturePack_109.mtl
o Mesh1_Trunk_Alt_Model.001
v 0.803690 0.000000 -0.803690
v 0.701729 0.230000 -0.101961
v 0.803690 0.000000 0.000000
v 0.701729 0.230000 -0.701729
v 0.101961 0.230000 -0.701729
v 0.000000 0.000000 -0.803690
v 0.000000 0.000000 0.000000
v 0.101961 0.230000 -0.101961
v 0.639848 0.830000 -0.163841
v 0.163841 0.830000 -0.163841
v 0.262660 0.830000 -0.262660
v 0.163841 0.830000 -0.639848
v 0.262660 0.830000 -0.541029
v 0.639848 0.830000 -0.639848
v 0.541029 0.830000 -0.541029
v 0.262660 0.230000 -0.541029
v 0.541029 0.230000 -0.541029
v 0.541029 0.230000 -0.262660
v 0.262660 0.230000 -0.262660
v 0.541029 0.830000 -0.262660
v 0.118130 0.386775 -0.527126
v 0.118130 0.386775 -0.276564
v 0.147672 0.673225 -0.306107
v 0.147672 0.673225 -0.497583
v -0.163841 0.479545 -0.472002
v -0.147297 0.639957 -0.455458
v -0.147297 0.639957 -0.348231
v -0.163841 0.479545 -0.331687
vt 31.641300 -12.823300
vt 4.014200 -2.918280
vt 0.000000 -12.823300
vt 27.627100 -2.918280
vt -31.641300 -12.823300
vt -4.014200 -2.918280
vt -27.627100 -2.918280
vt 0.000000 -12.823300
vt -31.641300 31.641300
vt 0.000000 0.000000
vt 0.000000 31.641300
vt -31.641300 0.000000
vt 27.627100 9.905000
vt 31.641300 -0.000000
vt 4.014200 9.905000
vt 25.190901 33.166500
vt 4.014200 9.419160
vt 27.627100 9.419160
vt 6.450450 33.166500
vt 10.341000 9.055120
vt 21.300400 32.677200
vt 10.341000 32.677200
vt 21.300400 9.055120
vt 10.341000 21.300400
vt 21.300400 10.341000
vt 21.300400 21.300400
vt 10.341000 10.341000
vt 21.300400 9.055120
vt 10.341000 32.677200
vt 10.341000 9.055120
vt 21.300400 32.677200
vt -10.341000 32.677200
vt -21.300400 9.055120
vt -10.341000 9.055120
vt -21.300400 32.677200
vt 6.450450 29.920401
vt 27.627100 6.173060
vt 25.190901 29.920401
vt 4.014200 6.173060
vt -27.627100 6.173060
vt -6.450450 29.920401
vt -25.190901 29.920401
vt -4.014200 6.173060
vt -27.627100 9.419160
vt -20.753000 15.624200
vt -25.190901 33.166500
vt -10.888300 15.624200
vt -4.014200 9.419160
vt -6.450450 33.166500
vt -12.051400 26.961500
vt -19.589899 26.961500
vt 3.504160 16.485201
vt -8.768590 24.163099
vt -7.799000 12.807600
vt 2.961190 22.844299
vt -20.753000 0.341146
vt -13.058600 12.027700
vt -18.582800 12.027700
vt -10.888300 0.341146
vt 3.883590 27.821100
vt -8.389160 20.143200
vt 2.914000 16.465599
vt -7.846190 26.502300
vt -12.051400 8.747730
vt -17.931400 -2.938860
vt -13.709900 -2.938860
vt -19.589899 8.747730
vt -31.641300 0.000000
vt -4.014200 9.905000
vt -27.627100 9.905000
vt -21.300400 32.677200
vt -10.341000 9.055120
vt -10.341000 32.677200
vt -21.300400 9.055120
vt 10.341000 10.341000
vt 6.450450 6.450450
vt 25.190901 6.450450
vt 6.450450 25.190901
vt 10.341000 21.300400
vt 25.190901 25.190901
vt 21.300400 21.300400
vt 21.300400 10.341000
vt -18.582800 18.118401
vt -13.709900 24.467300
vt -17.931400 24.467300
vt -13.058600 18.118401
vn 0.9142 0.4053 0.0000
vn 0.9664 0.2571 0.0000
vn 0.0000 0.4053 -0.9142
vn -0.0000 0.2571 -0.9664
vn 0.0000 -1.0000 -0.0000
vn 0.0000 0.2571 0.9664
vn 0.0000 0.4053 0.9142
vn 0.0000 0.1026 0.9947
vn 0.0000 -0.0000 1.0000
vn 0.0000 1.0000 0.0000
vn 1.0000 -0.0000 0.0000
vn 0.0000 0.0000 -1.0000
vn 0.9947 0.1026 0.0000
vn 0.0000 0.1026 -0.9947
vn -0.9664 0.2571 0.0000
vn -0.9947 0.1026 0.0000
vn -0.1533 0.1170 -0.9812
vn -0.3125 -0.9499 0.0000
vn -0.1533 0.1170 0.9812
vn -0.1121 0.9937 0.0000
vn -0.9142 0.4053 0.0000
vn -1.0000 -0.0000 0.0000
usemtl Wood.062
s 1
f 1/1/1 2/2/2 3/3/1
f 2/2/2 1/1/1 4/4/2
f 1/5/3 5/6/4 4/7/4
f 5/6/4 1/5/3 6/8/3
f 1/9/5 7/10/5 6/11/5
f 7/10/5 1/9/5 3/12/5
f 2/13/6 7/10/7 3/14/7
f 7/10/7 2/13/6 8/15/6
f 9/16/8 8/17/6 2/18/6
f 8/17/6 9/16/8 10/19/8
f 16/20/9 15/21/9 13/22/9
f 15/21/9 16/20/9 17/23/9
f 16/24/10 18/25/10 17/26/10
f 18/25/10 16/24/10 19/27/10
f 16/28/11 11/29/11 19/30/11
f 11/29/11 16/28/11 13/31/11
f 11/32/12 18/33/12 19/34/12
f 18/33/12 11/32/12 20/35/12
f 9/36/13 4/37/2 14/38/13
f 4/37/2 9/36/13 2/39/2
f 4/40/4 12/41/14 14/42/14
f 12/41/14 4/40/4 5/43/4
f 5/44/15 21/45/16 12/46/16
f 5/44/15 22/47/16 21/45/16
f 8/48/15 22/47/16 5/44/15
f 22/47/16 8/48/15 10/49/16
f 10/49/16 23/50/16 22/47/16
f 23/50/16 10/49/16 12/46/16
f 23/50/16 12/46/16 24/51/16
f 24/51/16 12/46/16 21/45/16
f 25/52/17 24/53/17 21/54/17
f 24/53/17 25/52/17 26/55/17
f 21/56/18 28/57/18 25/58/18
f 28/57/18 21/56/18 22/59/18
f 23/60/19 28/61/19 22/62/19
f 28/61/19 23/60/19 27/63/19
f 23/64/20 26/65/20 27/66/20
f 26/65/20 23/64/20 24/67/20
f 6/68/21 8/69/15 5/70/15
f 8/69/15 6/68/21 7/10/21
f 15/71/22 18/72/22 20/73/22
f 18/72/22 15/71/22 17/74/22
usemtl Light_Wood.006
f 11/75/10 10/76/10 9/77/10
f 10/76/10 11/75/10 12/78/10
f 13/79/10 12/78/10 11/75/10
f 12/78/10 13/79/10 14/80/10
f 14/80/10 13/79/10 15/81/10
f 11/75/10 9/77/10 20/82/10
f 20/82/10 9/77/10 15/81/10
f 14/80/10 15/81/10 9/77/10
f 25/83/16 27/84/16 26/85/16
f 27/84/16 25/83/16 28/86/16
