# Blender v2.79 (sub 0) OBJ File: 'untitled.blend'
# www.blender.org
mtllib naturePack_050.mtl
o Mesh2_Group1_Model.002
v 2.798700 1.112990 -0.201300
v 2.798700 0.885988 0.000000
v 2.798700 1.112990 0.000000
v 2.798700 0.885988 -0.100650
v 2.798700 0.630000 -0.100650
v 2.798700 0.475988 -0.100650
v 2.798700 0.220000 -0.100650
v 2.798700 0.000000 -0.201300
v 2.798700 0.220000 0.000000
v 2.798700 0.000000 0.000000
v 3.000000 0.000000 -0.201300
v 3.000000 0.000000 0.000000
v 3.000000 1.112990 0.000000
v 3.000000 1.112990 -0.201300
v 2.798700 0.630000 0.000000
v 2.798700 0.475988 0.000000
v 2.396100 0.220000 0.000000
v 2.396100 0.475988 0.000000
v 2.396100 0.475988 -0.100650
v 2.396100 0.630000 0.000000
v 2.396100 0.630000 -0.100650
v 2.396100 0.885988 0.000000
v 2.396100 0.885988 -0.100650
v 2.396100 1.112990 -0.201300
v 2.396100 1.112990 0.000000
v 2.194800 1.112990 -0.201300
v 2.194800 1.112990 0.000000
v 2.194800 0.885988 0.000000
v 2.194800 0.630000 0.000000
v 2.194800 0.475988 0.000000
v 2.194800 0.220000 0.000000
v 2.194800 0.000000 -0.201300
v 2.194800 -0.000000 0.000000
v 2.396100 0.000000 -0.201300
v 2.396100 -0.000000 0.000000
v 2.396100 0.220000 -0.100650
vt -7.925200 43.818600
vt 0.000000 34.881401
vt 0.000000 43.818600
vt -3.962600 34.881401
vt -3.962600 24.803101
vt -3.962600 18.739700
vt -3.962600 8.661420
vt -7.925200 0.000000
vt 0.000000 8.661420
vt 0.000000 0.000000
vt -118.110001 7.925200
vt -110.184998 0.000000
vt -110.184998 7.925200
vt -118.110001 0.000000
vt 7.925200 0.000000
vt 0.000000 43.818600
vt 0.000000 0.000000
vt 7.925200 43.818600
vt -118.110001 0.000000
vt -110.184998 43.818600
vt -118.110001 43.818600
vt -110.184998 0.000000
vt 110.184998 7.925200
vt 118.110001 0.000000
vt 118.110001 7.925200
vt 110.184998 0.000000
vt 110.184998 34.881401
vt 118.110001 43.818600
vt 110.184998 43.818600
vt 110.184998 24.803101
vt 110.184998 18.739700
vt 110.184998 8.661420
vt 110.184998 -0.000000
vt 118.110001 -0.000000
vt 94.334602 8.661420
vt 94.334602 18.739700
vt 110.184998 0.000000
vt 94.334602 3.962600
vt 94.334602 0.000000
vt 110.184998 3.962600
vt 0.000000 18.739700
vt 0.000000 24.803101
vt -94.334602 0.000000
vt -110.184998 3.962600
vt -110.184998 0.000000
vt -94.334602 3.962600
vt 3.962600 24.803101
vt 0.000000 34.881401
vt 0.000000 24.803101
vt 3.962600 34.881401
vt -94.334602 34.881401
vt -110.184998 24.803101
vt -94.334602 24.803101
vt -110.184998 34.881401
vt 94.334602 3.962600
vt 110.184998 0.000000
vt 110.184998 3.962600
vt 94.334602 0.000000
vt 7.925200 43.818600
vt -0.000000 43.818600
vt 86.409401 7.925200
vt 94.334602 -0.000000
vt 94.334602 7.925200
vt 86.409401 -0.000000
vt -7.925200 43.818600
vt -0.000000 34.881401
vt 0.000000 43.818600
vt -0.000000 24.803101
vt -0.000000 18.739700
vt -0.000000 8.661420
vt -7.925200 0.000000
vt 0.000000 0.000000
vt -94.334602 7.925200
vt -86.409401 -0.000000
vt -86.409401 7.925200
vt -94.334602 -0.000000
vt 7.925200 0.000000
vt 0.000000 8.661420
vt -0.000000 0.000000
vt 3.962600 8.661420
vt 3.962600 18.739700
vt -94.334602 0.000000
vt -86.409401 43.818600
vt -94.334602 43.818600
vt -86.409401 0.000000
vt 0.000000 18.739700
vt 94.334602 24.803101
vt 86.409401 18.739700
vt 86.409401 24.803101
vt 94.334602 34.881401
vt 86.409401 34.881401
vt 94.334602 43.818600
vt 86.409401 43.818600
vt 86.409401 8.661420
vt 86.409401 -0.000000
vt 94.334602 -0.000000
vt -94.334602 18.739700
vt -110.184998 8.661420
vt -94.334602 8.661420
vt -110.184998 18.739700
vt -110.184998 3.962600
vt -94.334602 0.000000
vt -94.334602 3.962600
vt -110.184998 0.000000
vn -1.0000 0.0000 0.0000
vn 0.0000 -1.0000 -0.0000
vn 1.0000 -0.0000 0.0000
vn 0.0000 0.0000 -1.0000
vn 0.0000 1.0000 0.0000
vn 0.0000 -0.0000 1.0000
usemtl Wood.030
s 1
f 1/1/1 2/2/1 3/3/1
f 2/2/1 1/1/1 4/4/1
f 4/4/1 1/1/1 5/5/1
f 5/5/1 1/1/1 6/6/1
f 6/6/1 1/1/1 7/7/1
f 8/8/1 7/7/1 1/1/1
f 8/8/1 9/9/1 7/7/1
f 9/9/1 8/8/1 10/10/1
f 11/11/2 10/12/2 8/13/2
f 10/12/2 11/11/2 12/14/2
f 11/15/3 13/16/3 12/17/3
f 13/16/3 11/15/3 14/18/3
f 11/19/4 1/20/4 14/21/4
f 1/20/4 11/19/4 8/22/4
f 1/23/5 13/24/5 14/25/5
f 13/24/5 1/23/5 3/26/5
f 2/27/6 13/28/6 3/29/6
f 15/30/6 13/28/6 2/27/6
f 16/31/6 13/28/6 15/30/6
f 9/32/6 13/28/6 16/31/6
f 10/33/6 13/28/6 9/32/6
f 13/28/6 10/33/6 12/34/6
f 16/31/6 17/35/6 9/32/6
f 17/35/6 16/31/6 18/36/6
f 16/37/5 19/38/5 18/39/5
f 19/38/5 16/37/5 6/40/5
f 16/41/1 5/5/1 6/6/1
f 5/5/1 16/41/1 15/42/1
f 20/43/2 5/44/2 15/45/2
f 5/44/2 20/43/2 21/46/2
f 21/47/3 22/48/3 20/49/3
f 22/48/3 21/47/3 23/50/3
f 23/51/4 5/52/4 21/53/4
f 5/52/4 23/51/4 4/54/4
f 23/55/5 2/56/5 4/57/5
f 2/56/5 23/55/5 22/58/5
f 24/59/3 22/48/3 23/50/3
f 22/48/3 24/59/3 25/60/3
f 26/61/5 25/62/5 24/63/5
f 25/62/5 26/61/5 27/64/5
f 26/65/1 28/66/1 27/67/1
f 28/66/1 26/65/1 29/68/1
f 29/68/1 26/65/1 30/69/1
f 30/69/1 26/65/1 31/70/1
f 32/71/1 31/70/1 26/65/1
f 31/70/1 32/71/1 33/72/1
f 34/73/2 33/74/2 32/75/2
f 33/74/2 34/73/2 35/76/2
f 34/77/3 17/78/3 35/79/3
f 17/78/3 34/77/3 36/80/3
f 36/80/3 34/77/3 19/81/3
f 19/81/3 34/77/3 21/47/3
f 21/47/3 34/77/3 23/50/3
f 24/59/3 23/50/3 34/77/3
f 34/82/4 26/83/4 24/84/4
f 26/83/4 34/82/4 32/85/4
f 20/49/3 19/81/3 21/47/3
f 19/81/3 20/49/3 18/86/3
f 20/87/6 30/88/6 18/36/6
f 30/88/6 20/87/6 29/89/6
f 22/90/6 29/89/6 20/87/6
f 29/89/6 22/90/6 28/91/6
f 25/92/6 28/91/6 22/90/6
f 28/91/6 25/92/6 27/93/6
f 20/87/6 2/27/6 22/90/6
f 2/27/6 20/87/6 15/30/6
f 31/94/6 18/36/6 30/88/6
f 18/36/6 31/94/6 17/35/6
f 33/95/6 17/35/6 31/94/6
f 17/35/6 33/95/6 35/96/6
f 36/80/3 18/86/3 17/78/3
f 18/86/3 36/80/3 19/81/3
f 19/97/4 7/98/4 36/99/4
f 7/98/4 19/97/4 6/100/4
f 7/101/2 17/102/2 36/103/2
f 17/102/2 7/101/2 9/104/2
o Mesh1_Group1_Model.039
v 0.201300 0.000000 -0.201300
v 0.000000 0.000000 -0.000000
v 0.000000 0.000000 -0.201300
v 0.201300 0.000000 -0.000000
v 0.201300 0.220000 0.000000
v 0.201300 0.220000 -0.100650
v 0.201300 0.475988 -0.100650
v 0.201300 0.630000 -0.100650
v 0.201300 0.885988 -0.100650
v 0.201300 1.112990 -0.201300
v 0.201300 0.885988 0.000000
v 0.201300 1.112990 0.000000
v 0.000000 1.112990 -0.201300
v 0.000000 1.112990 0.000000
v 0.201300 0.475988 0.000000
v 0.603900 0.475988 0.000000
v 0.603900 0.220000 0.000000
v 0.603900 0.220000 -0.100650
v 0.603900 0.475988 -0.100650
v 0.201300 0.630000 0.000000
v 0.603900 0.630000 -0.100650
v 0.603900 0.630000 0.000000
v 0.603900 0.885988 -0.100650
v 0.603900 0.885988 0.000000
v 0.603900 1.112990 -0.201300
v 0.603900 1.112990 0.000000
v 0.805200 1.112990 0.000000
v 0.805200 0.885988 0.000000
v 0.805200 0.630000 0.000000
v 0.805200 0.475988 0.000000
v 0.805200 0.220000 0.000000
v 0.603900 0.000000 -0.201300
v 0.603900 0.000000 -0.000000
v 0.805200 0.000000 -0.201300
v 0.805200 0.000000 -0.000000
v 0.805200 1.112990 -0.201300
vt -7.925200 7.925200
vt 0.000000 0.000000
vt 0.000000 7.925200
vt -7.925200 0.000000
vt 7.925200 0.000000
vt -0.000000 8.661420
vt -0.000000 0.000000
vt 3.962600 8.661420
vt 3.962600 18.739700
vt 3.962600 24.803101
vt 3.962600 34.881401
vt 7.925200 43.818600
vt -0.000000 34.881401
vt -0.000000 43.818600
vt 0.000000 7.925200
vt 7.925200 0.000000
vt 7.925200 7.925200
vt 0.000000 0.000000
vt -7.925200 43.818600
vt -0.000000 43.818600
vt -7.925200 0.000000
vt 0.000000 43.818600
vt -7.925200 0.000000
vt 0.000000 0.000000
vt -7.925200 43.818600
vt 7.925200 8.661420
vt 7.925200 0.000000
vt 7.925200 18.739700
vt 23.775600 18.739700
vt 23.775600 8.661420
vt -7.925200 0.000000
vt -23.775600 3.962600
vt -23.775600 0.000000
vt -7.925200 3.962600
vt -7.925200 18.739700
vt -23.775600 8.661420
vt -7.925200 8.661420
vt -23.775600 18.739700
vt 7.925200 3.962600
vt 23.775600 0.000000
vt 23.775600 3.962600
vt 7.925200 0.000000
vt -0.000000 24.803101
vt -0.000000 18.739700
vt -23.775600 3.962600
vt -7.925200 0.000000
vt -7.925200 3.962600
vt -23.775600 0.000000
vt -0.000000 24.803101
vt -3.962600 34.881401
vt -3.962600 24.803101
vt -0.000000 34.881401
vt 23.775600 34.881401
vt 7.925200 24.803101
vt 23.775600 24.803101
vt 7.925200 34.881401
vt 23.775600 0.000000
vt 7.925200 3.962600
vt 7.925200 0.000000
vt 23.775600 3.962600
vt -7.925200 43.818600
vt -0.000000 43.818600
vt 31.700800 43.818600
vt 23.775600 43.818600
vt 31.700800 34.881401
vt 31.700800 24.803101
vt 31.700800 18.739700
vt 31.700800 8.661420
vt -3.962600 18.739700
vt -0.000000 8.661420
vt -0.000000 18.739700
vt -3.962600 8.661420
vt -23.775600 24.803101
vt -7.925200 34.881401
vt -23.775600 34.881401
vt -7.925200 24.803101
vt -7.925200 0.000000
vt -0.000000 0.000000
vt -31.700800 7.925200
vt -23.775600 0.000000
vt -23.775600 7.925200
vt -31.700800 0.000000
vt 7.925200 0.000000
vt 0.000000 8.661420
vt 0.000000 0.000000
vt 0.000000 18.739700
vt 0.000000 24.803101
vt 0.000000 34.881401
vt 0.000000 43.818600
vt 7.925200 43.818600
vt -31.700800 0.000000
vt -23.775600 43.818600
vt -31.700800 43.818600
vt -23.775600 0.000000
vt 23.775600 7.925200
vt 31.700800 0.000000
vt 31.700800 7.925200
vt 23.775600 0.000000
vt 23.775600 0.000000
vt 31.700800 0.000000
vt 7.925200 43.818600
vn 0.0000 -1.0000 -0.0000
vn 1.0000 0.0000 0.0000
vn 0.0000 1.0000 0.0000
vn -1.0000 0.0000 0.0000
vn 0.0000 0.0000 -1.0000
vn 0.0000 -0.0000 1.0000
usemtl Wood.030
s 1
f 37/105/7 38/106/7 39/107/7
f 38/106/7 37/105/7 40/108/7
f 37/109/8 41/110/8 40/111/8
f 41/110/8 37/109/8 42/112/8
f 42/112/8 37/109/8 43/113/8
f 43/113/8 37/109/8 44/114/8
f 44/114/8 37/109/8 45/115/8
f 46/116/8 45/115/8 37/109/8
f 46/116/8 47/117/8 45/115/8
f 47/117/8 46/116/8 48/118/8
f 49/119/9 48/120/9 46/121/9
f 48/120/9 49/119/9 50/122/9
f 49/123/10 38/106/10 50/124/10
f 38/106/10 49/123/10 39/125/10
f 49/126/11 37/127/11 39/128/11
f 37/127/11 49/126/11 46/129/11
f 38/106/12 41/130/12 50/124/12
f 41/130/12 38/106/12 40/131/12
f 50/124/12 41/130/12 51/132/12
f 41/130/12 52/133/12 51/132/12
f 52/133/12 41/130/12 53/134/12
f 41/135/7 54/136/7 53/137/7
f 54/136/7 41/135/7 42/138/7
f 43/139/11 54/140/11 42/141/11
f 54/140/11 43/139/11 55/142/11
f 43/143/9 52/144/9 55/145/9
f 52/144/9 43/143/9 51/146/9
f 43/113/8 56/147/8 51/148/8
f 56/147/8 43/113/8 44/114/8
f 57/149/7 56/150/7 44/151/7
f 56/150/7 57/149/7 58/152/7
f 58/153/10 59/154/10 57/155/10
f 59/154/10 58/153/10 60/156/10
f 60/157/12 56/158/12 58/159/12
f 56/158/12 60/157/12 47/160/12
f 60/161/9 45/162/9 47/163/9
f 45/162/9 60/161/9 59/164/9
f 60/156/10 61/165/10 59/154/10
f 61/165/10 60/156/10 62/166/10
f 60/157/12 63/167/12 62/168/12
f 63/167/12 60/157/12 64/169/12
f 58/159/12 64/169/12 60/157/12
f 64/169/12 58/159/12 65/170/12
f 52/133/12 65/170/12 58/159/12
f 65/170/12 52/133/12 66/171/12
f 52/133/12 67/172/12 66/171/12
f 67/172/12 52/133/12 53/134/12
f 55/173/10 53/174/10 52/175/10
f 53/174/10 55/173/10 54/176/10
f 55/173/10 61/165/10 54/176/10
f 57/155/10 61/165/10 55/173/10
f 59/154/10 61/165/10 57/155/10
f 57/177/11 45/178/11 59/179/11
f 45/178/11 57/177/11 44/180/11
f 52/175/10 57/155/10 55/173/10
f 57/155/10 52/175/10 58/153/10
f 68/181/10 54/176/10 61/165/10
f 68/181/10 53/174/10 54/176/10
f 53/174/10 68/181/10 69/182/10
f 70/183/7 69/184/7 68/185/7
f 69/184/7 70/183/7 71/186/7
f 70/187/8 67/188/8 71/189/8
f 67/188/8 70/187/8 66/190/8
f 66/190/8 70/187/8 65/191/8
f 65/191/8 70/187/8 64/192/8
f 64/192/8 70/187/8 63/193/8
f 63/193/8 70/187/8 72/194/8
f 70/195/11 61/196/11 72/197/11
f 61/196/11 70/195/11 68/198/11
f 61/199/9 63/200/9 72/201/9
f 63/200/9 61/199/9 62/202/9
f 67/172/12 69/203/12 71/204/12
f 69/203/12 67/172/12 53/134/12
f 50/124/12 56/158/12 47/160/12
f 50/124/12 51/132/12 56/158/12
f 50/124/12 47/160/12 48/205/12
