# Blender v2.79 (sub 0) OBJ File: 'untitled.blend'
# www.blender.org
mtllib naturePack_076.mtl
o Mesh1_Group1_Model.054
v 1.732250 1.828710 -3.220000
v 2.827420 0.000001 -3.220000
v 2.520000 0.000001 -3.220000
v 1.732250 1.861200 -3.220000
v 1.680000 1.950001 -3.220000
v 1.732250 2.747130 -3.220000
v 2.520000 1.950001 -3.220000
v 3.360000 0.000001 -3.220000
v 2.747940 0.000001 -3.415050
v 1.627750 1.828710 -3.220000
v 1.732250 0.000001 -3.220000
v 1.627750 0.000001 -3.220000
v 1.627750 0.000001 -3.115500
v 1.732250 0.000001 -3.115500
v 1.732250 2.747130 -3.115499
v 1.680000 2.800000 -0.104500
v 1.732250 2.747130 -0.104500
v 1.732250 2.747130 0.000000
v 2.520000 1.950000 0.000000
v 1.732250 0.000000 0.000000
v 3.360000 0.000000 0.000000
v 3.185860 0.404243 -0.494903
v 3.185860 0.404243 -0.634903
v 3.130480 0.532821 -0.634903
v 3.060890 0.694356 -1.170540
v 3.060890 0.694356 -1.350540
v 2.989680 0.859670 -1.350540
v 2.989680 0.859670 -1.170540
v 2.879300 1.115910 -1.038880
v 2.879300 1.115910 -0.798876
v 3.130480 0.532821 -0.494903
v 2.974250 0.895487 -0.798876
v 2.974250 0.895487 -1.038880
v 1.732250 0.000000 -0.104500
v 1.627750 2.747130 -0.104500
v 1.627750 0.000000 -0.104500
v 1.627750 0.000000 0.000000
v 1.627750 2.747130 0.000000
v 1.680000 2.800000 0.000000
v 1.627750 2.884000 0.000000
v 1.732250 2.884000 0.000000
v 1.732250 2.884000 -0.104500
v 1.627750 2.884000 -0.104500
v 1.680000 2.800000 -3.115499
v 1.189030 2.303180 -1.630350
v 1.338960 2.454900 -2.158479
v 1.338960 2.454901 -2.408479
v 1.163240 2.277081 -2.408479
v 1.135390 2.248910 -2.641010
v 1.135390 2.248910 -2.831010
v 1.001840 2.113760 -2.831010
v 1.627750 2.747130 -3.115499
v 0.840000 1.950001 -3.220000
v 1.001840 2.113760 -2.641010
v 0.957069 2.068460 -1.960350
v 0.957069 2.068460 -1.630350
v 0.840000 1.950000 0.000000
v 0.000000 0.000000 0.000000
v 0.000000 0.000001 -3.220000
v 0.532575 0.000001 -3.220000
v 1.627750 1.861200 -3.220000
v 1.627750 2.747130 -3.220000
v 1.680000 2.800000 -3.220000
v 1.627750 2.884001 -3.115499
v 1.732250 2.884001 -3.115499
v 0.612065 0.000001 -3.415050
v 0.840000 0.000001 -3.220000
v 1.627750 2.884001 -3.220000
v 1.732250 2.884001 -3.220000
v 1.189030 2.303180 -1.960350
v 1.163240 2.277080 -2.158479
vt -68.198799 71.996300
vt -64.084602 71.996300
vt -66.141701 76.771698
vt -68.198799 0.000000
vt -64.084602 0.000000
vt -68.198799 126.772003
vt -64.084602 122.656998
vt -64.084602 126.772003
vt -68.198799 122.656998
vt 126.772003 0.000000
vt 122.656998 108.154999
vt 122.656998 0.000000
vt 126.772003 108.154999
vt 126.772003 71.996300
vt 126.772003 73.275703
vt 4.114170 0.000000
vt 0.000000 108.154999
vt 0.000000 0.000000
vt 4.114170 108.154999
vt -68.198799 0.000000
vt -64.084602 108.154999
vt -68.198799 108.154999
vt -64.084602 0.000000
vt -68.198799 4.114170
vt -64.084602 0.000000
vt -64.084602 4.114170
vt -68.198799 0.000000
vt -66.141701 110.236000
vt 66.141701 110.236000
vt 64.084602 113.542999
vt 64.084602 108.154999
vt 68.198799 113.542999
vt 68.198799 108.154999
vt 0.000000 113.542999
vt 4.114170 113.542999
vt -68.198799 113.542999
vt -64.084602 113.542999
vt 66.141701 110.236000
vt 64.084602 113.542999
vt 64.084602 108.154999
vt 68.198799 113.542999
vt 68.198799 108.154999
vt -126.772003 71.996300
vt -126.772003 108.154999
vt -126.772003 73.275703
vt -126.772003 0.000000
vt -122.656998 0.000000
vt -122.656998 108.154999
vt 64.084602 0.000000
vt 68.198799 0.000000
vt -126.772003 113.542999
vt -122.656998 113.542999
vt 68.198799 122.656998
vt 64.084602 126.772003
vt 64.084602 122.656998
vt 68.198799 126.772003
vt 122.656998 113.542999
vt 126.772003 113.542999
vt -66.141701 110.236000
vt -68.198799 113.542999
vt -68.198799 108.154999
vt -64.084602 113.542999
vt -64.084602 108.154999
vt -4.114170 108.154999
vt 0.000000 0.000000
vt 0.000000 108.154999
vt -4.114170 0.000000
vt -4.114170 113.542999
vt 0.000000 113.542999
vt 68.198799 0.000000
vt 64.084602 4.114170
vt 64.084602 0.000000
vt 68.198799 4.114170
vt -111.316002 0.000000
vt -99.212601 0.000000
vt -68.198799 73.275703
vt -99.212601 76.771698
vt -132.283005 0.000000
vt 83.679901 -72.216301
vt 91.659599 11.232100
vt 75.387497 -72.216301
vt 92.435898 15.213400
vt -169.615005 8.579980
vt -134.240005 83.346703
vt -132.677002 88.305901
vt -157.804001 8.579980
vt -111.316002 126.772003
vt -99.212601 126.772003
vt -108.185997 134.451004
vt 122.656998 28.990400
vt 126.772003 -15.131600
vt 126.772003 28.990400
vt 4.114170 31.916901
vt 4.114170 28.990400
vt 0.000000 28.990400
vt 0.000000 -15.131600
vt 68.198799 0.000000
vt 99.212601 76.771698
vt 132.283005 0.000000
vt 0.000000 -52.334499
vt 19.484400 -35.005600
vt 0.000000 31.257200
vt 126.772003 -52.334499
vt 24.996201 -35.005600
vt 24.996201 -29.493799
vt 46.084202 -22.569201
vt 53.170898 -22.569201
vt 53.170898 -15.482600
vt 126.772003 31.257200
vt 46.084202 -15.482600
vt 40.900600 -4.498380
vt 31.451799 -4.498380
vt 19.484400 -29.493799
vt 31.451799 -13.947200
vt 40.900600 -13.947200
vt 64.084602 0.000000
vt 0.000000 31.916901
vt -0.000000 121.973999
vt -4.114170 124.900002
vt -4.114170 121.973999
vt -0.000000 124.900002
vt -122.656998 124.900002
vt -64.186897 97.401100
vt -84.979698 105.799004
vt -94.822197 105.799004
vt -94.822197 95.956398
vt -103.976997 94.396698
vt -111.457001 94.396698
vt -111.457001 86.916397
vt -122.656998 121.973999
vt -126.772003 77.851898
vt -103.976997 86.916397
vt -77.179001 84.408897
vt -64.186897 84.408897
vt -0.000000 77.851898
vt 33.070900 76.771698
vt 0.000000 0.000000
vt -126.772003 83.591698
vt -0.000000 83.591698
vt -126.772003 0.000000
vt -33.070900 76.771698
vt -20.967501 0.000000
vt -0.000000 0.000000
vt -64.084602 73.275703
vt -126.772003 121.973999
vt -126.772003 124.900002
vt 122.656998 31.916901
vt 126.772003 31.916901
vt 33.733501 106.542999
vt 69.108200 31.775999
vt 32.170502 111.501999
vt 57.297199 31.775999
vt -33.070900 0.000000
vt -33.070900 126.772003
vt -20.967501 126.772003
vt -24.097000 134.451004
vt -141.582001 69.847198
vt -133.602997 -13.601200
vt -125.309998 -13.601200
vt -142.358994 73.828400
vt -77.179001 97.401100
vt -84.979698 95.956398
vn 0.0000 0.0000 -1.0000
vn 0.0000 -1.0000 -0.0000
vn 1.0000 -0.0000 0.0000
vn -0.0000 -0.0000 1.0000
vn -1.0000 -0.0000 0.0000
vn 0.0000 1.0000 0.0000
vn 0.8132 0.4785 -0.3314
vn 0.8132 0.4785 -0.3312
vn 0.8131 0.4785 -0.3315
vn -0.6261 -0.2697 -0.7316
vn 0.7113 0.7029 0.0000
vn 0.9184 0.3956 -0.0000
vn 0.9184 0.3956 0.0001
vn -0.7113 0.7029 0.0000
vn -0.9184 0.3956 0.0000
vn 0.6261 -0.2697 -0.7316
vn -0.8132 0.4785 -0.3312
vn -0.8132 0.4785 -0.3314
vn -0.8131 0.4785 -0.3317
usemtl Wood.048
s 1
f 1/1/1 10/2/1 5/3/1
f 11/4/1 10/2/1 1/1/1
f 10/2/1 11/4/1 12/5/1
f 11/6/2 13/7/2 12/8/2
f 13/7/2 11/6/2 14/9/2
f 11/10/3 15/11/3 14/12/3
f 15/11/3 11/10/3 6/13/3
f 6/13/3 11/10/3 1/14/3
f 6/13/3 1/14/3 4/15/3
f 34/16/3 18/17/3 20/18/3
f 18/17/3 34/16/3 17/19/3
f 34/20/1 35/21/1 17/22/1
f 35/21/1 34/20/1 36/23/1
f 34/24/2 37/25/2 36/26/2
f 37/25/2 34/24/2 20/27/2
f 17/22/1 35/21/1 16/28/1
f 39/29/4 40/30/4 38/31/4
f 40/30/4 39/29/4 41/32/4
f 41/32/4 39/29/4 18/33/4
f 17/19/3 41/34/3 18/17/3
f 41/34/3 17/19/3 42/35/3
f 16/28/1 42/36/1 17/22/1
f 42/36/1 16/28/1 43/37/1
f 43/37/1 16/28/1 35/21/1
f 44/38/4 64/39/4 52/40/4
f 64/39/4 44/38/4 65/41/4
f 65/41/4 44/38/4 15/42/4
f 10/43/5 62/44/5 61/45/5
f 12/46/5 62/44/5 10/43/5
f 13/47/5 62/44/5 12/46/5
f 62/44/5 13/47/5 52/48/5
f 13/49/4 15/42/4 52/40/4
f 15/42/4 13/49/4 14/50/4
f 52/40/4 15/42/4 44/38/4
f 52/48/5 68/51/5 62/44/5
f 68/51/5 52/48/5 64/52/5
f 65/53/6 68/54/6 64/55/6
f 68/54/6 65/53/6 69/56/6
f 65/57/3 6/13/3 69/58/3
f 6/13/3 65/57/3 15/11/3
f 63/59/1 69/60/1 6/61/1
f 69/60/1 63/59/1 68/62/1
f 68/62/1 63/59/1 62/63/1
f 35/64/5 37/65/5 38/66/5
f 37/65/5 35/64/5 36/67/5
f 38/66/5 43/68/5 35/64/5
f 43/68/5 38/66/5 40/69/5
f 41/70/6 43/71/6 40/72/6
f 43/71/6 41/70/6 42/73/6
usemtl Green_Roof.001
f 1/1/1 2/74/1 3/75/1
f 2/74/1 1/1/1 4/76/1
f 5/3/1 4/76/1 1/1/1
f 6/61/1 4/76/1 5/3/1
f 7/77/1 4/76/1 6/61/1
f 8/78/1 4/76/1 7/77/1
f 4/76/1 8/78/1 2/74/1
f 9/79/7 4/80/8 2/81/7
f 4/80/8 9/79/7 5/82/9
f 9/83/10 1/84/10 5/85/10
f 1/84/10 9/83/10 3/86/10
f 2/87/2 3/88/2 9/89/2
f 15/90/11 7/91/11 6/92/11
f 16/93/11 7/91/11 15/90/11
f 17/94/11 7/91/11 16/93/11
f 18/95/11 7/91/11 17/94/11
f 7/91/11 18/95/11 19/96/11
f 20/97/4 19/98/4 18/33/4
f 19/98/4 20/97/4 21/99/4
f 21/100/12 22/101/12 19/102/12
f 22/101/12 21/100/12 8/103/12
f 22/101/12 8/103/12 23/104/12
f 23/104/12 8/103/12 24/105/12
f 24/105/12 8/103/12 25/106/12
f 25/106/12 8/103/12 26/107/12
f 26/107/12 8/103/12 27/108/12
f 7/109/12 27/108/12 8/103/12
f 7/109/12 28/110/12 27/108/12
f 7/109/12 29/111/12 28/110/12
f 7/109/12 30/112/12 29/111/12
f 19/102/12 30/112/12 7/109/12
f 30/112/12 19/102/12 31/113/13
f 31/113/13 19/102/12 22/101/12
f 30/112/12 31/113/13 24/105/12
f 30/112/12 24/105/12 32/114/12
f 24/105/12 25/106/12 32/114/12
f 32/114/12 25/106/12 33/115/12
f 33/115/12 25/106/12 29/111/12
f 28/110/12 29/111/12 25/106/12
f 18/33/4 37/116/4 20/97/4
f 37/116/4 18/33/4 38/31/4
f 38/31/4 18/33/4 39/29/4
f 17/94/11 39/117/11 18/95/11
f 39/117/11 17/94/11 16/93/11
f 38/118/14 16/119/14 35/120/14
f 16/119/14 38/118/14 39/121/14
f 44/122/14 35/120/14 16/119/14
f 35/120/14 44/122/14 45/123/14
f 45/123/14 44/122/14 46/124/14
f 46/124/14 44/122/14 47/125/14
f 47/125/14 44/122/14 48/126/14
f 48/126/14 44/122/14 49/127/14
f 49/127/14 44/122/14 50/128/14
f 50/128/14 44/122/14 51/129/14
f 52/130/14 51/129/14 44/122/14
f 53/131/14 51/129/14 52/130/14
f 53/131/14 54/132/14 51/129/14
f 53/131/14 55/133/14 54/132/14
f 53/131/14 56/134/14 55/133/14
f 57/135/14 56/134/14 53/131/14
f 57/135/14 35/120/14 56/134/14
f 35/120/14 57/135/14 38/118/14
f 57/136/4 37/116/4 38/31/4
f 37/116/4 57/136/4 58/137/4
f 53/138/15 58/137/15 57/139/15
f 58/137/15 53/138/15 59/140/15
f 53/141/1 60/142/1 59/143/1
f 60/142/1 53/141/1 61/144/1
f 61/144/1 53/141/1 62/63/1
f 53/131/14 52/130/14 62/145/14
f 52/130/14 63/146/14 62/145/14
f 63/146/14 52/130/14 44/122/14
f 44/147/11 16/93/11 15/90/11
f 6/92/11 44/147/11 15/90/11
f 44/147/11 6/92/11 63/148/11
f 6/61/1 62/63/1 63/59/1
f 5/3/1 62/63/1 6/61/1
f 62/63/1 5/3/1 61/144/1
f 5/3/1 10/2/1 61/144/1
f 10/149/16 66/150/16 5/151/16
f 66/150/16 10/149/16 67/152/16
f 67/153/1 61/144/1 10/2/1
f 61/144/1 67/153/1 60/142/1
f 67/154/2 60/155/2 66/156/2
f 61/157/17 66/158/18 60/159/18
f 66/158/18 61/157/17 5/160/19
f 56/134/14 35/120/14 45/123/14
f 70/161/14 46/124/14 55/133/14
f 45/123/14 46/124/14 70/161/14
f 71/162/14 55/133/14 46/124/14
f 54/132/14 55/133/14 71/162/14
f 54/132/14 71/162/14 48/126/14
f 54/132/14 48/126/14 49/127/14
usemtl Leafs.020
f 23/104/12 31/113/13 22/101/12
f 31/113/13 23/104/12 24/105/12
f 26/107/12 28/110/12 25/106/12
f 28/110/12 26/107/12 27/108/12
f 30/112/12 33/115/12 29/111/12
f 33/115/12 30/112/12 32/114/12
f 70/161/14 56/134/14 45/123/14
f 56/134/14 70/161/14 55/133/14
f 71/162/14 47/125/14 48/126/14
f 47/125/14 71/162/14 46/124/14
f 50/128/14 54/132/14 49/127/14
f 54/132/14 50/128/14 51/129/14
