# Blender v2.79 (sub 0) OBJ File: 'untitled.blend'
# www.blender.org
mtllib naturePack_145.mtl
o Mesh1_Plate_River_Dirt_Model.004
v 3.000000 0.000000 0.000000
v 2.241300 0.150000 0.000000
v 0.000000 0.000000 0.000000
v 3.000000 0.300000 0.000000
v 3.000000 0.000000 -3.000000
v 3.000000 0.300000 -3.000000
v 0.000000 0.300000 -3.000000
v 0.000000 0.000000 -3.000000
v 0.000000 0.300000 0.000000
v 0.758698 0.150000 0.000000
v 0.877648 0.150000 -0.371864
v 1.121360 0.150000 -1.274920
v 1.573090 0.150000 -2.693600
v 2.241300 0.150000 -1.924320
v 2.241300 0.150000 -0.701031
v 2.360250 0.150000 -0.371864
v 2.241300 0.300000 -0.701031
v 2.360250 0.300000 -0.371864
v 2.241300 0.300000 0.000000
v 2.603960 0.300000 -1.274920
v 2.387470 0.300000 -2.387190
v 1.573090 0.300000 -2.693600
v 0.904869 0.300000 -2.387190
v 0.758698 0.300000 -1.924320
v 0.758698 0.300000 0.000000
v 0.877648 0.300000 -0.371864
v 0.758698 0.150000 -0.701031
v 0.758698 0.300000 -0.701031
v 1.121360 0.300000 -1.274920
v 0.758698 0.150000 -1.924320
v 0.904869 0.150000 -2.387190
v 2.387470 0.150000 -2.387190
v 2.241300 0.300000 -1.924320
v 2.603960 0.150000 -1.274920
vt 118.110001 0.000000
vt 88.240196 5.905510
vt 0.000000 0.000000
vt 118.110001 11.811000
vt 118.110001 0.000000
vt 0.000000 11.811000
vt 0.000000 0.000000
vt 118.110001 11.811000
vt -118.110001 -0.000000
vt -0.000000 11.811000
vt -118.110001 11.811000
vt -0.000000 -0.000000
vt -118.110001 118.110001
vt 0.000000 118.110001
vt -118.110001 0.000000
vt -118.110001 11.811000
vt -118.110001 0.000000
vt 0.000000 11.811000
vt 29.870001 5.905510
vt 17.811800 5.905510
vt 4.032260 11.811000
vt 4.032260 5.905510
vt 17.811800 11.811000
vt -26.884001 5.905510
vt -42.255001 11.811000
vt -42.255001 5.905510
vt -26.884001 11.811000
vt 88.240196 11.811000
vt 29.870001 11.811000
vt 24.471500 5.905510
vt 9.100430 11.811000
vt 9.100430 5.905510
vt 24.471500 11.811000
vt 15.805300 5.905510
vt 2.025760 11.811000
vt 2.025760 5.905510
vt 15.805300 11.811000
vt 66.015503 5.905510
vt 39.288200 11.811000
vt 39.288200 5.905510
vt 66.015503 11.811000
vt 51.581100 5.905510
vt 22.297600 11.811000
vt 22.297600 5.905510
vt 51.581100 11.811000
vt 100.348999 5.905510
vt 81.238602 11.811000
vt 81.238602 5.905510
vt 100.348999 11.811000
vt 71.556099 5.905510
vt 100.498001 11.811000
vt 71.556099 11.811000
vt 100.498001 5.905510
vt 20.622200 5.905510
vt 54.878899 11.811000
vt 20.622200 11.811000
vt 54.878899 5.905510
vt -98.815697 5.905510
vt -117.926003 11.811000
vt -117.926003 5.905510
vt -98.815697 11.811000
vt 6.162330 5.905510
vt -23.121099 11.811000
vt -23.121099 5.905510
vt 6.162330 11.811000
vt -70.470100 5.905510
vt -97.197304 11.811000
vt -97.197304 5.905510
vt -70.470100 11.811000
vt 88.240196 0.000000
vt 34.553101 14.640300
vt 29.870001 0.000000
vt 44.147900 50.193600
vt 61.932499 106.046997
vt 88.240196 75.760399
vt 88.240196 27.599600
vt 92.923302 14.640300
vt 35.624699 93.983902
vt 29.870001 75.760399
vt 93.995003 93.983902
vt 102.517998 50.193600
vt 29.870001 27.599600
vt 118.110001 0.000000
vt 92.923302 14.640300
vt 88.240196 0.000000
vt 102.517998 50.193600
vt 118.110001 118.110001
vt 93.995003 93.983902
vt 61.932499 106.046997
vt 0.000000 118.110001
vt 35.624699 93.983902
vt 29.870001 75.760399
vt 29.870001 0.000000
vt 0.000000 0.000000
vt 88.240196 27.599600
vt 88.240196 75.760399
vt 44.147900 50.193600
vt 29.870001 27.599600
vt 34.553101 14.640300
vn 0.0000 -0.0000 1.0000
vn 1.0000 0.0000 0.0000
vn 0.0000 0.0000 -1.0000
vn 0.0000 -1.0000 -0.0000
vn -1.0000 0.0000 0.0000
vn -0.9405 -0.0000 0.3399
vn -0.9525 0.0000 -0.3047
vn 0.9525 0.0000 0.3047
vn 0.9405 0.0000 -0.3399
vn 0.8454 -0.0000 0.5342
vn 0.8731 0.0000 -0.4876
vn 0.9536 0.0000 0.3011
vn 0.4168 0.0000 0.9090
vn -0.3521 0.0000 0.9359
vn -0.9536 0.0000 -0.3011
vn -0.8731 0.0000 0.4876
vn -0.8454 -0.0000 -0.5342
vn 0.0000 1.0000 0.0000
vn -0.2107 -0.5115 -0.8330
vn 0.2592 0.5969 -0.7593
usemtl Wood.087
s 1
f 1/1/1 2/2/1 3/3/1
f 2/2/1 1/1/1 4/4/1
f 5/5/2 4/6/2 1/7/2
f 4/6/2 5/5/2 6/8/2
f 5/9/3 7/10/3 6/11/3
f 7/10/3 5/9/3 8/12/3
f 5/13/4 3/3/4 8/14/4
f 3/3/4 5/13/4 1/15/4
f 3/3/5 7/16/5 8/17/5
f 7/16/5 3/3/5 9/18/5
f 3/3/1 10/19/1 9/18/1
f 10/19/1 3/3/1 2/2/1
f 16/20/6 17/21/6 15/22/6
f 17/21/6 16/20/6 18/23/6
f 2/24/7 18/25/7 16/26/7
f 18/25/7 2/24/7 19/27/7
f 2/2/1 4/4/1 19/28/1
f 9/18/1 10/19/1 25/29/1
f 11/30/8 25/31/8 10/32/8
f 25/31/8 11/30/8 26/33/8
f 27/34/9 26/35/9 11/36/9
f 26/35/9 27/34/9 28/37/9
f 12/38/10 28/39/10 27/40/10
f 28/39/10 12/38/10 29/41/10
f 30/42/11 29/43/11 12/44/11
f 29/43/11 30/42/11 24/45/11
f 31/46/12 24/47/12 30/48/12
f 24/47/12 31/46/12 23/49/12
f 31/50/13 22/51/13 23/52/13
f 22/51/13 31/50/13 13/53/13
f 13/54/14 21/55/14 22/56/14
f 21/55/14 13/54/14 32/57/14
f 14/58/15 21/59/15 32/60/15
f 21/59/15 14/58/15 33/61/15
f 34/62/16 33/63/16 14/64/16
f 33/63/16 34/62/16 20/65/16
f 15/66/17 20/67/17 34/68/17
f 20/67/17 15/66/17 17/69/17
usemtl Water.011
f 2/70/18 11/71/18 10/72/18
f 11/71/18 2/70/18 12/73/18
f 12/73/18 2/70/18 13/74/18
f 13/74/18 2/70/18 14/75/18
f 14/75/18 2/70/18 15/76/19
f 16/77/18 15/76/19 2/70/18
f 31/78/18 12/73/18 13/74/18
f 12/73/18 31/78/18 30/79/18
f 13/74/18 14/75/18 32/80/18
f 34/81/18 14/75/18 15/76/19
f 12/73/18 27/82/18 11/71/18
usemtl Leafs.051
f 4/83/18 18/84/18 19/85/18
f 18/84/18 4/83/18 20/86/18
f 6/87/18 20/86/18 4/83/18
f 6/87/18 21/88/18 20/86/18
f 6/87/18 22/89/18 21/88/18
f 7/90/18 22/89/18 6/87/18
f 7/90/18 23/91/18 22/89/18
f 7/90/18 24/92/18 23/91/18
f 7/90/18 25/93/18 24/92/18
f 25/93/18 7/90/18 9/94/18
f 20/86/18 17/95/18 18/84/18
f 20/86/18 21/88/18 33/96/18
f 29/97/18 24/92/18 28/98/20
f 24/92/18 25/93/18 28/98/20
f 26/99/18 28/98/20 25/93/18
