# Blender v2.79 (sub 0) OBJ File: 'untitled.blend'
# www.blender.org
mtllib naturePack_117.mtl
o Mesh1_Brown_Cliff_Corner_Green_Top_Model
v 0.780000 0.000000 0.000000
v 0.000000 0.000000 0.000000
v 0.780000 0.000000 -0.780000
v 0.780000 2.200000 0.000000
v 0.000000 2.200000 0.000000
v 0.780000 2.200000 -0.780000
vt -30.708700 0.000000
vt 0.000000 0.000000
vt -30.708700 30.708700
vt 30.708700 86.614197
vt 30.708700 0.000000
vt 0.000000 86.614197
vt -43.428600 86.614197
vt -43.428600 0.000000
vt 0.000000 86.614197
vt 30.708700 0.000000
vt 30.708700 86.614197
vt 0.000000 0.000000
vt 30.708700 30.708700
vt 0.000000 0.000000
vt 30.708700 0.000000
vn 0.0000 -1.0000 -0.0000
vn 0.0000 -0.0000 1.0000
vn -0.7071 0.0000 -0.7071
vn 1.0000 0.0000 0.0000
vn 0.0000 1.0000 0.0000
usemtl Wood.068
s 1
f 1/1/1 2/2/1 3/3/1
f 4/4/2 2/2/2 1/5/2
f 2/2/2 4/4/2 5/6/2
f 6/7/3 2/2/3 5/6/3
f 2/2/3 6/7/3 3/8/3
f 4/9/4 3/10/4 6/11/4
f 3/10/4 4/9/4 1/12/4
usemtl Leafs.042
f 6/13/5 5/14/5 4/15/5
