# Blender v2.79 (sub 0) OBJ File: 'untitled.blend'
# www.blender.org
mtllib naturePack_051.mtl
o Mesh1_Group1_Model.040
v 0.960769 3.379730 -1.788039
v 1.477850 3.543640 -1.407939
v 1.578880 3.309230 -1.466269
v 0.960769 3.543640 -1.706479
v 0.383145 3.403170 -1.442889
v 0.443683 3.543640 -1.407939
v 0.443683 3.543640 -0.810859
v 0.364586 3.360100 -0.765193
v 0.180154 3.370650 -0.701640
v 0.180154 3.427440 -1.565539
v 0.927728 3.396340 -2.000499
v 0.978354 4.200211 -1.653179
v 0.469123 4.154530 -1.388159
v 0.503867 4.205800 -0.816913
v 0.988057 4.288600 -0.587260
v 0.927728 3.282760 -0.272701
v 0.960769 3.287500 -0.384856
v 0.000000 2.514120 -0.554700
v 0.960769 2.514120 0.000000
v 0.862749 2.514120 -1.011380
v 0.862749 2.514120 -1.207420
v 0.960769 2.514121 -2.218800
v 0.000000 2.514120 -1.664100
v 1.675300 3.308450 -1.571559
v 1.425260 4.284670 -1.342909
v 1.018940 4.198340 -1.741769
v 0.442525 4.149810 -1.402839
v 0.442525 4.204420 -0.734529
v 1.018940 4.307570 -0.405141
v 0.591465 4.431800 -0.848106
v 0.993809 4.384500 -0.617251
v 1.407360 4.322940 -0.845575
v 1.396150 4.367760 -0.851345
v 1.396150 4.398320 -1.316299
v 0.993809 4.445621 -1.547149
v 0.591465 4.462360 -1.313059
v 1.675300 3.251660 -0.707659
v 1.595350 4.356100 -0.744066
v 1.595350 4.301480 -1.412379
v 0.906981 5.322890 -1.513949
v 1.258400 5.288890 -1.337839
v 0.924714 5.327731 -1.618559
v 0.591424 5.333270 -1.323129
v 0.510558 5.341930 -1.378089
v 0.510558 5.314300 -0.899630
v 0.584924 5.312250 -0.951584
v 0.592371 5.370190 -0.962936
v 0.592371 5.340800 -1.322619
v 0.902597 5.366920 -1.505029
v 1.212820 5.422430 -1.327759
v 1.212820 5.451820 -0.968069
v 1.278410 5.263960 -0.929663
v 0.918053 5.277160 -0.735109
v 0.902597 5.425700 -0.785660
v 0.924714 5.272470 -0.661647
v 0.996823 6.678130 -1.011749
v 0.938870 6.683980 -1.045049
v 0.938870 6.687850 -1.111999
v 0.996823 6.685860 -1.145649
v 1.054780 6.676140 -1.045399
v 1.338870 5.258270 -0.902120
v 1.338870 5.285900 -1.380579
v 1.054780 6.680010 -1.112349
v 1.600180 3.259800 -0.740236
v 1.921540 2.514120 -0.554700
v 1.058790 2.514120 -1.011380
v 0.775285 0.000000 -0.923916
v 1.146250 0.000000 -0.923916
v 1.146250 0.000000 -1.294880
v 0.775285 0.000000 -1.294880
v 1.058790 2.514120 -1.207420
v 1.921540 2.514120 -1.664100
v 1.477850 3.543640 -0.810859
v 0.960769 3.543640 -0.512320
vt 30.523001 1.264670
vt 41.684601 100.306000
vt 33.966499 100.306000
vt 45.128101 1.264670
vt -30.523001 36.374599
vt -45.128101 50.979698
vt -45.128101 36.374599
vt -30.523001 50.979698
vt -39.818100 100.101997
vt -50.979698 1.061220
vt -36.374599 1.061220
vt -47.536201 100.101997
vt -41.684601 39.818100
vt -33.966499 47.536201
vt -41.684601 47.536201
vt 39.818100 97.472099
vt 50.979698 -1.569010
vt 47.536201 97.472099
vt 36.374599 -1.569010
vt -45.128101 -1.772460
vt -33.966499 97.268700
vt -41.684601 97.268700
vt -30.523001 -1.772460
vt 2.439850 90.582397
vt -22.672800 97.609200
vt -24.969101 87.559799
vt 0.834234 97.609200
vt -41.466900 106.556999
vt -66.349998 112.580002
vt -67.955597 105.553001
vt -42.842899 112.580002
vt -56.806702 129.013000
vt -31.923599 135.035004
vt -55.430698 135.035004
vt -30.125700 127.167000
vt -25.834801 25.668301
vt -53.444901 38.111698
vt -32.381302 21.631100
vt -52.093601 47.399899
vt -84.020302 35.497200
vt -36.394501 106.003998
vt -65.476700 138.856995
vt -70.442101 104.681999
vt -42.887501 136.914001
vt -61.432701 128.830994
vt -31.641500 161.735001
vt -54.159000 159.567993
vt -27.432199 126.431000
vt -6.739290 135.024002
vt 23.445700 172.798004
vt 2.370930 169.391006
vt 27.177099 131.406998
vt -31.502600 -7.966220
vt -35.738300 -6.154550
vt -10.919300 98.384399
vt 25.181999 131.539001
vt -2.632140 134.651993
vt 32.757900 98.384399
vt 0.000000 21.838600
vt -33.966499 39.818100
vt -37.825500 0.000000
vt -37.825500 87.354301
vt 0.000000 65.515701
vt -65.515701 90.899200
vt -21.838600 90.899200
vt -76.434998 68.443703
vt -32.757900 68.443703
vt -78.389397 29.143200
vt -89.688103 1.862700
vt 10.457800 99.521500
vt -19.831900 136.395004
vt -23.455200 95.873398
vt 1.558690 132.889008
vt 75.615402 23.971100
vt 79.422302 23.491301
vt 74.473198 45.616798
vt 56.200500 12.262000
vt 56.141899 11.052900
vt 33.758999 25.050100
vt 37.787701 25.403799
vt 34.656502 51.485901
vt 40.116901 46.624802
vt 4.836190 178.690994
vt 23.090000 176.744995
vt 64.638702 165.639008
vt 46.049400 168.130997
vt 45.252201 164.250000
vt 64.375099 167.453003
vt 53.793598 150.059006
vt 34.424198 153.432999
vt 34.204399 151.613007
vt 52.726799 154.673996
vt -1.158030 143.076004
vt -19.410000 141.112000
vt -45.636501 150.001007
vt -63.960899 149.289993
vt -32.780499 171.289001
vt -51.079498 172.580994
vt 62.957298 110.421997
vt 28.950199 108.115997
vt 36.889999 123.540001
vt 70.940002 122.281998
vt 57.446098 55.426498
vt 57.937000 63.924301
vt 80.319801 49.926998
vt -3.864730 189.153000
vt -29.713200 147.929993
vt -3.591820 143.766998
vt -19.337200 187.781006
vt -68.530602 30.005600
vt -72.118797 32.152699
vt -72.221703 14.917300
vt -54.756199 34.611599
vt -54.339298 38.453400
vt -39.998001 26.192301
vt -43.453499 25.285801
vt -38.150002 212.630997
vt -52.329601 211.166000
vt -37.700001 210.332001
vt -52.310101 211.464005
vt -60.957100 205.774002
vt -46.767502 204.438995
vt -46.789200 204.738007
vt -61.285801 204.028000
vt -17.933901 193.171005
vt -3.875420 190.929993
vt 36.758701 187.169998
vt 51.260399 180.388000
vt 50.914001 185.947006
vt 35.174900 179.350006
vt 60.241001 206.054993
vt 45.644100 198.774002
vt 61.765999 198.223999
vt 46.077099 204.966003
vt 13.877200 218.248993
vt -0.194014 213.660995
vt 15.443800 212.242004
vt -0.180623 216.003998
vt -43.436100 7.630490
vt -45.467999 9.713480
vt 15.330300 268.179993
vt 0.649074 212.921005
vt 19.450399 211.227005
vt 12.699400 268.416992
vt 55.770599 19.288601
vt 57.296398 23.601801
vt 55.289501 21.886000
vt 59.784302 22.720100
vt 58.258598 18.407000
vt 44.586800 204.720001
vt 56.659801 260.957001
vt 54.021500 261.036987
vt 63.441101 204.151001
vt -60.497898 3.855060
vt -61.215599 1.329770
vt 69.135597 160.378006
vt 42.818298 158.354996
vt 25.670000 173.035995
vt -0.450070 168.865005
vt -55.407101 164.201004
vt -29.097099 166.369003
vt -69.680099 159.423004
vt -43.355400 157.498001
vt 53.821899 139.287994
vt 27.520700 141.561005
vt -75.556900 13.590900
vt 1.918870 183.356003
vt -12.794800 238.505005
vt -16.881399 181.649994
vt -10.164100 238.742996
vt -44.264702 188.130997
vt -56.396000 243.832001
vt -63.118401 187.542007
vt -53.757702 243.914001
vt -53.881199 206.945999
vt -40.465302 262.335999
vt -43.100700 262.494995
vt -35.047501 205.806000
vt 60.265400 20.122700
vt 41.637798 249.550995
vt 54.963200 193.716995
vt 44.273499 249.707001
vt 36.127602 192.606995
vt -63.429199 -19.868999
vt -62.539700 -16.753799
vt 32.757900 83.414101
vt 69.130402 115.382004
vt 40.333801 116.569000
vt 76.434998 83.414101
vt -75.651100 21.838600
vt -75.651100 65.515701
vt -32.757900 53.473301
vt 10.919300 53.473301
vt -84.074898 2.160590
vt 57.727001 95.044998
vt 31.923599 105.094002
vt 29.143200 92.926102
vt 55.430698 105.094002
vt 66.349998 127.550003
vt 42.842899 127.550003
vt 22.672800 142.520004
vt -0.834234 142.520004
vt 65.515701 60.958500
vt 21.838600 60.958500
vn 0.0000 0.0348 0.9994
vn 0.0000 -1.0000 -0.0000
vn -0.9994 0.0348 0.0000
vn 0.9994 0.0348 0.0000
vn 0.0000 0.0348 -0.9994
vn 0.4592 0.3958 -0.7953
vn 0.4592 0.3957 -0.7953
vn -0.4592 0.3957 -0.7953
vn -0.4592 0.3958 -0.7953
vn -0.9183 0.3958 0.0000
vn -0.9184 0.3958 0.0000
vn -0.0794 -0.9947 -0.0654
vn -0.4539 0.3773 -0.8072
vn -0.9310 0.3642 0.0239
vn -0.4502 0.2910 0.8442
vn -0.4592 0.3958 0.7953
vn 0.4998 0.3168 -0.8061
vn 0.1307 -0.9881 0.0807
vn 0.1307 -0.9881 0.0808
vn 0.1308 -0.9881 0.0808
vn 0.4964 0.2318 0.8366
vn 0.9695 0.2446 0.0161
vn 0.4964 0.2319 0.8366
vn 0.1306 -0.9881 0.0808
vn 0.4540 0.2201 -0.8634
vn -0.0675 -0.9961 -0.0575
vn -0.0676 -0.9961 -0.0575
vn -0.9920 0.1255 -0.0103
vn -0.5107 0.1219 -0.8511
vn -0.5107 0.1216 -0.8511
vn 0.9454 0.3247 -0.0265
vn 0.9455 0.3247 -0.0265
vn 0.4580 0.3287 0.8259
vn 0.4580 0.3288 0.8259
vn -0.5135 0.2281 0.8272
vn -0.4661 0.2363 0.8526
vn 0.0676 0.9961 0.0575
vn 0.0675 0.9961 0.0576
vn 0.4982 0.1854 0.8470
vn 0.4580 0.3287 0.8260
vn 0.9455 0.3246 -0.0265
vn 0.5006 0.2608 -0.8254
vn -0.4689 0.3125 -0.8261
vn -0.9538 0.3001 0.0173
vn 0.9802 0.1976 0.0114
vn 0.4592 0.3958 0.7953
vn 0.9183 0.3958 0.0000
usemtl Wood.031
s 1
f 67/1/1 66/2/1 20/3/1
f 66/2/1 67/1/1 68/4/1
f 67/5/2 69/6/2 68/7/2
f 69/6/2 67/5/2 70/8/2
f 20/9/3 70/10/3 67/11/3
f 70/10/3 20/9/3 21/12/3
f 66/13/2 21/14/2 71/15/2
f 66/16/4 69/17/4 71/18/4
f 69/17/4 66/16/4 68/19/4
f 69/20/5 21/21/5 71/22/5
f 21/21/5 69/20/5 70/23/5
usemtl Leafs.006
f 1/24/6 2/25/6 3/26/6
f 2/25/7 1/24/7 4/27/7
f 5/28/8 4/29/8 1/30/8
f 4/29/9 5/28/9 6/31/9
f 5/32/10 7/33/11 6/34/10
f 7/33/11 5/32/10 8/35/11
f 9/36/12 5/37/12 8/38/12
f 10/39/12 5/37/12 9/36/12
f 5/37/12 10/39/12 11/40/12
f 10/41/13 12/42/13 11/43/13
f 12/42/13 10/41/13 13/44/13
f 10/45/14 14/46/14 13/47/14
f 14/46/14 10/45/14 9/48/14
f 9/49/15 15/50/15 14/51/15
f 15/50/15 9/49/15 16/52/15
f 8/38/12 16/53/12 9/36/12
f 16/53/12 8/38/12 17/54/12
f 18/55/16 17/56/16 8/57/16
f 17/56/16 18/55/16 19/58/16
f 18/59/2 20/60/2 19/61/2
f 20/60/2 18/59/2 21/14/2
f 18/59/2 22/62/2 21/14/2
f 22/62/2 18/59/2 23/63/2
f 8/35/10 23/64/10 18/65/10
f 23/64/10 8/35/10 5/32/10
f 5/28/9 22/66/9 23/67/9
f 22/66/9 5/28/9 1/30/9
f 5/37/12 11/40/12 1/68/12
f 1/68/12 11/40/12 24/69/12
f 11/70/17 25/71/17 24/72/17
f 25/71/17 11/70/17 12/73/17
f 12/74/18 26/75/18 25/76/19
f 13/77/20 26/75/18 12/74/18
f 13/77/20 27/78/20 26/75/18
f 27/78/20 13/77/20 28/79/18
f 14/80/18 28/79/18 13/77/20
f 28/79/18 14/80/18 29/81/19
f 29/81/19 14/80/18 15/82/19
f 15/50/15 30/83/15 14/51/15
f 30/83/15 15/50/15 31/84/15
f 32/85/21 31/86/21 15/87/21
f 31/86/21 32/85/21 33/88/21
f 25/89/22 33/90/22 32/91/22
f 33/90/22 25/89/22 34/92/22
f 25/71/17 35/93/17 34/94/17
f 35/93/17 25/71/17 12/73/17
f 12/42/13 36/95/13 35/96/13
f 36/95/13 12/42/13 13/44/13
f 13/47/14 30/97/14 36/98/14
f 30/97/14 13/47/14 14/46/14
f 32/91/22 24/99/22 25/89/22
f 24/99/22 32/91/22 37/100/22
f 32/85/23 16/101/23 37/102/23
f 16/101/23 32/85/23 15/87/21
f 29/81/19 15/82/19 32/103/19
f 29/81/19 32/103/19 38/104/19
f 38/104/19 32/103/19 25/76/19
f 38/104/19 25/76/19 39/105/24
f 25/76/19 26/75/18 39/105/24
f 40/106/25 39/107/25 26/108/25
f 39/107/25 40/106/25 41/109/25
f 40/110/26 42/111/26 41/112/27
f 43/113/27 42/111/26 40/110/26
f 43/113/27 44/114/27 42/111/26
f 44/114/27 43/113/27 45/115/27
f 45/115/27 43/113/27 46/116/27
f 47/117/28 43/118/28 46/119/28
f 43/118/28 47/117/28 48/120/28
f 49/121/29 43/122/29 48/123/29
f 43/122/30 49/121/30 40/124/30
f 50/125/25 40/106/25 49/126/25
f 40/106/25 50/125/25 41/109/25
f 51/127/31 41/128/31 50/129/31
f 41/128/32 51/127/32 52/130/32
f 51/131/33 53/132/33 52/133/34
f 53/132/33 51/131/33 54/134/33
f 54/135/35 46/136/35 53/137/35
f 46/136/35 54/135/35 47/138/35
f 55/139/26 46/116/27 53/140/26
f 46/116/27 55/139/26 45/115/27
f 56/141/36 45/142/36 55/143/36
f 45/142/36 56/141/36 57/144/36
f 56/145/37 58/146/37 57/147/38
f 58/146/37 56/145/37 59/148/37
f 59/148/37 56/145/37 60/149/37
f 55/150/39 60/151/39 56/152/39
f 60/151/39 55/150/39 61/153/39
f 55/139/26 52/154/26 61/155/26
f 55/139/26 53/140/26 52/154/26
f 53/132/40 38/156/40 52/133/40
f 38/156/33 53/132/33 29/157/33
f 46/136/35 29/158/35 53/137/35
f 29/158/35 46/136/35 28/159/35
f 46/119/28 27/160/28 28/161/28
f 27/160/28 46/119/28 43/118/28
f 43/122/30 26/162/30 27/163/30
f 26/162/30 43/122/30 40/124/30
f 39/164/41 52/130/41 38/165/41
f 52/130/41 39/164/41 41/128/41
f 41/112/27 62/166/27 52/154/26
f 41/112/27 42/111/26 62/166/27
f 42/167/42 63/168/42 62/169/42
f 63/168/42 42/167/42 59/170/42
f 44/171/43 59/172/43 42/173/43
f 59/172/43 44/171/43 58/174/43
f 44/175/44 57/176/44 58/177/44
f 57/176/44 44/175/44 45/178/44
f 59/148/37 60/149/37 63/179/38
f 60/180/45 62/181/45 63/182/45
f 62/181/45 60/180/45 61/183/45
f 61/155/26 52/154/26 62/166/27
f 16/53/12 17/54/12 37/184/12
f 37/184/12 17/54/12 64/185/12
f 19/186/46 64/187/46 17/188/46
f 64/187/46 19/186/46 65/189/46
f 19/61/2 66/13/2 65/190/2
f 19/61/2 20/60/2 66/13/2
f 66/13/2 20/60/2 21/14/2
f 21/14/2 22/62/2 71/15/2
f 71/15/2 22/62/2 72/191/2
f 1/24/6 72/192/6 22/193/6
f 72/192/6 1/24/6 3/26/6
f 1/68/12 24/69/12 3/194/12
f 3/194/12 24/69/12 64/185/12
f 37/184/12 64/185/12 24/69/12
f 3/195/47 73/196/47 64/197/47
f 73/196/47 3/195/47 2/198/47
f 73/199/46 17/188/46 64/187/46
f 17/188/46 73/199/46 74/200/46
f 74/201/16 8/57/16 17/56/16
f 8/57/16 74/201/16 7/202/16
f 64/197/47 72/203/47 3/195/47
f 72/203/47 64/197/47 65/204/47
f 65/190/2 66/13/2 72/191/2
f 71/15/2 72/191/2 66/13/2
