# Blender v2.79 (sub 0) OBJ File: 'untitled.blend'
# www.blender.org
mtllib naturePack_096.mtl
o Mesh1_Grey_Cliff_Top_Model
v -0.420000 0.290000 -3.000000
v 0.500000 0.000000 -3.000000
v -0.280000 0.000000 -3.000000
v 0.500000 0.290000 -3.000000
v -0.215291 0.290000 -3.000000
v -0.273829 0.290000 -2.387190
v -0.133829 0.000000 -2.387190
v 0.082659 0.000000 -1.274920
v 0.500000 0.000000 0.000000
v -0.161050 0.000000 -0.371864
v -0.280000 0.000000 0.000000
v 0.500000 0.290000 0.000000
v -0.420000 0.290000 0.000000
v -0.210938 0.290000 0.000000
v -0.090737 0.290000 -0.375774
v 0.174238 0.290000 -1.268630
v -0.067353 0.290000 -2.379780
v -0.204229 0.290000 -1.946340
v -0.420000 0.290000 -1.924320
v -0.057341 0.290000 -1.274920
v -0.280000 0.000000 -1.924320
v -0.280000 0.000000 -0.701031
v -0.420000 0.290000 -0.701031
v -0.301050 0.290000 -0.371864
v -0.199607 0.290000 -0.677046
vt 16.535400 11.417300
vt -19.684999 -0.000000
vt 11.023600 -0.000000
vt -19.684999 11.417300
vt 8.476010 11.417300
vt -8.476010 118.110001
vt -16.535400 118.110001
vt -10.780700 93.983902
vt -117.445000 -7.090210
vt -93.920601 5.523270
vt -118.723999 5.523270
vt -92.641701 -7.090210
vt -19.684999 118.110001
vt 5.268870 93.983902
vt 11.023600 118.110001
vt -3.254290 50.193600
vt -19.684999 0.000000
vt 6.340550 14.640300
vt 11.023600 -0.000000
vt 19.684999 11.417300
vt -11.023600 -0.000000
vt 19.684999 0.000000
vt -16.535400 11.417300
vt -8.304630 11.417300
vt -2.651690 93.692299
vt -8.040530 76.627502
vt -16.535400 75.760399
vt -2.257520 50.193600
vt -74.207199 1.781170
vt -42.236401 -10.608900
vt -44.923801 1.781170
vt -71.519798 -10.608900
vt -86.375099 26.504801
vt -68.924301 13.935700
vt -67.264603 26.504801
vt -88.034897 13.935700
vt 11.023600 75.760399
vt -17.442499 9.092080
vt -41.225399 21.423599
vt -44.169800 9.092080
vt -14.498100 21.423599
vt -15.923800 0.408251
vt -31.576500 12.947200
vt -29.703300 0.408251
vt -17.797001 12.947200
vt 3.358540 4.386300
vt -10.333300 16.952700
vt -12.012500 4.386300
vt 5.037820 16.952700
vt -8.304630 -0.000000
vt -11.852400 14.640300
vt -16.535400 -0.000000
vt -7.858530 26.655300
vt -16.535400 27.599600
vt 6.859780 49.946201
vt -3.572320 14.794200
vt 11.023600 27.599600
vt -0.000000 11.417300
vt 118.110001 -0.000000
vt 118.110001 11.417300
vt -0.000000 -0.000000
vt 19.684999 0.000000
vt 19.684999 118.110001
vn 0.0000 0.0000 -1.0000
vn 0.0000 0.0000 1.0000
vn -0.0000 1.0000 0.0000
vn -0.8805 -0.4251 0.2100
vn -0.0000 -1.0000 -0.0000
vn -0.8045 -0.3884 0.4493
vn -0.8662 -0.4182 -0.2735
vn -0.7827 -0.3778 -0.4946
vn -0.8563 -0.4134 0.3095
vn -0.8654 -0.4178 -0.2768
vn 1.0000 0.0000 0.0000
usemtl Stone.024
s 1
f 1/1/1 2/2/1 3/3/1
f 2/2/1 1/1/1 4/4/1
f 4/4/1 1/1/1 5/5/2
f 5/6/3 1/7/3 6/8/3
f 3/9/4 6/10/4 1/11/4
f 6/10/4 3/9/4 7/12/4
f 2/13/5 7/14/5 3/15/5
f 7/14/5 2/13/5 8/16/5
f 9/17/5 8/16/5 2/13/5
f 9/17/5 10/18/5 8/16/5
f 10/18/5 9/17/5 11/19/5
f 12/20/2 11/21/2 9/22/2
f 11/21/2 12/20/2 13/23/2
f 13/23/2 12/20/2 14/24/2
f 17/25/3 5/6/3 18/26/3
f 6/8/3 18/26/3 5/6/3
f 19/27/3 18/26/3 6/8/3
f 18/26/3 19/27/3 20/28/3
f 19/29/6 8/30/6 20/31/6
f 8/30/6 19/29/6 21/32/6
f 6/33/7 21/34/7 19/35/7
f 21/34/7 6/33/7 7/36/7
f 8/16/5 21/37/5 7/14/5
f 22/38/8 20/39/8 8/40/8
f 20/39/8 22/38/8 23/41/8
f 10/42/9 23/43/9 22/44/9
f 23/43/9 10/42/9 24/45/9
f 11/46/10 24/47/10 10/48/10
f 24/47/10 11/46/10 13/49/10
f 14/50/3 24/51/3 13/52/3
f 25/53/3 24/51/3 14/50/3
f 20/28/3 24/51/3 25/53/3
f 24/51/3 20/28/3 23/54/3
f 20/28/3 25/53/3 16/55/3
f 15/56/3 25/53/3 14/50/3
f 18/26/3 20/28/3 16/55/3
f 8/16/5 10/18/5 22/57/5
f 12/58/11 2/59/11 4/60/11
f 2/59/11 12/58/11 9/61/11
usemtl Leafs.032
f 12/62/3 15/56/3 14/50/3
f 15/56/3 12/62/3 16/55/3
f 4/63/3 16/55/3 12/62/3
f 4/63/3 17/25/3 16/55/3
f 17/25/3 4/63/3 5/6/3
f 16/55/3 25/53/3 15/56/3
f 16/55/3 17/25/3 18/26/3
